%TF.GenerationSoftware,KiCad,Pcbnew,9.0.3*%
%TF.CreationDate,2025-08-25T21:51:57-05:00*%
%TF.ProjectId,Power-MocoBulkCapacitorPCB,506f7765-722d-44d6-9f63-6f42756c6b43,rev?*%
%TF.SameCoordinates,Original*%
%TF.FileFunction,Soldermask,Bot*%
%TF.FilePolarity,Negative*%
%FSLAX46Y46*%
G04 Gerber Fmt 4.6, Leading zero omitted, Abs format (unit mm)*
G04 Created by KiCad (PCBNEW 9.0.3) date 2025-08-25 21:51:57*
%MOMM*%
%LPD*%
G01*
G04 APERTURE LIST*
G04 Aperture macros list*
%AMRoundRect*
0 Rectangle with rounded corners*
0 $1 Rounding radius*
0 $2 $3 $4 $5 $6 $7 $8 $9 X,Y pos of 4 corners*
0 Add a 4 corners polygon primitive as box body*
4,1,4,$2,$3,$4,$5,$6,$7,$8,$9,$2,$3,0*
0 Add four circle primitives for the rounded corners*
1,1,$1+$1,$2,$3*
1,1,$1+$1,$4,$5*
1,1,$1+$1,$6,$7*
1,1,$1+$1,$8,$9*
0 Add four rect primitives between the rounded corners*
20,1,$1+$1,$2,$3,$4,$5,0*
20,1,$1+$1,$4,$5,$6,$7,0*
20,1,$1+$1,$6,$7,$8,$9,0*
20,1,$1+$1,$8,$9,$2,$3,0*%
G04 Aperture macros list end*
%ADD10C,3.200000*%
%ADD11RoundRect,0.250000X-2.450000X0.650000X-2.450000X-0.650000X2.450000X-0.650000X2.450000X0.650000X0*%
%ADD12RoundRect,0.250000X2.450000X-0.650000X2.450000X0.650000X-2.450000X0.650000X-2.450000X-0.650000X0*%
%ADD13C,1.400000*%
%ADD14R,3.500000X3.500000*%
%ADD15C,3.500000*%
G04 APERTURE END LIST*
D10*
%TO.C,REF\u002A\u002A*%
X204000000Y-42000000D03*
%TD*%
%TO.C,REF\u002A\u002A*%
X105000000Y-82500000D03*
%TD*%
%TO.C,REF\u002A\u002A*%
X105000000Y-42000000D03*
%TD*%
%TO.C,REF\u002A\u002A*%
X211500000Y-82500000D03*
%TD*%
D11*
%TO.C,C103*%
X188500000Y-47050000D03*
X188500000Y-52150000D03*
%TD*%
D12*
%TO.C,C69*%
X110500000Y-77550000D03*
X110500000Y-72450000D03*
%TD*%
D11*
%TO.C,C108*%
X176500000Y-54600000D03*
X176500000Y-59700000D03*
%TD*%
D12*
%TO.C,C98*%
X194500000Y-69950000D03*
X194500000Y-64850000D03*
%TD*%
D13*
%TO.C,J1*%
X211500000Y-76500000D03*
X211500000Y-65500000D03*
D14*
X201500000Y-68500000D03*
D15*
X201500000Y-73500000D03*
%TD*%
D12*
%TO.C,C90*%
X170500000Y-70000000D03*
X170500000Y-64900000D03*
%TD*%
D11*
%TO.C,C126*%
X122500000Y-54500000D03*
X122500000Y-59600000D03*
%TD*%
%TO.C,C110*%
X170500000Y-54600000D03*
X170500000Y-59700000D03*
%TD*%
D12*
%TO.C,C87*%
X164500000Y-77550000D03*
X164500000Y-72450000D03*
%TD*%
D11*
%TO.C,C118*%
X146500000Y-54500000D03*
X146500000Y-59600000D03*
%TD*%
D12*
%TO.C,C91*%
X176500000Y-77500000D03*
X176500000Y-72400000D03*
%TD*%
%TO.C,C80*%
X140500000Y-70000000D03*
X140500000Y-64900000D03*
%TD*%
D11*
%TO.C,C122*%
X134500000Y-54500000D03*
X134500000Y-59600000D03*
%TD*%
%TO.C,C111*%
X164500000Y-46950000D03*
X164500000Y-52050000D03*
%TD*%
D12*
%TO.C,C67*%
X104500000Y-77550000D03*
X104500000Y-72450000D03*
%TD*%
D11*
%TO.C,C127*%
X116500000Y-46950000D03*
X116500000Y-52050000D03*
%TD*%
D12*
%TO.C,C93*%
X182500000Y-77450000D03*
X182500000Y-72350000D03*
%TD*%
D11*
%TO.C,C123*%
X128500000Y-46950000D03*
X128500000Y-52050000D03*
%TD*%
D12*
%TO.C,C70*%
X110500000Y-70000000D03*
X110500000Y-64900000D03*
%TD*%
%TO.C,C96*%
X188500000Y-70000000D03*
X188500000Y-64900000D03*
%TD*%
D11*
%TO.C,C119*%
X140500000Y-47000000D03*
X140500000Y-52100000D03*
%TD*%
D12*
%TO.C,C75*%
X128500000Y-77550000D03*
X128500000Y-72450000D03*
%TD*%
D11*
%TO.C,C106*%
X182500000Y-54600000D03*
X182500000Y-59700000D03*
%TD*%
%TO.C,C101*%
X194500000Y-47050000D03*
X194500000Y-52150000D03*
%TD*%
%TO.C,C113*%
X158500000Y-47000000D03*
X158500000Y-52100000D03*
%TD*%
D12*
%TO.C,C95*%
X188500000Y-77550000D03*
X188500000Y-72450000D03*
%TD*%
D11*
%TO.C,C120*%
X140500000Y-54550000D03*
X140500000Y-59650000D03*
%TD*%
%TO.C,C131*%
X104500000Y-46950000D03*
X104500000Y-52050000D03*
%TD*%
%TO.C,C109*%
X170500000Y-47050000D03*
X170500000Y-52150000D03*
%TD*%
%TO.C,C121*%
X134500000Y-46950000D03*
X134500000Y-52050000D03*
%TD*%
D12*
%TO.C,C81*%
X146500000Y-77550000D03*
X146500000Y-72450000D03*
%TD*%
D11*
%TO.C,C105*%
X182500000Y-47050000D03*
X182500000Y-52150000D03*
%TD*%
%TO.C,C129*%
X110500000Y-46950000D03*
X110500000Y-52050000D03*
%TD*%
%TO.C,C114*%
X158500000Y-54550000D03*
X158500000Y-59650000D03*
%TD*%
D12*
%TO.C,C84*%
X152500000Y-70000000D03*
X152500000Y-64900000D03*
%TD*%
%TO.C,C97*%
X194500000Y-77500000D03*
X194500000Y-72400000D03*
%TD*%
%TO.C,C72*%
X116500000Y-70000000D03*
X116500000Y-64900000D03*
%TD*%
%TO.C,C88*%
X164500000Y-70000000D03*
X164500000Y-64900000D03*
%TD*%
%TO.C,C82*%
X146500000Y-70000000D03*
X146500000Y-64900000D03*
%TD*%
D11*
%TO.C,C112*%
X164500000Y-54500000D03*
X164500000Y-59600000D03*
%TD*%
%TO.C,C117*%
X146500000Y-46950000D03*
X146500000Y-52050000D03*
%TD*%
D12*
%TO.C,C89*%
X170500000Y-77550000D03*
X170500000Y-72450000D03*
%TD*%
D11*
%TO.C,C115*%
X152500000Y-47000000D03*
X152500000Y-52100000D03*
%TD*%
%TO.C,C99*%
X200500000Y-47050000D03*
X200500000Y-52150000D03*
%TD*%
D12*
%TO.C,C76*%
X128500000Y-70000000D03*
X128500000Y-64900000D03*
%TD*%
%TO.C,C83*%
X152500000Y-77550000D03*
X152500000Y-72450000D03*
%TD*%
D11*
%TO.C,C116*%
X152500000Y-54550000D03*
X152500000Y-59650000D03*
%TD*%
%TO.C,C128*%
X116500000Y-54500000D03*
X116500000Y-59600000D03*
%TD*%
D12*
%TO.C,C85*%
X158500000Y-77550000D03*
X158500000Y-72450000D03*
%TD*%
D11*
%TO.C,C124*%
X128500000Y-54500000D03*
X128500000Y-59600000D03*
%TD*%
%TO.C,C107*%
X176500000Y-47050000D03*
X176500000Y-52150000D03*
%TD*%
%TO.C,C102*%
X194500000Y-54600000D03*
X194500000Y-59700000D03*
%TD*%
D12*
%TO.C,C86*%
X158500000Y-70000000D03*
X158500000Y-64900000D03*
%TD*%
%TO.C,C74*%
X122500000Y-70000000D03*
X122500000Y-64900000D03*
%TD*%
%TO.C,C78*%
X134500000Y-70000000D03*
X134500000Y-64900000D03*
%TD*%
%TO.C,C71*%
X116500000Y-77550000D03*
X116500000Y-72450000D03*
%TD*%
%TO.C,C73*%
X122500000Y-77550000D03*
X122500000Y-72450000D03*
%TD*%
%TO.C,C79*%
X140500000Y-77550000D03*
X140500000Y-72450000D03*
%TD*%
%TO.C,C77*%
X134500000Y-77550000D03*
X134500000Y-72450000D03*
%TD*%
D11*
%TO.C,C130*%
X110500000Y-54500000D03*
X110500000Y-59600000D03*
%TD*%
%TO.C,C104*%
X188500000Y-54600000D03*
X188500000Y-59700000D03*
%TD*%
%TO.C,C100*%
X200500000Y-54600000D03*
X200500000Y-59700000D03*
%TD*%
%TO.C,C132*%
X104500000Y-54350000D03*
X104500000Y-59450000D03*
%TD*%
D12*
%TO.C,C94*%
X182500000Y-69900000D03*
X182500000Y-64800000D03*
%TD*%
%TO.C,C68*%
X104500000Y-70000000D03*
X104500000Y-64900000D03*
%TD*%
%TO.C,C92*%
X176500000Y-69950000D03*
X176500000Y-64850000D03*
%TD*%
D11*
%TO.C,C125*%
X122500000Y-46950000D03*
X122500000Y-52050000D03*
%TD*%
M02*
