M48
; DRILL file {KiCad 9.0.3} date 2025-08-25T21:51:57-0500
; FORMAT={-:-/ absolute / inch / decimal}
; #@! TF.CreationDate,2025-08-25T21:51:57-05:00
; #@! TF.GenerationSoftware,Kicad,Pcbnew,9.0.3
; #@! TF.FileFunction,Plated,1,2,PTH
FMAT,2
INCH
; #@! TA.AperFunction,Plated,PTH,ViaDrill
T1C0.0118
; #@! TA.AperFunction,Plated,PTH,ComponentDrill
T2C0.0394
; #@! TA.AperFunction,Plated,PTH,ComponentDrill
T3C0.0748
%
G90
G05
T1
X4.0551Y-1.9193
X4.0551Y-2.4508
X4.0551Y-2.9823
X4.1732Y-1.9193
X4.1732Y-2.4508
X4.1732Y-2.9823
X4.7539Y-2.4508
X4.872Y-2.4508
X5.2362Y-2.4508
X5.3543Y-2.4508
X5.935Y-2.4508
X5.9449Y-1.9193
X5.9449Y-2.9823
X6.0531Y-2.4508
X6.063Y-1.9193
X6.063Y-2.9823
X6.3091Y-2.4508
X6.4272Y-2.4508
X6.6535Y-2.4508
X6.7717Y-2.4508
X7.126Y-2.4508
X7.2441Y-2.4508
X7.5984Y-2.9823
X7.7165Y-2.9823
X7.8346Y-1.9193
X7.9528Y-1.9193
T2
X8.3268Y-2.5787
X8.3268Y-3.0118
T3
X7.9331Y-2.6969
X7.9331Y-2.8937
M30
