%TF.GenerationSoftware,KiCad,Pcbnew,9.0.3*%
%TF.CreationDate,2025-08-25T21:51:57-05:00*%
%TF.ProjectId,Power-MocoBulkCapacitorPCB,506f7765-722d-44d6-9f63-6f42756c6b43,rev?*%
%TF.SameCoordinates,Original*%
%TF.FileFunction,Soldermask,Top*%
%TF.FilePolarity,Negative*%
%FSLAX46Y46*%
G04 Gerber Fmt 4.6, Leading zero omitted, Abs format (unit mm)*
G04 Created by KiCad (PCBNEW 9.0.3) date 2025-08-25 21:51:57*
%MOMM*%
%LPD*%
G01*
G04 APERTURE LIST*
G04 Aperture macros list*
%AMRoundRect*
0 Rectangle with rounded corners*
0 $1 Rounding radius*
0 $2 $3 $4 $5 $6 $7 $8 $9 X,Y pos of 4 corners*
0 Add a 4 corners polygon primitive as box body*
4,1,4,$2,$3,$4,$5,$6,$7,$8,$9,$2,$3,0*
0 Add four circle primitives for the rounded corners*
1,1,$1+$1,$2,$3*
1,1,$1+$1,$4,$5*
1,1,$1+$1,$6,$7*
1,1,$1+$1,$8,$9*
0 Add four rect primitives between the rounded corners*
20,1,$1+$1,$2,$3,$4,$5,0*
20,1,$1+$1,$4,$5,$6,$7,0*
20,1,$1+$1,$6,$7,$8,$9,0*
20,1,$1+$1,$8,$9,$2,$3,0*%
G04 Aperture macros list end*
%ADD10RoundRect,0.250000X-2.450000X0.650000X-2.450000X-0.650000X2.450000X-0.650000X2.450000X0.650000X0*%
%ADD11RoundRect,0.250000X2.450000X-0.650000X2.450000X0.650000X-2.450000X0.650000X-2.450000X-0.650000X0*%
%ADD12C,1.400000*%
%ADD13R,3.500000X3.500000*%
%ADD14C,3.500000*%
G04 APERTURE END LIST*
D10*
%TO.C,C2*%
X104500000Y-54500000D03*
X104500000Y-59600000D03*
%TD*%
%TO.C,C16*%
X146500000Y-54500000D03*
X146500000Y-59600000D03*
%TD*%
%TO.C,C4*%
X110500000Y-54500000D03*
X110500000Y-59600000D03*
%TD*%
D11*
%TO.C,C66*%
X104500000Y-70000000D03*
X104500000Y-64900000D03*
%TD*%
%TO.C,C37*%
X188500000Y-77550000D03*
X188500000Y-72450000D03*
%TD*%
D10*
%TO.C,C23*%
X170500000Y-46950000D03*
X170500000Y-52050000D03*
%TD*%
D11*
%TO.C,C35*%
X194500000Y-77550000D03*
X194500000Y-72450000D03*
%TD*%
%TO.C,C42*%
X176500000Y-70000000D03*
X176500000Y-64900000D03*
%TD*%
%TO.C,C51*%
X146500000Y-77550000D03*
X146500000Y-72450000D03*
%TD*%
%TO.C,C47*%
X158500000Y-77550000D03*
X158500000Y-72450000D03*
%TD*%
D10*
%TO.C,C24*%
X170500000Y-54500000D03*
X170500000Y-59600000D03*
%TD*%
%TO.C,C9*%
X128500000Y-46950000D03*
X128500000Y-52050000D03*
%TD*%
%TO.C,C7*%
X122500000Y-46950000D03*
X122500000Y-52050000D03*
%TD*%
%TO.C,C27*%
X182500000Y-46950000D03*
X182500000Y-52050000D03*
%TD*%
D11*
%TO.C,C39*%
X182500000Y-77550000D03*
X182500000Y-72450000D03*
%TD*%
D10*
%TO.C,C8*%
X122500000Y-54500000D03*
X122500000Y-59600000D03*
%TD*%
%TO.C,C28*%
X182500000Y-54500000D03*
X182500000Y-59600000D03*
%TD*%
D11*
%TO.C,C49*%
X152500000Y-77550000D03*
X152500000Y-72450000D03*
%TD*%
%TO.C,C40*%
X182500000Y-70000000D03*
X182500000Y-64900000D03*
%TD*%
%TO.C,C46*%
X164500000Y-70000000D03*
X164500000Y-64900000D03*
%TD*%
D10*
%TO.C,C32*%
X194500000Y-54500000D03*
X194500000Y-59600000D03*
%TD*%
%TO.C,C18*%
X152500000Y-54500000D03*
X152500000Y-59600000D03*
%TD*%
D11*
%TO.C,C62*%
X116500000Y-70000000D03*
X116500000Y-64900000D03*
%TD*%
%TO.C,C63*%
X110500000Y-77550000D03*
X110500000Y-72450000D03*
%TD*%
D10*
%TO.C,C31*%
X194500000Y-46950000D03*
X194500000Y-52050000D03*
%TD*%
D11*
%TO.C,C36*%
X194500000Y-70000000D03*
X194500000Y-64900000D03*
%TD*%
D10*
%TO.C,C6*%
X116500000Y-54500000D03*
X116500000Y-59600000D03*
%TD*%
%TO.C,C30*%
X188500000Y-54500000D03*
X188500000Y-59600000D03*
%TD*%
%TO.C,C13*%
X140500000Y-46950000D03*
X140500000Y-52050000D03*
%TD*%
%TO.C,C1*%
X104500000Y-46950000D03*
X104500000Y-52050000D03*
%TD*%
%TO.C,C15*%
X146500000Y-46950000D03*
X146500000Y-52050000D03*
%TD*%
D11*
%TO.C,C44*%
X170500000Y-70000000D03*
X170500000Y-64900000D03*
%TD*%
D10*
%TO.C,C25*%
X176500000Y-46950000D03*
X176500000Y-52050000D03*
%TD*%
D11*
%TO.C,C59*%
X122500000Y-77550000D03*
X122500000Y-72450000D03*
%TD*%
%TO.C,C56*%
X134500000Y-70000000D03*
X134500000Y-64900000D03*
%TD*%
%TO.C,C57*%
X128500000Y-77550000D03*
X128500000Y-72450000D03*
%TD*%
D10*
%TO.C,C20*%
X158500000Y-54500000D03*
X158500000Y-59600000D03*
%TD*%
D11*
%TO.C,C45*%
X164500000Y-77550000D03*
X164500000Y-72450000D03*
%TD*%
D10*
%TO.C,C11*%
X134500000Y-46950000D03*
X134500000Y-52050000D03*
%TD*%
%TO.C,C34*%
X200500000Y-54500000D03*
X200500000Y-59600000D03*
%TD*%
D11*
%TO.C,C50*%
X152500000Y-70000000D03*
X152500000Y-64900000D03*
%TD*%
%TO.C,C61*%
X116500000Y-77550000D03*
X116500000Y-72450000D03*
%TD*%
%TO.C,C48*%
X158500000Y-70000000D03*
X158500000Y-64900000D03*
%TD*%
D10*
%TO.C,C5*%
X116500000Y-46950000D03*
X116500000Y-52050000D03*
%TD*%
D11*
%TO.C,C53*%
X140500000Y-77550000D03*
X140500000Y-72450000D03*
%TD*%
D10*
%TO.C,C10*%
X128500000Y-54500000D03*
X128500000Y-59600000D03*
%TD*%
D11*
%TO.C,C58*%
X128500000Y-70000000D03*
X128500000Y-64900000D03*
%TD*%
D10*
%TO.C,C26*%
X176500000Y-54500000D03*
X176500000Y-59600000D03*
%TD*%
%TO.C,C19*%
X158500000Y-46950000D03*
X158500000Y-52050000D03*
%TD*%
%TO.C,C21*%
X164500000Y-46950000D03*
X164500000Y-52050000D03*
%TD*%
%TO.C,C29*%
X188500000Y-46950000D03*
X188500000Y-52050000D03*
%TD*%
D11*
%TO.C,C54*%
X140500000Y-70000000D03*
X140500000Y-64900000D03*
%TD*%
%TO.C,C43*%
X170500000Y-77550000D03*
X170500000Y-72450000D03*
%TD*%
%TO.C,C55*%
X134500000Y-77550000D03*
X134500000Y-72450000D03*
%TD*%
%TO.C,C52*%
X146500000Y-70000000D03*
X146500000Y-64900000D03*
%TD*%
D10*
%TO.C,C12*%
X134500000Y-54500000D03*
X134500000Y-59600000D03*
%TD*%
%TO.C,C3*%
X110500000Y-46950000D03*
X110500000Y-52050000D03*
%TD*%
D11*
%TO.C,C38*%
X188500000Y-70000000D03*
X188500000Y-64900000D03*
%TD*%
%TO.C,C41*%
X176500000Y-77550000D03*
X176500000Y-72450000D03*
%TD*%
D10*
%TO.C,C22*%
X164500000Y-54500000D03*
X164500000Y-59600000D03*
%TD*%
%TO.C,C14*%
X140500000Y-54500000D03*
X140500000Y-59600000D03*
%TD*%
D11*
%TO.C,C65*%
X104500000Y-77500000D03*
X104500000Y-72400000D03*
%TD*%
%TO.C,C60*%
X122500000Y-70000000D03*
X122500000Y-64900000D03*
%TD*%
D10*
%TO.C,C17*%
X152500000Y-46950000D03*
X152500000Y-52050000D03*
%TD*%
%TO.C,C33*%
X200500000Y-46950000D03*
X200500000Y-52050000D03*
%TD*%
D11*
%TO.C,C64*%
X110500000Y-70000000D03*
X110500000Y-64900000D03*
%TD*%
D12*
%TO.C,J1*%
X211500000Y-76500000D03*
X211500000Y-65500000D03*
D13*
X201500000Y-68500000D03*
D14*
X201500000Y-73500000D03*
%TD*%
M02*
