%TF.GenerationSoftware,KiCad,Pcbnew,9.0.3*%
%TF.CreationDate,2025-08-25T21:51:57-05:00*%
%TF.ProjectId,Power-MocoBulkCapacitorPCB,506f7765-722d-44d6-9f63-6f42756c6b43,rev?*%
%TF.SameCoordinates,Original*%
%TF.FileFunction,Copper,L1,Top*%
%TF.FilePolarity,Positive*%
%FSLAX46Y46*%
G04 Gerber Fmt 4.6, Leading zero omitted, Abs format (unit mm)*
G04 Created by KiCad (PCBNEW 9.0.3) date 2025-08-25 21:51:57*
%MOMM*%
%LPD*%
G01*
G04 APERTURE LIST*
G04 Aperture macros list*
%AMRoundRect*
0 Rectangle with rounded corners*
0 $1 Rounding radius*
0 $2 $3 $4 $5 $6 $7 $8 $9 X,Y pos of 4 corners*
0 Add a 4 corners polygon primitive as box body*
4,1,4,$2,$3,$4,$5,$6,$7,$8,$9,$2,$3,0*
0 Add four circle primitives for the rounded corners*
1,1,$1+$1,$2,$3*
1,1,$1+$1,$4,$5*
1,1,$1+$1,$6,$7*
1,1,$1+$1,$8,$9*
0 Add four rect primitives between the rounded corners*
20,1,$1+$1,$2,$3,$4,$5,0*
20,1,$1+$1,$4,$5,$6,$7,0*
20,1,$1+$1,$6,$7,$8,$9,0*
20,1,$1+$1,$8,$9,$2,$3,0*%
G04 Aperture macros list end*
%TA.AperFunction,SMDPad,CuDef*%
%ADD10RoundRect,0.250000X-2.450000X0.650000X-2.450000X-0.650000X2.450000X-0.650000X2.450000X0.650000X0*%
%TD*%
%TA.AperFunction,SMDPad,CuDef*%
%ADD11RoundRect,0.250000X2.450000X-0.650000X2.450000X0.650000X-2.450000X0.650000X-2.450000X-0.650000X0*%
%TD*%
%TA.AperFunction,ComponentPad*%
%ADD12C,1.400000*%
%TD*%
%TA.AperFunction,ComponentPad*%
%ADD13R,3.500000X3.500000*%
%TD*%
%TA.AperFunction,ComponentPad*%
%ADD14C,3.500000*%
%TD*%
%TA.AperFunction,ViaPad*%
%ADD15C,0.600000*%
%TD*%
%TA.AperFunction,Conductor*%
%ADD16C,2.000000*%
%TD*%
G04 APERTURE END LIST*
D10*
%TO.P,C2,1*%
%TO.N,Net-(C1-Pad2)*%
X104500000Y-54500000D03*
%TO.P,C2,2*%
%TO.N,GND*%
X104500000Y-59600000D03*
%TD*%
%TO.P,C16,1*%
%TO.N,Net-(C15-Pad2)*%
X146500000Y-54500000D03*
%TO.P,C16,2*%
%TO.N,GND*%
X146500000Y-59600000D03*
%TD*%
%TO.P,C4,1*%
%TO.N,Net-(C3-Pad2)*%
X110500000Y-54500000D03*
%TO.P,C4,2*%
%TO.N,GND*%
X110500000Y-59600000D03*
%TD*%
D11*
%TO.P,C66,1*%
%TO.N,Net-(C65-Pad2)*%
X104500000Y-70000000D03*
%TO.P,C66,2*%
%TO.N,GND*%
X104500000Y-64900000D03*
%TD*%
%TO.P,C37,1*%
%TO.N,+VDC*%
X188500000Y-77550000D03*
%TO.P,C37,2*%
%TO.N,Net-(C37-Pad2)*%
X188500000Y-72450000D03*
%TD*%
D10*
%TO.P,C23,1*%
%TO.N,+VDC*%
X170500000Y-46950000D03*
%TO.P,C23,2*%
%TO.N,Net-(C23-Pad2)*%
X170500000Y-52050000D03*
%TD*%
D11*
%TO.P,C35,1*%
%TO.N,+VDC*%
X194500000Y-77550000D03*
%TO.P,C35,2*%
%TO.N,Net-(C35-Pad2)*%
X194500000Y-72450000D03*
%TD*%
%TO.P,C42,1*%
%TO.N,Net-(C41-Pad2)*%
X176500000Y-70000000D03*
%TO.P,C42,2*%
%TO.N,GND*%
X176500000Y-64900000D03*
%TD*%
%TO.P,C51,1*%
%TO.N,+VDC*%
X146500000Y-77550000D03*
%TO.P,C51,2*%
%TO.N,Net-(C51-Pad2)*%
X146500000Y-72450000D03*
%TD*%
%TO.P,C47,1*%
%TO.N,+VDC*%
X158500000Y-77550000D03*
%TO.P,C47,2*%
%TO.N,Net-(C47-Pad2)*%
X158500000Y-72450000D03*
%TD*%
D10*
%TO.P,C24,1*%
%TO.N,Net-(C23-Pad2)*%
X170500000Y-54500000D03*
%TO.P,C24,2*%
%TO.N,GND*%
X170500000Y-59600000D03*
%TD*%
%TO.P,C9,1*%
%TO.N,+VDC*%
X128500000Y-46950000D03*
%TO.P,C9,2*%
%TO.N,Net-(C10-Pad1)*%
X128500000Y-52050000D03*
%TD*%
%TO.P,C7,1*%
%TO.N,+VDC*%
X122500000Y-46950000D03*
%TO.P,C7,2*%
%TO.N,Net-(C7-Pad2)*%
X122500000Y-52050000D03*
%TD*%
%TO.P,C27,1*%
%TO.N,+VDC*%
X182500000Y-46950000D03*
%TO.P,C27,2*%
%TO.N,Net-(C27-Pad2)*%
X182500000Y-52050000D03*
%TD*%
D11*
%TO.P,C39,1*%
%TO.N,+VDC*%
X182500000Y-77550000D03*
%TO.P,C39,2*%
%TO.N,Net-(C39-Pad2)*%
X182500000Y-72450000D03*
%TD*%
D10*
%TO.P,C8,1*%
%TO.N,Net-(C7-Pad2)*%
X122500000Y-54500000D03*
%TO.P,C8,2*%
%TO.N,GND*%
X122500000Y-59600000D03*
%TD*%
%TO.P,C28,1*%
%TO.N,Net-(C27-Pad2)*%
X182500000Y-54500000D03*
%TO.P,C28,2*%
%TO.N,GND*%
X182500000Y-59600000D03*
%TD*%
D11*
%TO.P,C49,1*%
%TO.N,+VDC*%
X152500000Y-77550000D03*
%TO.P,C49,2*%
%TO.N,Net-(C49-Pad2)*%
X152500000Y-72450000D03*
%TD*%
%TO.P,C40,1*%
%TO.N,Net-(C39-Pad2)*%
X182500000Y-70000000D03*
%TO.P,C40,2*%
%TO.N,GND*%
X182500000Y-64900000D03*
%TD*%
%TO.P,C46,1*%
%TO.N,Net-(C45-Pad2)*%
X164500000Y-70000000D03*
%TO.P,C46,2*%
%TO.N,GND*%
X164500000Y-64900000D03*
%TD*%
D10*
%TO.P,C32,1*%
%TO.N,Net-(C31-Pad2)*%
X194500000Y-54500000D03*
%TO.P,C32,2*%
%TO.N,GND*%
X194500000Y-59600000D03*
%TD*%
%TO.P,C18,1*%
%TO.N,Net-(C17-Pad2)*%
X152500000Y-54500000D03*
%TO.P,C18,2*%
%TO.N,GND*%
X152500000Y-59600000D03*
%TD*%
D11*
%TO.P,C62,1*%
%TO.N,Net-(C61-Pad2)*%
X116500000Y-70000000D03*
%TO.P,C62,2*%
%TO.N,GND*%
X116500000Y-64900000D03*
%TD*%
%TO.P,C63,1*%
%TO.N,+VDC*%
X110500000Y-77550000D03*
%TO.P,C63,2*%
%TO.N,Net-(C63-Pad2)*%
X110500000Y-72450000D03*
%TD*%
D10*
%TO.P,C31,1*%
%TO.N,+VDC*%
X194500000Y-46950000D03*
%TO.P,C31,2*%
%TO.N,Net-(C31-Pad2)*%
X194500000Y-52050000D03*
%TD*%
D11*
%TO.P,C36,1*%
%TO.N,Net-(C35-Pad2)*%
X194500000Y-70000000D03*
%TO.P,C36,2*%
%TO.N,GND*%
X194500000Y-64900000D03*
%TD*%
D10*
%TO.P,C6,1*%
%TO.N,Net-(C5-Pad2)*%
X116500000Y-54500000D03*
%TO.P,C6,2*%
%TO.N,GND*%
X116500000Y-59600000D03*
%TD*%
%TO.P,C30,1*%
%TO.N,Net-(C29-Pad2)*%
X188500000Y-54500000D03*
%TO.P,C30,2*%
%TO.N,GND*%
X188500000Y-59600000D03*
%TD*%
%TO.P,C13,1*%
%TO.N,+VDC*%
X140500000Y-46950000D03*
%TO.P,C13,2*%
%TO.N,Net-(C13-Pad2)*%
X140500000Y-52050000D03*
%TD*%
%TO.P,C1,1*%
%TO.N,+VDC*%
X104500000Y-46950000D03*
%TO.P,C1,2*%
%TO.N,Net-(C1-Pad2)*%
X104500000Y-52050000D03*
%TD*%
%TO.P,C15,1*%
%TO.N,+VDC*%
X146500000Y-46950000D03*
%TO.P,C15,2*%
%TO.N,Net-(C15-Pad2)*%
X146500000Y-52050000D03*
%TD*%
D11*
%TO.P,C44,1*%
%TO.N,Net-(C43-Pad2)*%
X170500000Y-70000000D03*
%TO.P,C44,2*%
%TO.N,GND*%
X170500000Y-64900000D03*
%TD*%
D10*
%TO.P,C25,1*%
%TO.N,+VDC*%
X176500000Y-46950000D03*
%TO.P,C25,2*%
%TO.N,Net-(C25-Pad2)*%
X176500000Y-52050000D03*
%TD*%
D11*
%TO.P,C59,1*%
%TO.N,+VDC*%
X122500000Y-77550000D03*
%TO.P,C59,2*%
%TO.N,Net-(C59-Pad2)*%
X122500000Y-72450000D03*
%TD*%
%TO.P,C56,1*%
%TO.N,Net-(C55-Pad2)*%
X134500000Y-70000000D03*
%TO.P,C56,2*%
%TO.N,GND*%
X134500000Y-64900000D03*
%TD*%
%TO.P,C57,1*%
%TO.N,+VDC*%
X128500000Y-77550000D03*
%TO.P,C57,2*%
%TO.N,Net-(C57-Pad2)*%
X128500000Y-72450000D03*
%TD*%
D10*
%TO.P,C20,1*%
%TO.N,Net-(C19-Pad2)*%
X158500000Y-54500000D03*
%TO.P,C20,2*%
%TO.N,GND*%
X158500000Y-59600000D03*
%TD*%
D11*
%TO.P,C45,1*%
%TO.N,+VDC*%
X164500000Y-77550000D03*
%TO.P,C45,2*%
%TO.N,Net-(C45-Pad2)*%
X164500000Y-72450000D03*
%TD*%
D10*
%TO.P,C11,1*%
%TO.N,+VDC*%
X134500000Y-46950000D03*
%TO.P,C11,2*%
%TO.N,Net-(C11-Pad2)*%
X134500000Y-52050000D03*
%TD*%
%TO.P,C34,1*%
%TO.N,Net-(C33-Pad2)*%
X200500000Y-54500000D03*
%TO.P,C34,2*%
%TO.N,GND*%
X200500000Y-59600000D03*
%TD*%
D11*
%TO.P,C50,1*%
%TO.N,Net-(C49-Pad2)*%
X152500000Y-70000000D03*
%TO.P,C50,2*%
%TO.N,GND*%
X152500000Y-64900000D03*
%TD*%
%TO.P,C61,1*%
%TO.N,+VDC*%
X116500000Y-77550000D03*
%TO.P,C61,2*%
%TO.N,Net-(C61-Pad2)*%
X116500000Y-72450000D03*
%TD*%
%TO.P,C48,1*%
%TO.N,Net-(C47-Pad2)*%
X158500000Y-70000000D03*
%TO.P,C48,2*%
%TO.N,GND*%
X158500000Y-64900000D03*
%TD*%
D10*
%TO.P,C5,1*%
%TO.N,+VDC*%
X116500000Y-46950000D03*
%TO.P,C5,2*%
%TO.N,Net-(C5-Pad2)*%
X116500000Y-52050000D03*
%TD*%
D11*
%TO.P,C53,1*%
%TO.N,+VDC*%
X140500000Y-77550000D03*
%TO.P,C53,2*%
%TO.N,Net-(C53-Pad2)*%
X140500000Y-72450000D03*
%TD*%
D10*
%TO.P,C10,1*%
%TO.N,Net-(C10-Pad1)*%
X128500000Y-54500000D03*
%TO.P,C10,2*%
%TO.N,GND*%
X128500000Y-59600000D03*
%TD*%
D11*
%TO.P,C58,1*%
%TO.N,Net-(C57-Pad2)*%
X128500000Y-70000000D03*
%TO.P,C58,2*%
%TO.N,GND*%
X128500000Y-64900000D03*
%TD*%
D10*
%TO.P,C26,1*%
%TO.N,Net-(C25-Pad2)*%
X176500000Y-54500000D03*
%TO.P,C26,2*%
%TO.N,GND*%
X176500000Y-59600000D03*
%TD*%
%TO.P,C19,1*%
%TO.N,+VDC*%
X158500000Y-46950000D03*
%TO.P,C19,2*%
%TO.N,Net-(C19-Pad2)*%
X158500000Y-52050000D03*
%TD*%
%TO.P,C21,1*%
%TO.N,+VDC*%
X164500000Y-46950000D03*
%TO.P,C21,2*%
%TO.N,Net-(C21-Pad2)*%
X164500000Y-52050000D03*
%TD*%
%TO.P,C29,1*%
%TO.N,+VDC*%
X188500000Y-46950000D03*
%TO.P,C29,2*%
%TO.N,Net-(C29-Pad2)*%
X188500000Y-52050000D03*
%TD*%
D11*
%TO.P,C54,1*%
%TO.N,Net-(C53-Pad2)*%
X140500000Y-70000000D03*
%TO.P,C54,2*%
%TO.N,GND*%
X140500000Y-64900000D03*
%TD*%
%TO.P,C43,1*%
%TO.N,+VDC*%
X170500000Y-77550000D03*
%TO.P,C43,2*%
%TO.N,Net-(C43-Pad2)*%
X170500000Y-72450000D03*
%TD*%
%TO.P,C55,1*%
%TO.N,+VDC*%
X134500000Y-77550000D03*
%TO.P,C55,2*%
%TO.N,Net-(C55-Pad2)*%
X134500000Y-72450000D03*
%TD*%
%TO.P,C52,1*%
%TO.N,Net-(C51-Pad2)*%
X146500000Y-70000000D03*
%TO.P,C52,2*%
%TO.N,GND*%
X146500000Y-64900000D03*
%TD*%
D10*
%TO.P,C12,1*%
%TO.N,Net-(C11-Pad2)*%
X134500000Y-54500000D03*
%TO.P,C12,2*%
%TO.N,GND*%
X134500000Y-59600000D03*
%TD*%
%TO.P,C3,1*%
%TO.N,+VDC*%
X110500000Y-46950000D03*
%TO.P,C3,2*%
%TO.N,Net-(C3-Pad2)*%
X110500000Y-52050000D03*
%TD*%
D11*
%TO.P,C38,1*%
%TO.N,Net-(C37-Pad2)*%
X188500000Y-70000000D03*
%TO.P,C38,2*%
%TO.N,GND*%
X188500000Y-64900000D03*
%TD*%
%TO.P,C41,1*%
%TO.N,+VDC*%
X176500000Y-77550000D03*
%TO.P,C41,2*%
%TO.N,Net-(C41-Pad2)*%
X176500000Y-72450000D03*
%TD*%
D10*
%TO.P,C22,1*%
%TO.N,Net-(C21-Pad2)*%
X164500000Y-54500000D03*
%TO.P,C22,2*%
%TO.N,GND*%
X164500000Y-59600000D03*
%TD*%
%TO.P,C14,1*%
%TO.N,Net-(C13-Pad2)*%
X140500000Y-54500000D03*
%TO.P,C14,2*%
%TO.N,GND*%
X140500000Y-59600000D03*
%TD*%
D11*
%TO.P,C65,1*%
%TO.N,+VDC*%
X104500000Y-77500000D03*
%TO.P,C65,2*%
%TO.N,Net-(C65-Pad2)*%
X104500000Y-72400000D03*
%TD*%
%TO.P,C60,1*%
%TO.N,Net-(C59-Pad2)*%
X122500000Y-70000000D03*
%TO.P,C60,2*%
%TO.N,GND*%
X122500000Y-64900000D03*
%TD*%
D10*
%TO.P,C17,1*%
%TO.N,+VDC*%
X152500000Y-46950000D03*
%TO.P,C17,2*%
%TO.N,Net-(C17-Pad2)*%
X152500000Y-52050000D03*
%TD*%
%TO.P,C33,1*%
%TO.N,+VDC*%
X200500000Y-46950000D03*
%TO.P,C33,2*%
%TO.N,Net-(C33-Pad2)*%
X200500000Y-52050000D03*
%TD*%
D11*
%TO.P,C64,1*%
%TO.N,Net-(C63-Pad2)*%
X110500000Y-70000000D03*
%TO.P,C64,2*%
%TO.N,GND*%
X110500000Y-64900000D03*
%TD*%
D12*
%TO.P,J1,*%
%TO.N,*%
X211500000Y-76500000D03*
X211500000Y-65500000D03*
D13*
%TO.P,J1,1,Pin_1*%
%TO.N,GND*%
X201500000Y-68500000D03*
D14*
%TO.P,J1,2,Pin_2*%
%TO.N,+VDC*%
X201500000Y-73500000D03*
%TD*%
D15*
%TO.N,GND*%
X123750000Y-62250000D03*
X120750000Y-62250000D03*
X136000000Y-62250000D03*
X133000000Y-62250000D03*
X163250000Y-62250000D03*
X160250000Y-62250000D03*
X172000000Y-62250000D03*
X169000000Y-62250000D03*
X184000000Y-62250000D03*
X181000000Y-62250000D03*
X153750000Y-62250000D03*
X150750000Y-62250000D03*
X106000000Y-62250000D03*
X103000000Y-62250000D03*
%TO.N,+VDC*%
X196000000Y-75750000D03*
X193000000Y-75750000D03*
X154000000Y-75750000D03*
X151000000Y-75750000D03*
X106000000Y-75750000D03*
X103000000Y-75750000D03*
X202000000Y-48750000D03*
X199000000Y-48750000D03*
X154000000Y-48750000D03*
X151000000Y-48750000D03*
X106000000Y-48750000D03*
X103000000Y-48750000D03*
%TD*%
D16*
%TO.N,Net-(C1-Pad2)*%
X104500000Y-52050000D02*
X104500000Y-54500000D01*
%TO.N,Net-(C3-Pad2)*%
X110500000Y-52050000D02*
X110500000Y-54500000D01*
%TO.N,Net-(C5-Pad2)*%
X116500000Y-52050000D02*
X116500000Y-54500000D01*
%TO.N,Net-(C7-Pad2)*%
X122500000Y-52050000D02*
X122500000Y-54500000D01*
%TO.N,Net-(C10-Pad1)*%
X128500000Y-52050000D02*
X128500000Y-54500000D01*
%TO.N,Net-(C11-Pad2)*%
X134500000Y-52050000D02*
X134500000Y-54500000D01*
%TO.N,Net-(C13-Pad2)*%
X140500000Y-52050000D02*
X140500000Y-54500000D01*
%TO.N,Net-(C15-Pad2)*%
X146500000Y-52050000D02*
X146500000Y-54500000D01*
%TO.N,Net-(C17-Pad2)*%
X152500000Y-52050000D02*
X152500000Y-54500000D01*
%TO.N,Net-(C19-Pad2)*%
X158500000Y-52050000D02*
X158500000Y-54500000D01*
%TO.N,Net-(C21-Pad2)*%
X164500000Y-52050000D02*
X164500000Y-54500000D01*
%TO.N,Net-(C23-Pad2)*%
X170500000Y-52050000D02*
X170500000Y-54500000D01*
%TO.N,Net-(C25-Pad2)*%
X176500000Y-52050000D02*
X176500000Y-54500000D01*
%TO.N,Net-(C27-Pad2)*%
X182500000Y-52050000D02*
X182500000Y-54500000D01*
%TO.N,Net-(C29-Pad2)*%
X188500000Y-52050000D02*
X188500000Y-54500000D01*
%TO.N,Net-(C31-Pad2)*%
X194500000Y-52050000D02*
X194500000Y-54500000D01*
%TO.N,Net-(C33-Pad2)*%
X200500000Y-52050000D02*
X200500000Y-54500000D01*
%TO.N,Net-(C35-Pad2)*%
X194500000Y-72450000D02*
X194500000Y-70000000D01*
%TO.N,Net-(C37-Pad2)*%
X188500000Y-72450000D02*
X188500000Y-70000000D01*
%TO.N,Net-(C39-Pad2)*%
X182500000Y-72450000D02*
X182500000Y-70000000D01*
%TO.N,Net-(C41-Pad2)*%
X176500000Y-72450000D02*
X176500000Y-70000000D01*
%TO.N,Net-(C43-Pad2)*%
X170500000Y-72450000D02*
X170500000Y-70000000D01*
%TO.N,Net-(C45-Pad2)*%
X164500000Y-72450000D02*
X164500000Y-70000000D01*
%TO.N,Net-(C47-Pad2)*%
X158500000Y-72450000D02*
X158500000Y-70000000D01*
%TO.N,Net-(C49-Pad2)*%
X152500000Y-72450000D02*
X152500000Y-70000000D01*
%TO.N,Net-(C51-Pad2)*%
X146500000Y-72450000D02*
X146500000Y-70000000D01*
%TO.N,Net-(C53-Pad2)*%
X140500000Y-72450000D02*
X140500000Y-70000000D01*
%TO.N,Net-(C55-Pad2)*%
X134500000Y-72450000D02*
X134500000Y-70000000D01*
%TO.N,Net-(C57-Pad2)*%
X128500000Y-72450000D02*
X128500000Y-70000000D01*
%TO.N,Net-(C59-Pad2)*%
X122500000Y-72450000D02*
X122500000Y-70000000D01*
%TO.N,Net-(C61-Pad2)*%
X116500000Y-72450000D02*
X116500000Y-70000000D01*
%TO.N,Net-(C63-Pad2)*%
X110500000Y-72450000D02*
X110500000Y-70000000D01*
%TO.N,Net-(C65-Pad2)*%
X104500000Y-72400000D02*
X104500000Y-69950000D01*
%TD*%
%TA.AperFunction,Conductor*%
%TO.N,+VDC*%
G36*
X104399806Y-43755648D02*
G01*
X104399979Y-43755003D01*
X104403897Y-43756052D01*
X104403900Y-43756054D01*
X104638211Y-43818838D01*
X104818586Y-43842584D01*
X104878711Y-43850500D01*
X104878712Y-43850500D01*
X105121289Y-43850500D01*
X105169388Y-43844167D01*
X105361789Y-43818838D01*
X105596100Y-43756054D01*
X105596102Y-43756052D01*
X105600021Y-43755003D01*
X105600193Y-43755648D01*
X105634407Y-43750000D01*
X203250000Y-43750000D01*
X203250000Y-49500000D01*
X101745820Y-49500000D01*
X101678781Y-49480315D01*
X101633026Y-49427511D01*
X101621820Y-49376000D01*
X101621820Y-43874000D01*
X101641505Y-43806961D01*
X101694309Y-43761206D01*
X101745820Y-43750000D01*
X104365593Y-43750000D01*
X104399806Y-43755648D01*
G37*
%TD.AperFunction*%
%TD*%
%TA.AperFunction,Conductor*%
%TO.N,+VDC*%
G36*
X197000000Y-80750000D02*
G01*
X105634407Y-80750000D01*
X105600193Y-80744351D01*
X105600021Y-80744997D01*
X105596102Y-80743947D01*
X105596100Y-80743946D01*
X105361789Y-80681162D01*
X105361788Y-80681161D01*
X105361785Y-80681161D01*
X105121289Y-80649500D01*
X105121288Y-80649500D01*
X104878712Y-80649500D01*
X104878711Y-80649500D01*
X104638214Y-80681161D01*
X104554477Y-80703598D01*
X104403900Y-80743946D01*
X104403897Y-80743946D01*
X104399979Y-80744997D01*
X104399806Y-80744351D01*
X104365593Y-80750000D01*
X101745820Y-80750000D01*
X101678781Y-80730315D01*
X101633026Y-80677511D01*
X101621820Y-80626000D01*
X101621820Y-75124000D01*
X101641505Y-75056961D01*
X101694309Y-75011206D01*
X101745820Y-75000000D01*
X197000000Y-75000000D01*
X197000000Y-80750000D01*
G37*
%TD.AperFunction*%
%TD*%
%TA.AperFunction,Conductor*%
%TO.N,GND*%
G36*
X203876243Y-57249758D02*
G01*
X203943243Y-57269574D01*
X203988895Y-57322467D01*
X204000000Y-57373758D01*
X204000000Y-70126000D01*
X203980315Y-70193039D01*
X203927511Y-70238794D01*
X203876000Y-70250000D01*
X199374000Y-70250000D01*
X199306961Y-70230315D01*
X199261206Y-70177511D01*
X199250000Y-70126000D01*
X199250000Y-67500000D01*
X101745820Y-67500000D01*
X101678781Y-67480315D01*
X101633026Y-67427511D01*
X101621820Y-67376000D01*
X101621820Y-57174479D01*
X101641505Y-57107440D01*
X101694309Y-57061685D01*
X101746056Y-57050480D01*
X203876243Y-57249758D01*
G37*
%TD.AperFunction*%
%TD*%
%TA.AperFunction,Conductor*%
%TO.N,+VDC*%
G36*
X203000000Y-80750000D02*
G01*
X197000000Y-80750000D01*
X197000000Y-75000000D01*
X199250000Y-75000000D01*
X199250000Y-71874000D01*
X199269685Y-71806961D01*
X199322489Y-71761206D01*
X199374000Y-71750000D01*
X203000000Y-71750000D01*
X203000000Y-80750000D01*
G37*
%TD.AperFunction*%
%TD*%
%TA.AperFunction,Conductor*%
%TO.N,+VDC*%
G36*
X203399806Y-43755648D02*
G01*
X203399979Y-43755003D01*
X203403897Y-43756052D01*
X203403900Y-43756054D01*
X203638211Y-43818838D01*
X203818586Y-43842584D01*
X203878711Y-43850500D01*
X203878712Y-43850500D01*
X204121289Y-43850500D01*
X204169388Y-43844167D01*
X204361789Y-43818838D01*
X204596100Y-43756054D01*
X204596102Y-43756052D01*
X204600021Y-43755003D01*
X204600193Y-43755648D01*
X204634407Y-43750000D01*
X206875500Y-43750000D01*
X206942539Y-43769685D01*
X206988294Y-43822489D01*
X206999500Y-43874000D01*
X206999500Y-59671965D01*
X207033210Y-60014249D01*
X207100310Y-60351578D01*
X207107228Y-60374385D01*
X207112564Y-60409540D01*
X207249156Y-80625162D01*
X207229925Y-80692333D01*
X207177431Y-80738444D01*
X207125159Y-80750000D01*
X203000000Y-80750000D01*
X203000000Y-71750000D01*
X205250000Y-71750000D01*
X205250000Y-49500000D01*
X203250000Y-49500000D01*
X203250000Y-43750000D01*
X203365593Y-43750000D01*
X203399806Y-43755648D01*
G37*
%TD.AperFunction*%
%TD*%
M02*
