%TF.GenerationSoftware,KiCad,Pcbnew,9.0.3*%
%TF.CreationDate,2025-08-25T21:51:57-05:00*%
%TF.ProjectId,Power-MocoBulkCapacitorPCB,506f7765-722d-44d6-9f63-6f42756c6b43,rev?*%
%TF.SameCoordinates,Original*%
%TF.FileFunction,Legend,Top*%
%TF.FilePolarity,Positive*%
%FSLAX46Y46*%
G04 Gerber Fmt 4.6, Leading zero omitted, Abs format (unit mm)*
G04 Created by KiCad (PCBNEW 9.0.3) date 2025-08-25 21:51:57*
%MOMM*%
%LPD*%
G01*
G04 APERTURE LIST*
G04 Aperture macros list*
%AMRoundRect*
0 Rectangle with rounded corners*
0 $1 Rounding radius*
0 $2 $3 $4 $5 $6 $7 $8 $9 X,Y pos of 4 corners*
0 Add a 4 corners polygon primitive as box body*
4,1,4,$2,$3,$4,$5,$6,$7,$8,$9,$2,$3,0*
0 Add four circle primitives for the rounded corners*
1,1,$1+$1,$2,$3*
1,1,$1+$1,$4,$5*
1,1,$1+$1,$6,$7*
1,1,$1+$1,$8,$9*
0 Add four rect primitives between the rounded corners*
20,1,$1+$1,$2,$3,$4,$5,0*
20,1,$1+$1,$4,$5,$6,$7,0*
20,1,$1+$1,$6,$7,$8,$9,0*
20,1,$1+$1,$8,$9,$2,$3,0*%
G04 Aperture macros list end*
%ADD10C,0.300000*%
%ADD11C,0.150000*%
%ADD12C,0.120000*%
%ADD13C,0.381000*%
%ADD14RoundRect,0.250000X-2.450000X0.650000X-2.450000X-0.650000X2.450000X-0.650000X2.450000X0.650000X0*%
%ADD15RoundRect,0.250000X2.450000X-0.650000X2.450000X0.650000X-2.450000X0.650000X-2.450000X-0.650000X0*%
%ADD16C,3.200000*%
%ADD17C,1.400000*%
%ADD18R,3.500000X3.500000*%
%ADD19C,3.500000*%
G04 APERTURE END LIST*
D10*
X171554510Y-61729400D02*
X172697368Y-61729400D01*
X121445489Y-62770600D02*
X120302632Y-62770600D01*
X135554510Y-44729400D02*
X136697368Y-44729400D01*
X136125939Y-45300828D02*
X136125939Y-44157971D01*
X115445489Y-62770600D02*
X114302632Y-62770600D01*
X111554510Y-44729400D02*
X112697368Y-44729400D01*
X112125939Y-45300828D02*
X112125939Y-44157971D01*
X123554510Y-44729400D02*
X124697368Y-44729400D01*
X124125939Y-45300828D02*
X124125939Y-44157971D01*
X169445489Y-62770600D02*
X168302632Y-62770600D01*
X163445489Y-62770600D02*
X162302632Y-62770600D01*
X151445489Y-79770600D02*
X150302632Y-79770600D01*
X150874060Y-79199171D02*
X150874060Y-80342028D01*
X145445489Y-79770600D02*
X144302632Y-79770600D01*
X144874060Y-79199171D02*
X144874060Y-80342028D01*
X195554510Y-61729400D02*
X196697368Y-61729400D01*
X181445489Y-79770600D02*
X180302632Y-79770600D01*
X180874060Y-79199171D02*
X180874060Y-80342028D01*
X189554510Y-44729400D02*
X190697368Y-44729400D01*
X190125939Y-45300828D02*
X190125939Y-44157971D01*
X115445489Y-79770600D02*
X114302632Y-79770600D01*
X114874060Y-79199171D02*
X114874060Y-80342028D01*
X103445489Y-79720600D02*
X102302632Y-79720600D01*
X102874060Y-79149171D02*
X102874060Y-80292028D01*
X175445489Y-62770600D02*
X174302632Y-62770600D01*
X157445489Y-62770600D02*
X156302632Y-62770600D01*
X183554510Y-44729400D02*
X184697368Y-44729400D01*
X184125939Y-45300828D02*
X184125939Y-44157971D01*
X181445489Y-62770600D02*
X180302632Y-62770600D01*
X109445489Y-79770600D02*
X108302632Y-79770600D01*
X108874060Y-79199171D02*
X108874060Y-80342028D01*
X127445489Y-62770600D02*
X126302632Y-62770600D01*
X159554510Y-44729400D02*
X160697368Y-44729400D01*
X160125939Y-45300828D02*
X160125939Y-44157971D01*
X133445489Y-79770600D02*
X132302632Y-79770600D01*
X132874060Y-79199171D02*
X132874060Y-80342028D01*
X139445489Y-62770600D02*
X138302632Y-62770600D01*
X157445489Y-79770600D02*
X156302632Y-79770600D01*
X156874060Y-79199171D02*
X156874060Y-80342028D01*
X175445489Y-79770600D02*
X174302632Y-79770600D01*
X174874060Y-79199171D02*
X174874060Y-80342028D01*
X187445489Y-79770600D02*
X186302632Y-79770600D01*
X186874060Y-79199171D02*
X186874060Y-80342028D01*
X145445489Y-62770600D02*
X144302632Y-62770600D01*
X153554510Y-44729400D02*
X154697368Y-44729400D01*
X154125939Y-45300828D02*
X154125939Y-44157971D01*
X135554510Y-61729400D02*
X136697368Y-61729400D01*
X193445489Y-79770600D02*
X192302632Y-79770600D01*
X192874060Y-79199171D02*
X192874060Y-80342028D01*
X171554510Y-44729400D02*
X172697368Y-44729400D01*
X172125939Y-45300828D02*
X172125939Y-44157971D01*
X117554510Y-44729400D02*
X118697368Y-44729400D01*
X118125939Y-45300828D02*
X118125939Y-44157971D01*
X169445489Y-79770600D02*
X168302632Y-79770600D01*
X168874060Y-79199171D02*
X168874060Y-80342028D01*
X141554510Y-44729400D02*
X142697368Y-44729400D01*
X142125939Y-45300828D02*
X142125939Y-44157971D01*
X183554510Y-61729400D02*
X184697368Y-61729400D01*
X165554510Y-44729400D02*
X166697368Y-44729400D01*
X166125939Y-45300828D02*
X166125939Y-44157971D01*
X151445489Y-62770600D02*
X150302632Y-62770600D01*
X147554510Y-44729400D02*
X148697368Y-44729400D01*
X148125939Y-45300828D02*
X148125939Y-44157971D01*
X177554510Y-44729400D02*
X178697368Y-44729400D01*
X178125939Y-45300828D02*
X178125939Y-44157971D01*
X195554510Y-44729400D02*
X196697368Y-44729400D01*
X196125939Y-45300828D02*
X196125939Y-44157971D01*
X105554510Y-44729400D02*
X106697368Y-44729400D01*
X106125939Y-45300828D02*
X106125939Y-44157971D01*
X129554510Y-61729400D02*
X130697368Y-61729400D01*
X163445489Y-79770600D02*
X162302632Y-79770600D01*
X162874060Y-79199171D02*
X162874060Y-80342028D01*
X147554510Y-61729400D02*
X148697368Y-61729400D01*
X109445489Y-62770600D02*
X108302632Y-62770600D01*
X193445489Y-62770600D02*
X192302632Y-62770600D01*
X127445489Y-79770600D02*
X126302632Y-79770600D01*
X126874060Y-79199171D02*
X126874060Y-80342028D01*
X129554510Y-44729400D02*
X130697368Y-44729400D01*
X130125939Y-45300828D02*
X130125939Y-44157971D01*
X159554510Y-61729400D02*
X160697368Y-61729400D01*
X103445489Y-62720600D02*
X102302632Y-62720600D01*
X201554510Y-61729400D02*
X202697368Y-61729400D01*
X139445489Y-79770600D02*
X138302632Y-79770600D01*
X138874060Y-79199171D02*
X138874060Y-80342028D01*
X177554510Y-61729400D02*
X178697368Y-61729400D01*
X189554510Y-61729400D02*
X190697368Y-61729400D01*
X121445489Y-79770600D02*
X120302632Y-79770600D01*
X120874060Y-79199171D02*
X120874060Y-80342028D01*
X187445489Y-62770600D02*
X186302632Y-62770600D01*
X117554510Y-61729400D02*
X118697368Y-61729400D01*
X111554510Y-61729400D02*
X112697368Y-61729400D01*
X141554510Y-61729400D02*
X142697368Y-61729400D01*
X133445489Y-62770600D02*
X132302632Y-62770600D01*
X153554510Y-61729400D02*
X154697368Y-61729400D01*
X201554510Y-44729400D02*
X202697368Y-44729400D01*
X202125939Y-45300828D02*
X202125939Y-44157971D01*
X165554510Y-61729400D02*
X166697368Y-61729400D01*
X123554510Y-61729400D02*
X124697368Y-61729400D01*
D11*
X102833333Y-61859580D02*
X102785714Y-61907200D01*
X102785714Y-61907200D02*
X102642857Y-61954819D01*
X102642857Y-61954819D02*
X102547619Y-61954819D01*
X102547619Y-61954819D02*
X102404762Y-61907200D01*
X102404762Y-61907200D02*
X102309524Y-61811961D01*
X102309524Y-61811961D02*
X102261905Y-61716723D01*
X102261905Y-61716723D02*
X102214286Y-61526247D01*
X102214286Y-61526247D02*
X102214286Y-61383390D01*
X102214286Y-61383390D02*
X102261905Y-61192914D01*
X102261905Y-61192914D02*
X102309524Y-61097676D01*
X102309524Y-61097676D02*
X102404762Y-61002438D01*
X102404762Y-61002438D02*
X102547619Y-60954819D01*
X102547619Y-60954819D02*
X102642857Y-60954819D01*
X102642857Y-60954819D02*
X102785714Y-61002438D01*
X102785714Y-61002438D02*
X102833333Y-61050057D01*
X103214286Y-61050057D02*
X103261905Y-61002438D01*
X103261905Y-61002438D02*
X103357143Y-60954819D01*
X103357143Y-60954819D02*
X103595238Y-60954819D01*
X103595238Y-60954819D02*
X103690476Y-61002438D01*
X103690476Y-61002438D02*
X103738095Y-61050057D01*
X103738095Y-61050057D02*
X103785714Y-61145295D01*
X103785714Y-61145295D02*
X103785714Y-61240533D01*
X103785714Y-61240533D02*
X103738095Y-61383390D01*
X103738095Y-61383390D02*
X103166667Y-61954819D01*
X103166667Y-61954819D02*
X103785714Y-61954819D01*
X144357142Y-61859580D02*
X144309523Y-61907200D01*
X144309523Y-61907200D02*
X144166666Y-61954819D01*
X144166666Y-61954819D02*
X144071428Y-61954819D01*
X144071428Y-61954819D02*
X143928571Y-61907200D01*
X143928571Y-61907200D02*
X143833333Y-61811961D01*
X143833333Y-61811961D02*
X143785714Y-61716723D01*
X143785714Y-61716723D02*
X143738095Y-61526247D01*
X143738095Y-61526247D02*
X143738095Y-61383390D01*
X143738095Y-61383390D02*
X143785714Y-61192914D01*
X143785714Y-61192914D02*
X143833333Y-61097676D01*
X143833333Y-61097676D02*
X143928571Y-61002438D01*
X143928571Y-61002438D02*
X144071428Y-60954819D01*
X144071428Y-60954819D02*
X144166666Y-60954819D01*
X144166666Y-60954819D02*
X144309523Y-61002438D01*
X144309523Y-61002438D02*
X144357142Y-61050057D01*
X145309523Y-61954819D02*
X144738095Y-61954819D01*
X145023809Y-61954819D02*
X145023809Y-60954819D01*
X145023809Y-60954819D02*
X144928571Y-61097676D01*
X144928571Y-61097676D02*
X144833333Y-61192914D01*
X144833333Y-61192914D02*
X144738095Y-61240533D01*
X146166666Y-60954819D02*
X145976190Y-60954819D01*
X145976190Y-60954819D02*
X145880952Y-61002438D01*
X145880952Y-61002438D02*
X145833333Y-61050057D01*
X145833333Y-61050057D02*
X145738095Y-61192914D01*
X145738095Y-61192914D02*
X145690476Y-61383390D01*
X145690476Y-61383390D02*
X145690476Y-61764342D01*
X145690476Y-61764342D02*
X145738095Y-61859580D01*
X145738095Y-61859580D02*
X145785714Y-61907200D01*
X145785714Y-61907200D02*
X145880952Y-61954819D01*
X145880952Y-61954819D02*
X146071428Y-61954819D01*
X146071428Y-61954819D02*
X146166666Y-61907200D01*
X146166666Y-61907200D02*
X146214285Y-61859580D01*
X146214285Y-61859580D02*
X146261904Y-61764342D01*
X146261904Y-61764342D02*
X146261904Y-61526247D01*
X146261904Y-61526247D02*
X146214285Y-61431009D01*
X146214285Y-61431009D02*
X146166666Y-61383390D01*
X146166666Y-61383390D02*
X146071428Y-61335771D01*
X146071428Y-61335771D02*
X145880952Y-61335771D01*
X145880952Y-61335771D02*
X145785714Y-61383390D01*
X145785714Y-61383390D02*
X145738095Y-61431009D01*
X145738095Y-61431009D02*
X145690476Y-61526247D01*
X108833333Y-61859580D02*
X108785714Y-61907200D01*
X108785714Y-61907200D02*
X108642857Y-61954819D01*
X108642857Y-61954819D02*
X108547619Y-61954819D01*
X108547619Y-61954819D02*
X108404762Y-61907200D01*
X108404762Y-61907200D02*
X108309524Y-61811961D01*
X108309524Y-61811961D02*
X108261905Y-61716723D01*
X108261905Y-61716723D02*
X108214286Y-61526247D01*
X108214286Y-61526247D02*
X108214286Y-61383390D01*
X108214286Y-61383390D02*
X108261905Y-61192914D01*
X108261905Y-61192914D02*
X108309524Y-61097676D01*
X108309524Y-61097676D02*
X108404762Y-61002438D01*
X108404762Y-61002438D02*
X108547619Y-60954819D01*
X108547619Y-60954819D02*
X108642857Y-60954819D01*
X108642857Y-60954819D02*
X108785714Y-61002438D01*
X108785714Y-61002438D02*
X108833333Y-61050057D01*
X109690476Y-61288152D02*
X109690476Y-61954819D01*
X109452381Y-60907200D02*
X109214286Y-61621485D01*
X109214286Y-61621485D02*
X109833333Y-61621485D01*
X105357142Y-63359580D02*
X105309523Y-63407200D01*
X105309523Y-63407200D02*
X105166666Y-63454819D01*
X105166666Y-63454819D02*
X105071428Y-63454819D01*
X105071428Y-63454819D02*
X104928571Y-63407200D01*
X104928571Y-63407200D02*
X104833333Y-63311961D01*
X104833333Y-63311961D02*
X104785714Y-63216723D01*
X104785714Y-63216723D02*
X104738095Y-63026247D01*
X104738095Y-63026247D02*
X104738095Y-62883390D01*
X104738095Y-62883390D02*
X104785714Y-62692914D01*
X104785714Y-62692914D02*
X104833333Y-62597676D01*
X104833333Y-62597676D02*
X104928571Y-62502438D01*
X104928571Y-62502438D02*
X105071428Y-62454819D01*
X105071428Y-62454819D02*
X105166666Y-62454819D01*
X105166666Y-62454819D02*
X105309523Y-62502438D01*
X105309523Y-62502438D02*
X105357142Y-62550057D01*
X106214285Y-62454819D02*
X106023809Y-62454819D01*
X106023809Y-62454819D02*
X105928571Y-62502438D01*
X105928571Y-62502438D02*
X105880952Y-62550057D01*
X105880952Y-62550057D02*
X105785714Y-62692914D01*
X105785714Y-62692914D02*
X105738095Y-62883390D01*
X105738095Y-62883390D02*
X105738095Y-63264342D01*
X105738095Y-63264342D02*
X105785714Y-63359580D01*
X105785714Y-63359580D02*
X105833333Y-63407200D01*
X105833333Y-63407200D02*
X105928571Y-63454819D01*
X105928571Y-63454819D02*
X106119047Y-63454819D01*
X106119047Y-63454819D02*
X106214285Y-63407200D01*
X106214285Y-63407200D02*
X106261904Y-63359580D01*
X106261904Y-63359580D02*
X106309523Y-63264342D01*
X106309523Y-63264342D02*
X106309523Y-63026247D01*
X106309523Y-63026247D02*
X106261904Y-62931009D01*
X106261904Y-62931009D02*
X106214285Y-62883390D01*
X106214285Y-62883390D02*
X106119047Y-62835771D01*
X106119047Y-62835771D02*
X105928571Y-62835771D01*
X105928571Y-62835771D02*
X105833333Y-62883390D01*
X105833333Y-62883390D02*
X105785714Y-62931009D01*
X105785714Y-62931009D02*
X105738095Y-63026247D01*
X107166666Y-62454819D02*
X106976190Y-62454819D01*
X106976190Y-62454819D02*
X106880952Y-62502438D01*
X106880952Y-62502438D02*
X106833333Y-62550057D01*
X106833333Y-62550057D02*
X106738095Y-62692914D01*
X106738095Y-62692914D02*
X106690476Y-62883390D01*
X106690476Y-62883390D02*
X106690476Y-63264342D01*
X106690476Y-63264342D02*
X106738095Y-63359580D01*
X106738095Y-63359580D02*
X106785714Y-63407200D01*
X106785714Y-63407200D02*
X106880952Y-63454819D01*
X106880952Y-63454819D02*
X107071428Y-63454819D01*
X107071428Y-63454819D02*
X107166666Y-63407200D01*
X107166666Y-63407200D02*
X107214285Y-63359580D01*
X107214285Y-63359580D02*
X107261904Y-63264342D01*
X107261904Y-63264342D02*
X107261904Y-63026247D01*
X107261904Y-63026247D02*
X107214285Y-62931009D01*
X107214285Y-62931009D02*
X107166666Y-62883390D01*
X107166666Y-62883390D02*
X107071428Y-62835771D01*
X107071428Y-62835771D02*
X106880952Y-62835771D01*
X106880952Y-62835771D02*
X106785714Y-62883390D01*
X106785714Y-62883390D02*
X106738095Y-62931009D01*
X106738095Y-62931009D02*
X106690476Y-63026247D01*
X189357142Y-79859580D02*
X189309523Y-79907200D01*
X189309523Y-79907200D02*
X189166666Y-79954819D01*
X189166666Y-79954819D02*
X189071428Y-79954819D01*
X189071428Y-79954819D02*
X188928571Y-79907200D01*
X188928571Y-79907200D02*
X188833333Y-79811961D01*
X188833333Y-79811961D02*
X188785714Y-79716723D01*
X188785714Y-79716723D02*
X188738095Y-79526247D01*
X188738095Y-79526247D02*
X188738095Y-79383390D01*
X188738095Y-79383390D02*
X188785714Y-79192914D01*
X188785714Y-79192914D02*
X188833333Y-79097676D01*
X188833333Y-79097676D02*
X188928571Y-79002438D01*
X188928571Y-79002438D02*
X189071428Y-78954819D01*
X189071428Y-78954819D02*
X189166666Y-78954819D01*
X189166666Y-78954819D02*
X189309523Y-79002438D01*
X189309523Y-79002438D02*
X189357142Y-79050057D01*
X189690476Y-78954819D02*
X190309523Y-78954819D01*
X190309523Y-78954819D02*
X189976190Y-79335771D01*
X189976190Y-79335771D02*
X190119047Y-79335771D01*
X190119047Y-79335771D02*
X190214285Y-79383390D01*
X190214285Y-79383390D02*
X190261904Y-79431009D01*
X190261904Y-79431009D02*
X190309523Y-79526247D01*
X190309523Y-79526247D02*
X190309523Y-79764342D01*
X190309523Y-79764342D02*
X190261904Y-79859580D01*
X190261904Y-79859580D02*
X190214285Y-79907200D01*
X190214285Y-79907200D02*
X190119047Y-79954819D01*
X190119047Y-79954819D02*
X189833333Y-79954819D01*
X189833333Y-79954819D02*
X189738095Y-79907200D01*
X189738095Y-79907200D02*
X189690476Y-79859580D01*
X190642857Y-78954819D02*
X191309523Y-78954819D01*
X191309523Y-78954819D02*
X190880952Y-79954819D01*
X168357142Y-45359580D02*
X168309523Y-45407200D01*
X168309523Y-45407200D02*
X168166666Y-45454819D01*
X168166666Y-45454819D02*
X168071428Y-45454819D01*
X168071428Y-45454819D02*
X167928571Y-45407200D01*
X167928571Y-45407200D02*
X167833333Y-45311961D01*
X167833333Y-45311961D02*
X167785714Y-45216723D01*
X167785714Y-45216723D02*
X167738095Y-45026247D01*
X167738095Y-45026247D02*
X167738095Y-44883390D01*
X167738095Y-44883390D02*
X167785714Y-44692914D01*
X167785714Y-44692914D02*
X167833333Y-44597676D01*
X167833333Y-44597676D02*
X167928571Y-44502438D01*
X167928571Y-44502438D02*
X168071428Y-44454819D01*
X168071428Y-44454819D02*
X168166666Y-44454819D01*
X168166666Y-44454819D02*
X168309523Y-44502438D01*
X168309523Y-44502438D02*
X168357142Y-44550057D01*
X168738095Y-44550057D02*
X168785714Y-44502438D01*
X168785714Y-44502438D02*
X168880952Y-44454819D01*
X168880952Y-44454819D02*
X169119047Y-44454819D01*
X169119047Y-44454819D02*
X169214285Y-44502438D01*
X169214285Y-44502438D02*
X169261904Y-44550057D01*
X169261904Y-44550057D02*
X169309523Y-44645295D01*
X169309523Y-44645295D02*
X169309523Y-44740533D01*
X169309523Y-44740533D02*
X169261904Y-44883390D01*
X169261904Y-44883390D02*
X168690476Y-45454819D01*
X168690476Y-45454819D02*
X169309523Y-45454819D01*
X169642857Y-44454819D02*
X170261904Y-44454819D01*
X170261904Y-44454819D02*
X169928571Y-44835771D01*
X169928571Y-44835771D02*
X170071428Y-44835771D01*
X170071428Y-44835771D02*
X170166666Y-44883390D01*
X170166666Y-44883390D02*
X170214285Y-44931009D01*
X170214285Y-44931009D02*
X170261904Y-45026247D01*
X170261904Y-45026247D02*
X170261904Y-45264342D01*
X170261904Y-45264342D02*
X170214285Y-45359580D01*
X170214285Y-45359580D02*
X170166666Y-45407200D01*
X170166666Y-45407200D02*
X170071428Y-45454819D01*
X170071428Y-45454819D02*
X169785714Y-45454819D01*
X169785714Y-45454819D02*
X169690476Y-45407200D01*
X169690476Y-45407200D02*
X169642857Y-45359580D01*
X195357142Y-79859580D02*
X195309523Y-79907200D01*
X195309523Y-79907200D02*
X195166666Y-79954819D01*
X195166666Y-79954819D02*
X195071428Y-79954819D01*
X195071428Y-79954819D02*
X194928571Y-79907200D01*
X194928571Y-79907200D02*
X194833333Y-79811961D01*
X194833333Y-79811961D02*
X194785714Y-79716723D01*
X194785714Y-79716723D02*
X194738095Y-79526247D01*
X194738095Y-79526247D02*
X194738095Y-79383390D01*
X194738095Y-79383390D02*
X194785714Y-79192914D01*
X194785714Y-79192914D02*
X194833333Y-79097676D01*
X194833333Y-79097676D02*
X194928571Y-79002438D01*
X194928571Y-79002438D02*
X195071428Y-78954819D01*
X195071428Y-78954819D02*
X195166666Y-78954819D01*
X195166666Y-78954819D02*
X195309523Y-79002438D01*
X195309523Y-79002438D02*
X195357142Y-79050057D01*
X195690476Y-78954819D02*
X196309523Y-78954819D01*
X196309523Y-78954819D02*
X195976190Y-79335771D01*
X195976190Y-79335771D02*
X196119047Y-79335771D01*
X196119047Y-79335771D02*
X196214285Y-79383390D01*
X196214285Y-79383390D02*
X196261904Y-79431009D01*
X196261904Y-79431009D02*
X196309523Y-79526247D01*
X196309523Y-79526247D02*
X196309523Y-79764342D01*
X196309523Y-79764342D02*
X196261904Y-79859580D01*
X196261904Y-79859580D02*
X196214285Y-79907200D01*
X196214285Y-79907200D02*
X196119047Y-79954819D01*
X196119047Y-79954819D02*
X195833333Y-79954819D01*
X195833333Y-79954819D02*
X195738095Y-79907200D01*
X195738095Y-79907200D02*
X195690476Y-79859580D01*
X197214285Y-78954819D02*
X196738095Y-78954819D01*
X196738095Y-78954819D02*
X196690476Y-79431009D01*
X196690476Y-79431009D02*
X196738095Y-79383390D01*
X196738095Y-79383390D02*
X196833333Y-79335771D01*
X196833333Y-79335771D02*
X197071428Y-79335771D01*
X197071428Y-79335771D02*
X197166666Y-79383390D01*
X197166666Y-79383390D02*
X197214285Y-79431009D01*
X197214285Y-79431009D02*
X197261904Y-79526247D01*
X197261904Y-79526247D02*
X197261904Y-79764342D01*
X197261904Y-79764342D02*
X197214285Y-79859580D01*
X197214285Y-79859580D02*
X197166666Y-79907200D01*
X197166666Y-79907200D02*
X197071428Y-79954819D01*
X197071428Y-79954819D02*
X196833333Y-79954819D01*
X196833333Y-79954819D02*
X196738095Y-79907200D01*
X196738095Y-79907200D02*
X196690476Y-79859580D01*
X177357142Y-63359580D02*
X177309523Y-63407200D01*
X177309523Y-63407200D02*
X177166666Y-63454819D01*
X177166666Y-63454819D02*
X177071428Y-63454819D01*
X177071428Y-63454819D02*
X176928571Y-63407200D01*
X176928571Y-63407200D02*
X176833333Y-63311961D01*
X176833333Y-63311961D02*
X176785714Y-63216723D01*
X176785714Y-63216723D02*
X176738095Y-63026247D01*
X176738095Y-63026247D02*
X176738095Y-62883390D01*
X176738095Y-62883390D02*
X176785714Y-62692914D01*
X176785714Y-62692914D02*
X176833333Y-62597676D01*
X176833333Y-62597676D02*
X176928571Y-62502438D01*
X176928571Y-62502438D02*
X177071428Y-62454819D01*
X177071428Y-62454819D02*
X177166666Y-62454819D01*
X177166666Y-62454819D02*
X177309523Y-62502438D01*
X177309523Y-62502438D02*
X177357142Y-62550057D01*
X178214285Y-62788152D02*
X178214285Y-63454819D01*
X177976190Y-62407200D02*
X177738095Y-63121485D01*
X177738095Y-63121485D02*
X178357142Y-63121485D01*
X178690476Y-62550057D02*
X178738095Y-62502438D01*
X178738095Y-62502438D02*
X178833333Y-62454819D01*
X178833333Y-62454819D02*
X179071428Y-62454819D01*
X179071428Y-62454819D02*
X179166666Y-62502438D01*
X179166666Y-62502438D02*
X179214285Y-62550057D01*
X179214285Y-62550057D02*
X179261904Y-62645295D01*
X179261904Y-62645295D02*
X179261904Y-62740533D01*
X179261904Y-62740533D02*
X179214285Y-62883390D01*
X179214285Y-62883390D02*
X178642857Y-63454819D01*
X178642857Y-63454819D02*
X179261904Y-63454819D01*
X147357142Y-79859580D02*
X147309523Y-79907200D01*
X147309523Y-79907200D02*
X147166666Y-79954819D01*
X147166666Y-79954819D02*
X147071428Y-79954819D01*
X147071428Y-79954819D02*
X146928571Y-79907200D01*
X146928571Y-79907200D02*
X146833333Y-79811961D01*
X146833333Y-79811961D02*
X146785714Y-79716723D01*
X146785714Y-79716723D02*
X146738095Y-79526247D01*
X146738095Y-79526247D02*
X146738095Y-79383390D01*
X146738095Y-79383390D02*
X146785714Y-79192914D01*
X146785714Y-79192914D02*
X146833333Y-79097676D01*
X146833333Y-79097676D02*
X146928571Y-79002438D01*
X146928571Y-79002438D02*
X147071428Y-78954819D01*
X147071428Y-78954819D02*
X147166666Y-78954819D01*
X147166666Y-78954819D02*
X147309523Y-79002438D01*
X147309523Y-79002438D02*
X147357142Y-79050057D01*
X148261904Y-78954819D02*
X147785714Y-78954819D01*
X147785714Y-78954819D02*
X147738095Y-79431009D01*
X147738095Y-79431009D02*
X147785714Y-79383390D01*
X147785714Y-79383390D02*
X147880952Y-79335771D01*
X147880952Y-79335771D02*
X148119047Y-79335771D01*
X148119047Y-79335771D02*
X148214285Y-79383390D01*
X148214285Y-79383390D02*
X148261904Y-79431009D01*
X148261904Y-79431009D02*
X148309523Y-79526247D01*
X148309523Y-79526247D02*
X148309523Y-79764342D01*
X148309523Y-79764342D02*
X148261904Y-79859580D01*
X148261904Y-79859580D02*
X148214285Y-79907200D01*
X148214285Y-79907200D02*
X148119047Y-79954819D01*
X148119047Y-79954819D02*
X147880952Y-79954819D01*
X147880952Y-79954819D02*
X147785714Y-79907200D01*
X147785714Y-79907200D02*
X147738095Y-79859580D01*
X149261904Y-79954819D02*
X148690476Y-79954819D01*
X148976190Y-79954819D02*
X148976190Y-78954819D01*
X148976190Y-78954819D02*
X148880952Y-79097676D01*
X148880952Y-79097676D02*
X148785714Y-79192914D01*
X148785714Y-79192914D02*
X148690476Y-79240533D01*
X159357142Y-79859580D02*
X159309523Y-79907200D01*
X159309523Y-79907200D02*
X159166666Y-79954819D01*
X159166666Y-79954819D02*
X159071428Y-79954819D01*
X159071428Y-79954819D02*
X158928571Y-79907200D01*
X158928571Y-79907200D02*
X158833333Y-79811961D01*
X158833333Y-79811961D02*
X158785714Y-79716723D01*
X158785714Y-79716723D02*
X158738095Y-79526247D01*
X158738095Y-79526247D02*
X158738095Y-79383390D01*
X158738095Y-79383390D02*
X158785714Y-79192914D01*
X158785714Y-79192914D02*
X158833333Y-79097676D01*
X158833333Y-79097676D02*
X158928571Y-79002438D01*
X158928571Y-79002438D02*
X159071428Y-78954819D01*
X159071428Y-78954819D02*
X159166666Y-78954819D01*
X159166666Y-78954819D02*
X159309523Y-79002438D01*
X159309523Y-79002438D02*
X159357142Y-79050057D01*
X160214285Y-79288152D02*
X160214285Y-79954819D01*
X159976190Y-78907200D02*
X159738095Y-79621485D01*
X159738095Y-79621485D02*
X160357142Y-79621485D01*
X160642857Y-78954819D02*
X161309523Y-78954819D01*
X161309523Y-78954819D02*
X160880952Y-79954819D01*
X168357142Y-61859580D02*
X168309523Y-61907200D01*
X168309523Y-61907200D02*
X168166666Y-61954819D01*
X168166666Y-61954819D02*
X168071428Y-61954819D01*
X168071428Y-61954819D02*
X167928571Y-61907200D01*
X167928571Y-61907200D02*
X167833333Y-61811961D01*
X167833333Y-61811961D02*
X167785714Y-61716723D01*
X167785714Y-61716723D02*
X167738095Y-61526247D01*
X167738095Y-61526247D02*
X167738095Y-61383390D01*
X167738095Y-61383390D02*
X167785714Y-61192914D01*
X167785714Y-61192914D02*
X167833333Y-61097676D01*
X167833333Y-61097676D02*
X167928571Y-61002438D01*
X167928571Y-61002438D02*
X168071428Y-60954819D01*
X168071428Y-60954819D02*
X168166666Y-60954819D01*
X168166666Y-60954819D02*
X168309523Y-61002438D01*
X168309523Y-61002438D02*
X168357142Y-61050057D01*
X168738095Y-61050057D02*
X168785714Y-61002438D01*
X168785714Y-61002438D02*
X168880952Y-60954819D01*
X168880952Y-60954819D02*
X169119047Y-60954819D01*
X169119047Y-60954819D02*
X169214285Y-61002438D01*
X169214285Y-61002438D02*
X169261904Y-61050057D01*
X169261904Y-61050057D02*
X169309523Y-61145295D01*
X169309523Y-61145295D02*
X169309523Y-61240533D01*
X169309523Y-61240533D02*
X169261904Y-61383390D01*
X169261904Y-61383390D02*
X168690476Y-61954819D01*
X168690476Y-61954819D02*
X169309523Y-61954819D01*
X170166666Y-61288152D02*
X170166666Y-61954819D01*
X169928571Y-60907200D02*
X169690476Y-61621485D01*
X169690476Y-61621485D02*
X170309523Y-61621485D01*
X126833333Y-45359580D02*
X126785714Y-45407200D01*
X126785714Y-45407200D02*
X126642857Y-45454819D01*
X126642857Y-45454819D02*
X126547619Y-45454819D01*
X126547619Y-45454819D02*
X126404762Y-45407200D01*
X126404762Y-45407200D02*
X126309524Y-45311961D01*
X126309524Y-45311961D02*
X126261905Y-45216723D01*
X126261905Y-45216723D02*
X126214286Y-45026247D01*
X126214286Y-45026247D02*
X126214286Y-44883390D01*
X126214286Y-44883390D02*
X126261905Y-44692914D01*
X126261905Y-44692914D02*
X126309524Y-44597676D01*
X126309524Y-44597676D02*
X126404762Y-44502438D01*
X126404762Y-44502438D02*
X126547619Y-44454819D01*
X126547619Y-44454819D02*
X126642857Y-44454819D01*
X126642857Y-44454819D02*
X126785714Y-44502438D01*
X126785714Y-44502438D02*
X126833333Y-44550057D01*
X127309524Y-45454819D02*
X127500000Y-45454819D01*
X127500000Y-45454819D02*
X127595238Y-45407200D01*
X127595238Y-45407200D02*
X127642857Y-45359580D01*
X127642857Y-45359580D02*
X127738095Y-45216723D01*
X127738095Y-45216723D02*
X127785714Y-45026247D01*
X127785714Y-45026247D02*
X127785714Y-44645295D01*
X127785714Y-44645295D02*
X127738095Y-44550057D01*
X127738095Y-44550057D02*
X127690476Y-44502438D01*
X127690476Y-44502438D02*
X127595238Y-44454819D01*
X127595238Y-44454819D02*
X127404762Y-44454819D01*
X127404762Y-44454819D02*
X127309524Y-44502438D01*
X127309524Y-44502438D02*
X127261905Y-44550057D01*
X127261905Y-44550057D02*
X127214286Y-44645295D01*
X127214286Y-44645295D02*
X127214286Y-44883390D01*
X127214286Y-44883390D02*
X127261905Y-44978628D01*
X127261905Y-44978628D02*
X127309524Y-45026247D01*
X127309524Y-45026247D02*
X127404762Y-45073866D01*
X127404762Y-45073866D02*
X127595238Y-45073866D01*
X127595238Y-45073866D02*
X127690476Y-45026247D01*
X127690476Y-45026247D02*
X127738095Y-44978628D01*
X127738095Y-44978628D02*
X127785714Y-44883390D01*
X120833333Y-45359580D02*
X120785714Y-45407200D01*
X120785714Y-45407200D02*
X120642857Y-45454819D01*
X120642857Y-45454819D02*
X120547619Y-45454819D01*
X120547619Y-45454819D02*
X120404762Y-45407200D01*
X120404762Y-45407200D02*
X120309524Y-45311961D01*
X120309524Y-45311961D02*
X120261905Y-45216723D01*
X120261905Y-45216723D02*
X120214286Y-45026247D01*
X120214286Y-45026247D02*
X120214286Y-44883390D01*
X120214286Y-44883390D02*
X120261905Y-44692914D01*
X120261905Y-44692914D02*
X120309524Y-44597676D01*
X120309524Y-44597676D02*
X120404762Y-44502438D01*
X120404762Y-44502438D02*
X120547619Y-44454819D01*
X120547619Y-44454819D02*
X120642857Y-44454819D01*
X120642857Y-44454819D02*
X120785714Y-44502438D01*
X120785714Y-44502438D02*
X120833333Y-44550057D01*
X121166667Y-44454819D02*
X121833333Y-44454819D01*
X121833333Y-44454819D02*
X121404762Y-45454819D01*
X180357142Y-45359580D02*
X180309523Y-45407200D01*
X180309523Y-45407200D02*
X180166666Y-45454819D01*
X180166666Y-45454819D02*
X180071428Y-45454819D01*
X180071428Y-45454819D02*
X179928571Y-45407200D01*
X179928571Y-45407200D02*
X179833333Y-45311961D01*
X179833333Y-45311961D02*
X179785714Y-45216723D01*
X179785714Y-45216723D02*
X179738095Y-45026247D01*
X179738095Y-45026247D02*
X179738095Y-44883390D01*
X179738095Y-44883390D02*
X179785714Y-44692914D01*
X179785714Y-44692914D02*
X179833333Y-44597676D01*
X179833333Y-44597676D02*
X179928571Y-44502438D01*
X179928571Y-44502438D02*
X180071428Y-44454819D01*
X180071428Y-44454819D02*
X180166666Y-44454819D01*
X180166666Y-44454819D02*
X180309523Y-44502438D01*
X180309523Y-44502438D02*
X180357142Y-44550057D01*
X180738095Y-44550057D02*
X180785714Y-44502438D01*
X180785714Y-44502438D02*
X180880952Y-44454819D01*
X180880952Y-44454819D02*
X181119047Y-44454819D01*
X181119047Y-44454819D02*
X181214285Y-44502438D01*
X181214285Y-44502438D02*
X181261904Y-44550057D01*
X181261904Y-44550057D02*
X181309523Y-44645295D01*
X181309523Y-44645295D02*
X181309523Y-44740533D01*
X181309523Y-44740533D02*
X181261904Y-44883390D01*
X181261904Y-44883390D02*
X180690476Y-45454819D01*
X180690476Y-45454819D02*
X181309523Y-45454819D01*
X181642857Y-44454819D02*
X182309523Y-44454819D01*
X182309523Y-44454819D02*
X181880952Y-45454819D01*
X183357142Y-79859580D02*
X183309523Y-79907200D01*
X183309523Y-79907200D02*
X183166666Y-79954819D01*
X183166666Y-79954819D02*
X183071428Y-79954819D01*
X183071428Y-79954819D02*
X182928571Y-79907200D01*
X182928571Y-79907200D02*
X182833333Y-79811961D01*
X182833333Y-79811961D02*
X182785714Y-79716723D01*
X182785714Y-79716723D02*
X182738095Y-79526247D01*
X182738095Y-79526247D02*
X182738095Y-79383390D01*
X182738095Y-79383390D02*
X182785714Y-79192914D01*
X182785714Y-79192914D02*
X182833333Y-79097676D01*
X182833333Y-79097676D02*
X182928571Y-79002438D01*
X182928571Y-79002438D02*
X183071428Y-78954819D01*
X183071428Y-78954819D02*
X183166666Y-78954819D01*
X183166666Y-78954819D02*
X183309523Y-79002438D01*
X183309523Y-79002438D02*
X183357142Y-79050057D01*
X183690476Y-78954819D02*
X184309523Y-78954819D01*
X184309523Y-78954819D02*
X183976190Y-79335771D01*
X183976190Y-79335771D02*
X184119047Y-79335771D01*
X184119047Y-79335771D02*
X184214285Y-79383390D01*
X184214285Y-79383390D02*
X184261904Y-79431009D01*
X184261904Y-79431009D02*
X184309523Y-79526247D01*
X184309523Y-79526247D02*
X184309523Y-79764342D01*
X184309523Y-79764342D02*
X184261904Y-79859580D01*
X184261904Y-79859580D02*
X184214285Y-79907200D01*
X184214285Y-79907200D02*
X184119047Y-79954819D01*
X184119047Y-79954819D02*
X183833333Y-79954819D01*
X183833333Y-79954819D02*
X183738095Y-79907200D01*
X183738095Y-79907200D02*
X183690476Y-79859580D01*
X184785714Y-79954819D02*
X184976190Y-79954819D01*
X184976190Y-79954819D02*
X185071428Y-79907200D01*
X185071428Y-79907200D02*
X185119047Y-79859580D01*
X185119047Y-79859580D02*
X185214285Y-79716723D01*
X185214285Y-79716723D02*
X185261904Y-79526247D01*
X185261904Y-79526247D02*
X185261904Y-79145295D01*
X185261904Y-79145295D02*
X185214285Y-79050057D01*
X185214285Y-79050057D02*
X185166666Y-79002438D01*
X185166666Y-79002438D02*
X185071428Y-78954819D01*
X185071428Y-78954819D02*
X184880952Y-78954819D01*
X184880952Y-78954819D02*
X184785714Y-79002438D01*
X184785714Y-79002438D02*
X184738095Y-79050057D01*
X184738095Y-79050057D02*
X184690476Y-79145295D01*
X184690476Y-79145295D02*
X184690476Y-79383390D01*
X184690476Y-79383390D02*
X184738095Y-79478628D01*
X184738095Y-79478628D02*
X184785714Y-79526247D01*
X184785714Y-79526247D02*
X184880952Y-79573866D01*
X184880952Y-79573866D02*
X185071428Y-79573866D01*
X185071428Y-79573866D02*
X185166666Y-79526247D01*
X185166666Y-79526247D02*
X185214285Y-79478628D01*
X185214285Y-79478628D02*
X185261904Y-79383390D01*
X120833333Y-61859580D02*
X120785714Y-61907200D01*
X120785714Y-61907200D02*
X120642857Y-61954819D01*
X120642857Y-61954819D02*
X120547619Y-61954819D01*
X120547619Y-61954819D02*
X120404762Y-61907200D01*
X120404762Y-61907200D02*
X120309524Y-61811961D01*
X120309524Y-61811961D02*
X120261905Y-61716723D01*
X120261905Y-61716723D02*
X120214286Y-61526247D01*
X120214286Y-61526247D02*
X120214286Y-61383390D01*
X120214286Y-61383390D02*
X120261905Y-61192914D01*
X120261905Y-61192914D02*
X120309524Y-61097676D01*
X120309524Y-61097676D02*
X120404762Y-61002438D01*
X120404762Y-61002438D02*
X120547619Y-60954819D01*
X120547619Y-60954819D02*
X120642857Y-60954819D01*
X120642857Y-60954819D02*
X120785714Y-61002438D01*
X120785714Y-61002438D02*
X120833333Y-61050057D01*
X121404762Y-61383390D02*
X121309524Y-61335771D01*
X121309524Y-61335771D02*
X121261905Y-61288152D01*
X121261905Y-61288152D02*
X121214286Y-61192914D01*
X121214286Y-61192914D02*
X121214286Y-61145295D01*
X121214286Y-61145295D02*
X121261905Y-61050057D01*
X121261905Y-61050057D02*
X121309524Y-61002438D01*
X121309524Y-61002438D02*
X121404762Y-60954819D01*
X121404762Y-60954819D02*
X121595238Y-60954819D01*
X121595238Y-60954819D02*
X121690476Y-61002438D01*
X121690476Y-61002438D02*
X121738095Y-61050057D01*
X121738095Y-61050057D02*
X121785714Y-61145295D01*
X121785714Y-61145295D02*
X121785714Y-61192914D01*
X121785714Y-61192914D02*
X121738095Y-61288152D01*
X121738095Y-61288152D02*
X121690476Y-61335771D01*
X121690476Y-61335771D02*
X121595238Y-61383390D01*
X121595238Y-61383390D02*
X121404762Y-61383390D01*
X121404762Y-61383390D02*
X121309524Y-61431009D01*
X121309524Y-61431009D02*
X121261905Y-61478628D01*
X121261905Y-61478628D02*
X121214286Y-61573866D01*
X121214286Y-61573866D02*
X121214286Y-61764342D01*
X121214286Y-61764342D02*
X121261905Y-61859580D01*
X121261905Y-61859580D02*
X121309524Y-61907200D01*
X121309524Y-61907200D02*
X121404762Y-61954819D01*
X121404762Y-61954819D02*
X121595238Y-61954819D01*
X121595238Y-61954819D02*
X121690476Y-61907200D01*
X121690476Y-61907200D02*
X121738095Y-61859580D01*
X121738095Y-61859580D02*
X121785714Y-61764342D01*
X121785714Y-61764342D02*
X121785714Y-61573866D01*
X121785714Y-61573866D02*
X121738095Y-61478628D01*
X121738095Y-61478628D02*
X121690476Y-61431009D01*
X121690476Y-61431009D02*
X121595238Y-61383390D01*
X180357142Y-61859580D02*
X180309523Y-61907200D01*
X180309523Y-61907200D02*
X180166666Y-61954819D01*
X180166666Y-61954819D02*
X180071428Y-61954819D01*
X180071428Y-61954819D02*
X179928571Y-61907200D01*
X179928571Y-61907200D02*
X179833333Y-61811961D01*
X179833333Y-61811961D02*
X179785714Y-61716723D01*
X179785714Y-61716723D02*
X179738095Y-61526247D01*
X179738095Y-61526247D02*
X179738095Y-61383390D01*
X179738095Y-61383390D02*
X179785714Y-61192914D01*
X179785714Y-61192914D02*
X179833333Y-61097676D01*
X179833333Y-61097676D02*
X179928571Y-61002438D01*
X179928571Y-61002438D02*
X180071428Y-60954819D01*
X180071428Y-60954819D02*
X180166666Y-60954819D01*
X180166666Y-60954819D02*
X180309523Y-61002438D01*
X180309523Y-61002438D02*
X180357142Y-61050057D01*
X180738095Y-61050057D02*
X180785714Y-61002438D01*
X180785714Y-61002438D02*
X180880952Y-60954819D01*
X180880952Y-60954819D02*
X181119047Y-60954819D01*
X181119047Y-60954819D02*
X181214285Y-61002438D01*
X181214285Y-61002438D02*
X181261904Y-61050057D01*
X181261904Y-61050057D02*
X181309523Y-61145295D01*
X181309523Y-61145295D02*
X181309523Y-61240533D01*
X181309523Y-61240533D02*
X181261904Y-61383390D01*
X181261904Y-61383390D02*
X180690476Y-61954819D01*
X180690476Y-61954819D02*
X181309523Y-61954819D01*
X181880952Y-61383390D02*
X181785714Y-61335771D01*
X181785714Y-61335771D02*
X181738095Y-61288152D01*
X181738095Y-61288152D02*
X181690476Y-61192914D01*
X181690476Y-61192914D02*
X181690476Y-61145295D01*
X181690476Y-61145295D02*
X181738095Y-61050057D01*
X181738095Y-61050057D02*
X181785714Y-61002438D01*
X181785714Y-61002438D02*
X181880952Y-60954819D01*
X181880952Y-60954819D02*
X182071428Y-60954819D01*
X182071428Y-60954819D02*
X182166666Y-61002438D01*
X182166666Y-61002438D02*
X182214285Y-61050057D01*
X182214285Y-61050057D02*
X182261904Y-61145295D01*
X182261904Y-61145295D02*
X182261904Y-61192914D01*
X182261904Y-61192914D02*
X182214285Y-61288152D01*
X182214285Y-61288152D02*
X182166666Y-61335771D01*
X182166666Y-61335771D02*
X182071428Y-61383390D01*
X182071428Y-61383390D02*
X181880952Y-61383390D01*
X181880952Y-61383390D02*
X181785714Y-61431009D01*
X181785714Y-61431009D02*
X181738095Y-61478628D01*
X181738095Y-61478628D02*
X181690476Y-61573866D01*
X181690476Y-61573866D02*
X181690476Y-61764342D01*
X181690476Y-61764342D02*
X181738095Y-61859580D01*
X181738095Y-61859580D02*
X181785714Y-61907200D01*
X181785714Y-61907200D02*
X181880952Y-61954819D01*
X181880952Y-61954819D02*
X182071428Y-61954819D01*
X182071428Y-61954819D02*
X182166666Y-61907200D01*
X182166666Y-61907200D02*
X182214285Y-61859580D01*
X182214285Y-61859580D02*
X182261904Y-61764342D01*
X182261904Y-61764342D02*
X182261904Y-61573866D01*
X182261904Y-61573866D02*
X182214285Y-61478628D01*
X182214285Y-61478628D02*
X182166666Y-61431009D01*
X182166666Y-61431009D02*
X182071428Y-61383390D01*
X153357142Y-79859580D02*
X153309523Y-79907200D01*
X153309523Y-79907200D02*
X153166666Y-79954819D01*
X153166666Y-79954819D02*
X153071428Y-79954819D01*
X153071428Y-79954819D02*
X152928571Y-79907200D01*
X152928571Y-79907200D02*
X152833333Y-79811961D01*
X152833333Y-79811961D02*
X152785714Y-79716723D01*
X152785714Y-79716723D02*
X152738095Y-79526247D01*
X152738095Y-79526247D02*
X152738095Y-79383390D01*
X152738095Y-79383390D02*
X152785714Y-79192914D01*
X152785714Y-79192914D02*
X152833333Y-79097676D01*
X152833333Y-79097676D02*
X152928571Y-79002438D01*
X152928571Y-79002438D02*
X153071428Y-78954819D01*
X153071428Y-78954819D02*
X153166666Y-78954819D01*
X153166666Y-78954819D02*
X153309523Y-79002438D01*
X153309523Y-79002438D02*
X153357142Y-79050057D01*
X154214285Y-79288152D02*
X154214285Y-79954819D01*
X153976190Y-78907200D02*
X153738095Y-79621485D01*
X153738095Y-79621485D02*
X154357142Y-79621485D01*
X154785714Y-79954819D02*
X154976190Y-79954819D01*
X154976190Y-79954819D02*
X155071428Y-79907200D01*
X155071428Y-79907200D02*
X155119047Y-79859580D01*
X155119047Y-79859580D02*
X155214285Y-79716723D01*
X155214285Y-79716723D02*
X155261904Y-79526247D01*
X155261904Y-79526247D02*
X155261904Y-79145295D01*
X155261904Y-79145295D02*
X155214285Y-79050057D01*
X155214285Y-79050057D02*
X155166666Y-79002438D01*
X155166666Y-79002438D02*
X155071428Y-78954819D01*
X155071428Y-78954819D02*
X154880952Y-78954819D01*
X154880952Y-78954819D02*
X154785714Y-79002438D01*
X154785714Y-79002438D02*
X154738095Y-79050057D01*
X154738095Y-79050057D02*
X154690476Y-79145295D01*
X154690476Y-79145295D02*
X154690476Y-79383390D01*
X154690476Y-79383390D02*
X154738095Y-79478628D01*
X154738095Y-79478628D02*
X154785714Y-79526247D01*
X154785714Y-79526247D02*
X154880952Y-79573866D01*
X154880952Y-79573866D02*
X155071428Y-79573866D01*
X155071428Y-79573866D02*
X155166666Y-79526247D01*
X155166666Y-79526247D02*
X155214285Y-79478628D01*
X155214285Y-79478628D02*
X155261904Y-79383390D01*
X183357142Y-63359580D02*
X183309523Y-63407200D01*
X183309523Y-63407200D02*
X183166666Y-63454819D01*
X183166666Y-63454819D02*
X183071428Y-63454819D01*
X183071428Y-63454819D02*
X182928571Y-63407200D01*
X182928571Y-63407200D02*
X182833333Y-63311961D01*
X182833333Y-63311961D02*
X182785714Y-63216723D01*
X182785714Y-63216723D02*
X182738095Y-63026247D01*
X182738095Y-63026247D02*
X182738095Y-62883390D01*
X182738095Y-62883390D02*
X182785714Y-62692914D01*
X182785714Y-62692914D02*
X182833333Y-62597676D01*
X182833333Y-62597676D02*
X182928571Y-62502438D01*
X182928571Y-62502438D02*
X183071428Y-62454819D01*
X183071428Y-62454819D02*
X183166666Y-62454819D01*
X183166666Y-62454819D02*
X183309523Y-62502438D01*
X183309523Y-62502438D02*
X183357142Y-62550057D01*
X184214285Y-62788152D02*
X184214285Y-63454819D01*
X183976190Y-62407200D02*
X183738095Y-63121485D01*
X183738095Y-63121485D02*
X184357142Y-63121485D01*
X184928571Y-62454819D02*
X185023809Y-62454819D01*
X185023809Y-62454819D02*
X185119047Y-62502438D01*
X185119047Y-62502438D02*
X185166666Y-62550057D01*
X185166666Y-62550057D02*
X185214285Y-62645295D01*
X185214285Y-62645295D02*
X185261904Y-62835771D01*
X185261904Y-62835771D02*
X185261904Y-63073866D01*
X185261904Y-63073866D02*
X185214285Y-63264342D01*
X185214285Y-63264342D02*
X185166666Y-63359580D01*
X185166666Y-63359580D02*
X185119047Y-63407200D01*
X185119047Y-63407200D02*
X185023809Y-63454819D01*
X185023809Y-63454819D02*
X184928571Y-63454819D01*
X184928571Y-63454819D02*
X184833333Y-63407200D01*
X184833333Y-63407200D02*
X184785714Y-63359580D01*
X184785714Y-63359580D02*
X184738095Y-63264342D01*
X184738095Y-63264342D02*
X184690476Y-63073866D01*
X184690476Y-63073866D02*
X184690476Y-62835771D01*
X184690476Y-62835771D02*
X184738095Y-62645295D01*
X184738095Y-62645295D02*
X184785714Y-62550057D01*
X184785714Y-62550057D02*
X184833333Y-62502438D01*
X184833333Y-62502438D02*
X184928571Y-62454819D01*
X165357142Y-63359580D02*
X165309523Y-63407200D01*
X165309523Y-63407200D02*
X165166666Y-63454819D01*
X165166666Y-63454819D02*
X165071428Y-63454819D01*
X165071428Y-63454819D02*
X164928571Y-63407200D01*
X164928571Y-63407200D02*
X164833333Y-63311961D01*
X164833333Y-63311961D02*
X164785714Y-63216723D01*
X164785714Y-63216723D02*
X164738095Y-63026247D01*
X164738095Y-63026247D02*
X164738095Y-62883390D01*
X164738095Y-62883390D02*
X164785714Y-62692914D01*
X164785714Y-62692914D02*
X164833333Y-62597676D01*
X164833333Y-62597676D02*
X164928571Y-62502438D01*
X164928571Y-62502438D02*
X165071428Y-62454819D01*
X165071428Y-62454819D02*
X165166666Y-62454819D01*
X165166666Y-62454819D02*
X165309523Y-62502438D01*
X165309523Y-62502438D02*
X165357142Y-62550057D01*
X166214285Y-62788152D02*
X166214285Y-63454819D01*
X165976190Y-62407200D02*
X165738095Y-63121485D01*
X165738095Y-63121485D02*
X166357142Y-63121485D01*
X167166666Y-62454819D02*
X166976190Y-62454819D01*
X166976190Y-62454819D02*
X166880952Y-62502438D01*
X166880952Y-62502438D02*
X166833333Y-62550057D01*
X166833333Y-62550057D02*
X166738095Y-62692914D01*
X166738095Y-62692914D02*
X166690476Y-62883390D01*
X166690476Y-62883390D02*
X166690476Y-63264342D01*
X166690476Y-63264342D02*
X166738095Y-63359580D01*
X166738095Y-63359580D02*
X166785714Y-63407200D01*
X166785714Y-63407200D02*
X166880952Y-63454819D01*
X166880952Y-63454819D02*
X167071428Y-63454819D01*
X167071428Y-63454819D02*
X167166666Y-63407200D01*
X167166666Y-63407200D02*
X167214285Y-63359580D01*
X167214285Y-63359580D02*
X167261904Y-63264342D01*
X167261904Y-63264342D02*
X167261904Y-63026247D01*
X167261904Y-63026247D02*
X167214285Y-62931009D01*
X167214285Y-62931009D02*
X167166666Y-62883390D01*
X167166666Y-62883390D02*
X167071428Y-62835771D01*
X167071428Y-62835771D02*
X166880952Y-62835771D01*
X166880952Y-62835771D02*
X166785714Y-62883390D01*
X166785714Y-62883390D02*
X166738095Y-62931009D01*
X166738095Y-62931009D02*
X166690476Y-63026247D01*
X192357142Y-61859580D02*
X192309523Y-61907200D01*
X192309523Y-61907200D02*
X192166666Y-61954819D01*
X192166666Y-61954819D02*
X192071428Y-61954819D01*
X192071428Y-61954819D02*
X191928571Y-61907200D01*
X191928571Y-61907200D02*
X191833333Y-61811961D01*
X191833333Y-61811961D02*
X191785714Y-61716723D01*
X191785714Y-61716723D02*
X191738095Y-61526247D01*
X191738095Y-61526247D02*
X191738095Y-61383390D01*
X191738095Y-61383390D02*
X191785714Y-61192914D01*
X191785714Y-61192914D02*
X191833333Y-61097676D01*
X191833333Y-61097676D02*
X191928571Y-61002438D01*
X191928571Y-61002438D02*
X192071428Y-60954819D01*
X192071428Y-60954819D02*
X192166666Y-60954819D01*
X192166666Y-60954819D02*
X192309523Y-61002438D01*
X192309523Y-61002438D02*
X192357142Y-61050057D01*
X192690476Y-60954819D02*
X193309523Y-60954819D01*
X193309523Y-60954819D02*
X192976190Y-61335771D01*
X192976190Y-61335771D02*
X193119047Y-61335771D01*
X193119047Y-61335771D02*
X193214285Y-61383390D01*
X193214285Y-61383390D02*
X193261904Y-61431009D01*
X193261904Y-61431009D02*
X193309523Y-61526247D01*
X193309523Y-61526247D02*
X193309523Y-61764342D01*
X193309523Y-61764342D02*
X193261904Y-61859580D01*
X193261904Y-61859580D02*
X193214285Y-61907200D01*
X193214285Y-61907200D02*
X193119047Y-61954819D01*
X193119047Y-61954819D02*
X192833333Y-61954819D01*
X192833333Y-61954819D02*
X192738095Y-61907200D01*
X192738095Y-61907200D02*
X192690476Y-61859580D01*
X193690476Y-61050057D02*
X193738095Y-61002438D01*
X193738095Y-61002438D02*
X193833333Y-60954819D01*
X193833333Y-60954819D02*
X194071428Y-60954819D01*
X194071428Y-60954819D02*
X194166666Y-61002438D01*
X194166666Y-61002438D02*
X194214285Y-61050057D01*
X194214285Y-61050057D02*
X194261904Y-61145295D01*
X194261904Y-61145295D02*
X194261904Y-61240533D01*
X194261904Y-61240533D02*
X194214285Y-61383390D01*
X194214285Y-61383390D02*
X193642857Y-61954819D01*
X193642857Y-61954819D02*
X194261904Y-61954819D01*
X150357142Y-61859580D02*
X150309523Y-61907200D01*
X150309523Y-61907200D02*
X150166666Y-61954819D01*
X150166666Y-61954819D02*
X150071428Y-61954819D01*
X150071428Y-61954819D02*
X149928571Y-61907200D01*
X149928571Y-61907200D02*
X149833333Y-61811961D01*
X149833333Y-61811961D02*
X149785714Y-61716723D01*
X149785714Y-61716723D02*
X149738095Y-61526247D01*
X149738095Y-61526247D02*
X149738095Y-61383390D01*
X149738095Y-61383390D02*
X149785714Y-61192914D01*
X149785714Y-61192914D02*
X149833333Y-61097676D01*
X149833333Y-61097676D02*
X149928571Y-61002438D01*
X149928571Y-61002438D02*
X150071428Y-60954819D01*
X150071428Y-60954819D02*
X150166666Y-60954819D01*
X150166666Y-60954819D02*
X150309523Y-61002438D01*
X150309523Y-61002438D02*
X150357142Y-61050057D01*
X151309523Y-61954819D02*
X150738095Y-61954819D01*
X151023809Y-61954819D02*
X151023809Y-60954819D01*
X151023809Y-60954819D02*
X150928571Y-61097676D01*
X150928571Y-61097676D02*
X150833333Y-61192914D01*
X150833333Y-61192914D02*
X150738095Y-61240533D01*
X151880952Y-61383390D02*
X151785714Y-61335771D01*
X151785714Y-61335771D02*
X151738095Y-61288152D01*
X151738095Y-61288152D02*
X151690476Y-61192914D01*
X151690476Y-61192914D02*
X151690476Y-61145295D01*
X151690476Y-61145295D02*
X151738095Y-61050057D01*
X151738095Y-61050057D02*
X151785714Y-61002438D01*
X151785714Y-61002438D02*
X151880952Y-60954819D01*
X151880952Y-60954819D02*
X152071428Y-60954819D01*
X152071428Y-60954819D02*
X152166666Y-61002438D01*
X152166666Y-61002438D02*
X152214285Y-61050057D01*
X152214285Y-61050057D02*
X152261904Y-61145295D01*
X152261904Y-61145295D02*
X152261904Y-61192914D01*
X152261904Y-61192914D02*
X152214285Y-61288152D01*
X152214285Y-61288152D02*
X152166666Y-61335771D01*
X152166666Y-61335771D02*
X152071428Y-61383390D01*
X152071428Y-61383390D02*
X151880952Y-61383390D01*
X151880952Y-61383390D02*
X151785714Y-61431009D01*
X151785714Y-61431009D02*
X151738095Y-61478628D01*
X151738095Y-61478628D02*
X151690476Y-61573866D01*
X151690476Y-61573866D02*
X151690476Y-61764342D01*
X151690476Y-61764342D02*
X151738095Y-61859580D01*
X151738095Y-61859580D02*
X151785714Y-61907200D01*
X151785714Y-61907200D02*
X151880952Y-61954819D01*
X151880952Y-61954819D02*
X152071428Y-61954819D01*
X152071428Y-61954819D02*
X152166666Y-61907200D01*
X152166666Y-61907200D02*
X152214285Y-61859580D01*
X152214285Y-61859580D02*
X152261904Y-61764342D01*
X152261904Y-61764342D02*
X152261904Y-61573866D01*
X152261904Y-61573866D02*
X152214285Y-61478628D01*
X152214285Y-61478628D02*
X152166666Y-61431009D01*
X152166666Y-61431009D02*
X152071428Y-61383390D01*
X117357142Y-63359580D02*
X117309523Y-63407200D01*
X117309523Y-63407200D02*
X117166666Y-63454819D01*
X117166666Y-63454819D02*
X117071428Y-63454819D01*
X117071428Y-63454819D02*
X116928571Y-63407200D01*
X116928571Y-63407200D02*
X116833333Y-63311961D01*
X116833333Y-63311961D02*
X116785714Y-63216723D01*
X116785714Y-63216723D02*
X116738095Y-63026247D01*
X116738095Y-63026247D02*
X116738095Y-62883390D01*
X116738095Y-62883390D02*
X116785714Y-62692914D01*
X116785714Y-62692914D02*
X116833333Y-62597676D01*
X116833333Y-62597676D02*
X116928571Y-62502438D01*
X116928571Y-62502438D02*
X117071428Y-62454819D01*
X117071428Y-62454819D02*
X117166666Y-62454819D01*
X117166666Y-62454819D02*
X117309523Y-62502438D01*
X117309523Y-62502438D02*
X117357142Y-62550057D01*
X118214285Y-62454819D02*
X118023809Y-62454819D01*
X118023809Y-62454819D02*
X117928571Y-62502438D01*
X117928571Y-62502438D02*
X117880952Y-62550057D01*
X117880952Y-62550057D02*
X117785714Y-62692914D01*
X117785714Y-62692914D02*
X117738095Y-62883390D01*
X117738095Y-62883390D02*
X117738095Y-63264342D01*
X117738095Y-63264342D02*
X117785714Y-63359580D01*
X117785714Y-63359580D02*
X117833333Y-63407200D01*
X117833333Y-63407200D02*
X117928571Y-63454819D01*
X117928571Y-63454819D02*
X118119047Y-63454819D01*
X118119047Y-63454819D02*
X118214285Y-63407200D01*
X118214285Y-63407200D02*
X118261904Y-63359580D01*
X118261904Y-63359580D02*
X118309523Y-63264342D01*
X118309523Y-63264342D02*
X118309523Y-63026247D01*
X118309523Y-63026247D02*
X118261904Y-62931009D01*
X118261904Y-62931009D02*
X118214285Y-62883390D01*
X118214285Y-62883390D02*
X118119047Y-62835771D01*
X118119047Y-62835771D02*
X117928571Y-62835771D01*
X117928571Y-62835771D02*
X117833333Y-62883390D01*
X117833333Y-62883390D02*
X117785714Y-62931009D01*
X117785714Y-62931009D02*
X117738095Y-63026247D01*
X118690476Y-62550057D02*
X118738095Y-62502438D01*
X118738095Y-62502438D02*
X118833333Y-62454819D01*
X118833333Y-62454819D02*
X119071428Y-62454819D01*
X119071428Y-62454819D02*
X119166666Y-62502438D01*
X119166666Y-62502438D02*
X119214285Y-62550057D01*
X119214285Y-62550057D02*
X119261904Y-62645295D01*
X119261904Y-62645295D02*
X119261904Y-62740533D01*
X119261904Y-62740533D02*
X119214285Y-62883390D01*
X119214285Y-62883390D02*
X118642857Y-63454819D01*
X118642857Y-63454819D02*
X119261904Y-63454819D01*
X111357142Y-79859580D02*
X111309523Y-79907200D01*
X111309523Y-79907200D02*
X111166666Y-79954819D01*
X111166666Y-79954819D02*
X111071428Y-79954819D01*
X111071428Y-79954819D02*
X110928571Y-79907200D01*
X110928571Y-79907200D02*
X110833333Y-79811961D01*
X110833333Y-79811961D02*
X110785714Y-79716723D01*
X110785714Y-79716723D02*
X110738095Y-79526247D01*
X110738095Y-79526247D02*
X110738095Y-79383390D01*
X110738095Y-79383390D02*
X110785714Y-79192914D01*
X110785714Y-79192914D02*
X110833333Y-79097676D01*
X110833333Y-79097676D02*
X110928571Y-79002438D01*
X110928571Y-79002438D02*
X111071428Y-78954819D01*
X111071428Y-78954819D02*
X111166666Y-78954819D01*
X111166666Y-78954819D02*
X111309523Y-79002438D01*
X111309523Y-79002438D02*
X111357142Y-79050057D01*
X112214285Y-78954819D02*
X112023809Y-78954819D01*
X112023809Y-78954819D02*
X111928571Y-79002438D01*
X111928571Y-79002438D02*
X111880952Y-79050057D01*
X111880952Y-79050057D02*
X111785714Y-79192914D01*
X111785714Y-79192914D02*
X111738095Y-79383390D01*
X111738095Y-79383390D02*
X111738095Y-79764342D01*
X111738095Y-79764342D02*
X111785714Y-79859580D01*
X111785714Y-79859580D02*
X111833333Y-79907200D01*
X111833333Y-79907200D02*
X111928571Y-79954819D01*
X111928571Y-79954819D02*
X112119047Y-79954819D01*
X112119047Y-79954819D02*
X112214285Y-79907200D01*
X112214285Y-79907200D02*
X112261904Y-79859580D01*
X112261904Y-79859580D02*
X112309523Y-79764342D01*
X112309523Y-79764342D02*
X112309523Y-79526247D01*
X112309523Y-79526247D02*
X112261904Y-79431009D01*
X112261904Y-79431009D02*
X112214285Y-79383390D01*
X112214285Y-79383390D02*
X112119047Y-79335771D01*
X112119047Y-79335771D02*
X111928571Y-79335771D01*
X111928571Y-79335771D02*
X111833333Y-79383390D01*
X111833333Y-79383390D02*
X111785714Y-79431009D01*
X111785714Y-79431009D02*
X111738095Y-79526247D01*
X112642857Y-78954819D02*
X113261904Y-78954819D01*
X113261904Y-78954819D02*
X112928571Y-79335771D01*
X112928571Y-79335771D02*
X113071428Y-79335771D01*
X113071428Y-79335771D02*
X113166666Y-79383390D01*
X113166666Y-79383390D02*
X113214285Y-79431009D01*
X113214285Y-79431009D02*
X113261904Y-79526247D01*
X113261904Y-79526247D02*
X113261904Y-79764342D01*
X113261904Y-79764342D02*
X113214285Y-79859580D01*
X113214285Y-79859580D02*
X113166666Y-79907200D01*
X113166666Y-79907200D02*
X113071428Y-79954819D01*
X113071428Y-79954819D02*
X112785714Y-79954819D01*
X112785714Y-79954819D02*
X112690476Y-79907200D01*
X112690476Y-79907200D02*
X112642857Y-79859580D01*
X192357142Y-45359580D02*
X192309523Y-45407200D01*
X192309523Y-45407200D02*
X192166666Y-45454819D01*
X192166666Y-45454819D02*
X192071428Y-45454819D01*
X192071428Y-45454819D02*
X191928571Y-45407200D01*
X191928571Y-45407200D02*
X191833333Y-45311961D01*
X191833333Y-45311961D02*
X191785714Y-45216723D01*
X191785714Y-45216723D02*
X191738095Y-45026247D01*
X191738095Y-45026247D02*
X191738095Y-44883390D01*
X191738095Y-44883390D02*
X191785714Y-44692914D01*
X191785714Y-44692914D02*
X191833333Y-44597676D01*
X191833333Y-44597676D02*
X191928571Y-44502438D01*
X191928571Y-44502438D02*
X192071428Y-44454819D01*
X192071428Y-44454819D02*
X192166666Y-44454819D01*
X192166666Y-44454819D02*
X192309523Y-44502438D01*
X192309523Y-44502438D02*
X192357142Y-44550057D01*
X192690476Y-44454819D02*
X193309523Y-44454819D01*
X193309523Y-44454819D02*
X192976190Y-44835771D01*
X192976190Y-44835771D02*
X193119047Y-44835771D01*
X193119047Y-44835771D02*
X193214285Y-44883390D01*
X193214285Y-44883390D02*
X193261904Y-44931009D01*
X193261904Y-44931009D02*
X193309523Y-45026247D01*
X193309523Y-45026247D02*
X193309523Y-45264342D01*
X193309523Y-45264342D02*
X193261904Y-45359580D01*
X193261904Y-45359580D02*
X193214285Y-45407200D01*
X193214285Y-45407200D02*
X193119047Y-45454819D01*
X193119047Y-45454819D02*
X192833333Y-45454819D01*
X192833333Y-45454819D02*
X192738095Y-45407200D01*
X192738095Y-45407200D02*
X192690476Y-45359580D01*
X194261904Y-45454819D02*
X193690476Y-45454819D01*
X193976190Y-45454819D02*
X193976190Y-44454819D01*
X193976190Y-44454819D02*
X193880952Y-44597676D01*
X193880952Y-44597676D02*
X193785714Y-44692914D01*
X193785714Y-44692914D02*
X193690476Y-44740533D01*
X195357142Y-63359580D02*
X195309523Y-63407200D01*
X195309523Y-63407200D02*
X195166666Y-63454819D01*
X195166666Y-63454819D02*
X195071428Y-63454819D01*
X195071428Y-63454819D02*
X194928571Y-63407200D01*
X194928571Y-63407200D02*
X194833333Y-63311961D01*
X194833333Y-63311961D02*
X194785714Y-63216723D01*
X194785714Y-63216723D02*
X194738095Y-63026247D01*
X194738095Y-63026247D02*
X194738095Y-62883390D01*
X194738095Y-62883390D02*
X194785714Y-62692914D01*
X194785714Y-62692914D02*
X194833333Y-62597676D01*
X194833333Y-62597676D02*
X194928571Y-62502438D01*
X194928571Y-62502438D02*
X195071428Y-62454819D01*
X195071428Y-62454819D02*
X195166666Y-62454819D01*
X195166666Y-62454819D02*
X195309523Y-62502438D01*
X195309523Y-62502438D02*
X195357142Y-62550057D01*
X195690476Y-62454819D02*
X196309523Y-62454819D01*
X196309523Y-62454819D02*
X195976190Y-62835771D01*
X195976190Y-62835771D02*
X196119047Y-62835771D01*
X196119047Y-62835771D02*
X196214285Y-62883390D01*
X196214285Y-62883390D02*
X196261904Y-62931009D01*
X196261904Y-62931009D02*
X196309523Y-63026247D01*
X196309523Y-63026247D02*
X196309523Y-63264342D01*
X196309523Y-63264342D02*
X196261904Y-63359580D01*
X196261904Y-63359580D02*
X196214285Y-63407200D01*
X196214285Y-63407200D02*
X196119047Y-63454819D01*
X196119047Y-63454819D02*
X195833333Y-63454819D01*
X195833333Y-63454819D02*
X195738095Y-63407200D01*
X195738095Y-63407200D02*
X195690476Y-63359580D01*
X197166666Y-62454819D02*
X196976190Y-62454819D01*
X196976190Y-62454819D02*
X196880952Y-62502438D01*
X196880952Y-62502438D02*
X196833333Y-62550057D01*
X196833333Y-62550057D02*
X196738095Y-62692914D01*
X196738095Y-62692914D02*
X196690476Y-62883390D01*
X196690476Y-62883390D02*
X196690476Y-63264342D01*
X196690476Y-63264342D02*
X196738095Y-63359580D01*
X196738095Y-63359580D02*
X196785714Y-63407200D01*
X196785714Y-63407200D02*
X196880952Y-63454819D01*
X196880952Y-63454819D02*
X197071428Y-63454819D01*
X197071428Y-63454819D02*
X197166666Y-63407200D01*
X197166666Y-63407200D02*
X197214285Y-63359580D01*
X197214285Y-63359580D02*
X197261904Y-63264342D01*
X197261904Y-63264342D02*
X197261904Y-63026247D01*
X197261904Y-63026247D02*
X197214285Y-62931009D01*
X197214285Y-62931009D02*
X197166666Y-62883390D01*
X197166666Y-62883390D02*
X197071428Y-62835771D01*
X197071428Y-62835771D02*
X196880952Y-62835771D01*
X196880952Y-62835771D02*
X196785714Y-62883390D01*
X196785714Y-62883390D02*
X196738095Y-62931009D01*
X196738095Y-62931009D02*
X196690476Y-63026247D01*
X114833333Y-61859580D02*
X114785714Y-61907200D01*
X114785714Y-61907200D02*
X114642857Y-61954819D01*
X114642857Y-61954819D02*
X114547619Y-61954819D01*
X114547619Y-61954819D02*
X114404762Y-61907200D01*
X114404762Y-61907200D02*
X114309524Y-61811961D01*
X114309524Y-61811961D02*
X114261905Y-61716723D01*
X114261905Y-61716723D02*
X114214286Y-61526247D01*
X114214286Y-61526247D02*
X114214286Y-61383390D01*
X114214286Y-61383390D02*
X114261905Y-61192914D01*
X114261905Y-61192914D02*
X114309524Y-61097676D01*
X114309524Y-61097676D02*
X114404762Y-61002438D01*
X114404762Y-61002438D02*
X114547619Y-60954819D01*
X114547619Y-60954819D02*
X114642857Y-60954819D01*
X114642857Y-60954819D02*
X114785714Y-61002438D01*
X114785714Y-61002438D02*
X114833333Y-61050057D01*
X115690476Y-60954819D02*
X115500000Y-60954819D01*
X115500000Y-60954819D02*
X115404762Y-61002438D01*
X115404762Y-61002438D02*
X115357143Y-61050057D01*
X115357143Y-61050057D02*
X115261905Y-61192914D01*
X115261905Y-61192914D02*
X115214286Y-61383390D01*
X115214286Y-61383390D02*
X115214286Y-61764342D01*
X115214286Y-61764342D02*
X115261905Y-61859580D01*
X115261905Y-61859580D02*
X115309524Y-61907200D01*
X115309524Y-61907200D02*
X115404762Y-61954819D01*
X115404762Y-61954819D02*
X115595238Y-61954819D01*
X115595238Y-61954819D02*
X115690476Y-61907200D01*
X115690476Y-61907200D02*
X115738095Y-61859580D01*
X115738095Y-61859580D02*
X115785714Y-61764342D01*
X115785714Y-61764342D02*
X115785714Y-61526247D01*
X115785714Y-61526247D02*
X115738095Y-61431009D01*
X115738095Y-61431009D02*
X115690476Y-61383390D01*
X115690476Y-61383390D02*
X115595238Y-61335771D01*
X115595238Y-61335771D02*
X115404762Y-61335771D01*
X115404762Y-61335771D02*
X115309524Y-61383390D01*
X115309524Y-61383390D02*
X115261905Y-61431009D01*
X115261905Y-61431009D02*
X115214286Y-61526247D01*
X186357142Y-61859580D02*
X186309523Y-61907200D01*
X186309523Y-61907200D02*
X186166666Y-61954819D01*
X186166666Y-61954819D02*
X186071428Y-61954819D01*
X186071428Y-61954819D02*
X185928571Y-61907200D01*
X185928571Y-61907200D02*
X185833333Y-61811961D01*
X185833333Y-61811961D02*
X185785714Y-61716723D01*
X185785714Y-61716723D02*
X185738095Y-61526247D01*
X185738095Y-61526247D02*
X185738095Y-61383390D01*
X185738095Y-61383390D02*
X185785714Y-61192914D01*
X185785714Y-61192914D02*
X185833333Y-61097676D01*
X185833333Y-61097676D02*
X185928571Y-61002438D01*
X185928571Y-61002438D02*
X186071428Y-60954819D01*
X186071428Y-60954819D02*
X186166666Y-60954819D01*
X186166666Y-60954819D02*
X186309523Y-61002438D01*
X186309523Y-61002438D02*
X186357142Y-61050057D01*
X186690476Y-60954819D02*
X187309523Y-60954819D01*
X187309523Y-60954819D02*
X186976190Y-61335771D01*
X186976190Y-61335771D02*
X187119047Y-61335771D01*
X187119047Y-61335771D02*
X187214285Y-61383390D01*
X187214285Y-61383390D02*
X187261904Y-61431009D01*
X187261904Y-61431009D02*
X187309523Y-61526247D01*
X187309523Y-61526247D02*
X187309523Y-61764342D01*
X187309523Y-61764342D02*
X187261904Y-61859580D01*
X187261904Y-61859580D02*
X187214285Y-61907200D01*
X187214285Y-61907200D02*
X187119047Y-61954819D01*
X187119047Y-61954819D02*
X186833333Y-61954819D01*
X186833333Y-61954819D02*
X186738095Y-61907200D01*
X186738095Y-61907200D02*
X186690476Y-61859580D01*
X187928571Y-60954819D02*
X188023809Y-60954819D01*
X188023809Y-60954819D02*
X188119047Y-61002438D01*
X188119047Y-61002438D02*
X188166666Y-61050057D01*
X188166666Y-61050057D02*
X188214285Y-61145295D01*
X188214285Y-61145295D02*
X188261904Y-61335771D01*
X188261904Y-61335771D02*
X188261904Y-61573866D01*
X188261904Y-61573866D02*
X188214285Y-61764342D01*
X188214285Y-61764342D02*
X188166666Y-61859580D01*
X188166666Y-61859580D02*
X188119047Y-61907200D01*
X188119047Y-61907200D02*
X188023809Y-61954819D01*
X188023809Y-61954819D02*
X187928571Y-61954819D01*
X187928571Y-61954819D02*
X187833333Y-61907200D01*
X187833333Y-61907200D02*
X187785714Y-61859580D01*
X187785714Y-61859580D02*
X187738095Y-61764342D01*
X187738095Y-61764342D02*
X187690476Y-61573866D01*
X187690476Y-61573866D02*
X187690476Y-61335771D01*
X187690476Y-61335771D02*
X187738095Y-61145295D01*
X187738095Y-61145295D02*
X187785714Y-61050057D01*
X187785714Y-61050057D02*
X187833333Y-61002438D01*
X187833333Y-61002438D02*
X187928571Y-60954819D01*
X138357142Y-45359580D02*
X138309523Y-45407200D01*
X138309523Y-45407200D02*
X138166666Y-45454819D01*
X138166666Y-45454819D02*
X138071428Y-45454819D01*
X138071428Y-45454819D02*
X137928571Y-45407200D01*
X137928571Y-45407200D02*
X137833333Y-45311961D01*
X137833333Y-45311961D02*
X137785714Y-45216723D01*
X137785714Y-45216723D02*
X137738095Y-45026247D01*
X137738095Y-45026247D02*
X137738095Y-44883390D01*
X137738095Y-44883390D02*
X137785714Y-44692914D01*
X137785714Y-44692914D02*
X137833333Y-44597676D01*
X137833333Y-44597676D02*
X137928571Y-44502438D01*
X137928571Y-44502438D02*
X138071428Y-44454819D01*
X138071428Y-44454819D02*
X138166666Y-44454819D01*
X138166666Y-44454819D02*
X138309523Y-44502438D01*
X138309523Y-44502438D02*
X138357142Y-44550057D01*
X139309523Y-45454819D02*
X138738095Y-45454819D01*
X139023809Y-45454819D02*
X139023809Y-44454819D01*
X139023809Y-44454819D02*
X138928571Y-44597676D01*
X138928571Y-44597676D02*
X138833333Y-44692914D01*
X138833333Y-44692914D02*
X138738095Y-44740533D01*
X139642857Y-44454819D02*
X140261904Y-44454819D01*
X140261904Y-44454819D02*
X139928571Y-44835771D01*
X139928571Y-44835771D02*
X140071428Y-44835771D01*
X140071428Y-44835771D02*
X140166666Y-44883390D01*
X140166666Y-44883390D02*
X140214285Y-44931009D01*
X140214285Y-44931009D02*
X140261904Y-45026247D01*
X140261904Y-45026247D02*
X140261904Y-45264342D01*
X140261904Y-45264342D02*
X140214285Y-45359580D01*
X140214285Y-45359580D02*
X140166666Y-45407200D01*
X140166666Y-45407200D02*
X140071428Y-45454819D01*
X140071428Y-45454819D02*
X139785714Y-45454819D01*
X139785714Y-45454819D02*
X139690476Y-45407200D01*
X139690476Y-45407200D02*
X139642857Y-45359580D01*
X102833333Y-45359580D02*
X102785714Y-45407200D01*
X102785714Y-45407200D02*
X102642857Y-45454819D01*
X102642857Y-45454819D02*
X102547619Y-45454819D01*
X102547619Y-45454819D02*
X102404762Y-45407200D01*
X102404762Y-45407200D02*
X102309524Y-45311961D01*
X102309524Y-45311961D02*
X102261905Y-45216723D01*
X102261905Y-45216723D02*
X102214286Y-45026247D01*
X102214286Y-45026247D02*
X102214286Y-44883390D01*
X102214286Y-44883390D02*
X102261905Y-44692914D01*
X102261905Y-44692914D02*
X102309524Y-44597676D01*
X102309524Y-44597676D02*
X102404762Y-44502438D01*
X102404762Y-44502438D02*
X102547619Y-44454819D01*
X102547619Y-44454819D02*
X102642857Y-44454819D01*
X102642857Y-44454819D02*
X102785714Y-44502438D01*
X102785714Y-44502438D02*
X102833333Y-44550057D01*
X103785714Y-45454819D02*
X103214286Y-45454819D01*
X103500000Y-45454819D02*
X103500000Y-44454819D01*
X103500000Y-44454819D02*
X103404762Y-44597676D01*
X103404762Y-44597676D02*
X103309524Y-44692914D01*
X103309524Y-44692914D02*
X103214286Y-44740533D01*
X144357142Y-45359580D02*
X144309523Y-45407200D01*
X144309523Y-45407200D02*
X144166666Y-45454819D01*
X144166666Y-45454819D02*
X144071428Y-45454819D01*
X144071428Y-45454819D02*
X143928571Y-45407200D01*
X143928571Y-45407200D02*
X143833333Y-45311961D01*
X143833333Y-45311961D02*
X143785714Y-45216723D01*
X143785714Y-45216723D02*
X143738095Y-45026247D01*
X143738095Y-45026247D02*
X143738095Y-44883390D01*
X143738095Y-44883390D02*
X143785714Y-44692914D01*
X143785714Y-44692914D02*
X143833333Y-44597676D01*
X143833333Y-44597676D02*
X143928571Y-44502438D01*
X143928571Y-44502438D02*
X144071428Y-44454819D01*
X144071428Y-44454819D02*
X144166666Y-44454819D01*
X144166666Y-44454819D02*
X144309523Y-44502438D01*
X144309523Y-44502438D02*
X144357142Y-44550057D01*
X145309523Y-45454819D02*
X144738095Y-45454819D01*
X145023809Y-45454819D02*
X145023809Y-44454819D01*
X145023809Y-44454819D02*
X144928571Y-44597676D01*
X144928571Y-44597676D02*
X144833333Y-44692914D01*
X144833333Y-44692914D02*
X144738095Y-44740533D01*
X146214285Y-44454819D02*
X145738095Y-44454819D01*
X145738095Y-44454819D02*
X145690476Y-44931009D01*
X145690476Y-44931009D02*
X145738095Y-44883390D01*
X145738095Y-44883390D02*
X145833333Y-44835771D01*
X145833333Y-44835771D02*
X146071428Y-44835771D01*
X146071428Y-44835771D02*
X146166666Y-44883390D01*
X146166666Y-44883390D02*
X146214285Y-44931009D01*
X146214285Y-44931009D02*
X146261904Y-45026247D01*
X146261904Y-45026247D02*
X146261904Y-45264342D01*
X146261904Y-45264342D02*
X146214285Y-45359580D01*
X146214285Y-45359580D02*
X146166666Y-45407200D01*
X146166666Y-45407200D02*
X146071428Y-45454819D01*
X146071428Y-45454819D02*
X145833333Y-45454819D01*
X145833333Y-45454819D02*
X145738095Y-45407200D01*
X145738095Y-45407200D02*
X145690476Y-45359580D01*
X171357142Y-63359580D02*
X171309523Y-63407200D01*
X171309523Y-63407200D02*
X171166666Y-63454819D01*
X171166666Y-63454819D02*
X171071428Y-63454819D01*
X171071428Y-63454819D02*
X170928571Y-63407200D01*
X170928571Y-63407200D02*
X170833333Y-63311961D01*
X170833333Y-63311961D02*
X170785714Y-63216723D01*
X170785714Y-63216723D02*
X170738095Y-63026247D01*
X170738095Y-63026247D02*
X170738095Y-62883390D01*
X170738095Y-62883390D02*
X170785714Y-62692914D01*
X170785714Y-62692914D02*
X170833333Y-62597676D01*
X170833333Y-62597676D02*
X170928571Y-62502438D01*
X170928571Y-62502438D02*
X171071428Y-62454819D01*
X171071428Y-62454819D02*
X171166666Y-62454819D01*
X171166666Y-62454819D02*
X171309523Y-62502438D01*
X171309523Y-62502438D02*
X171357142Y-62550057D01*
X172214285Y-62788152D02*
X172214285Y-63454819D01*
X171976190Y-62407200D02*
X171738095Y-63121485D01*
X171738095Y-63121485D02*
X172357142Y-63121485D01*
X173166666Y-62788152D02*
X173166666Y-63454819D01*
X172928571Y-62407200D02*
X172690476Y-63121485D01*
X172690476Y-63121485D02*
X173309523Y-63121485D01*
X174357142Y-45359580D02*
X174309523Y-45407200D01*
X174309523Y-45407200D02*
X174166666Y-45454819D01*
X174166666Y-45454819D02*
X174071428Y-45454819D01*
X174071428Y-45454819D02*
X173928571Y-45407200D01*
X173928571Y-45407200D02*
X173833333Y-45311961D01*
X173833333Y-45311961D02*
X173785714Y-45216723D01*
X173785714Y-45216723D02*
X173738095Y-45026247D01*
X173738095Y-45026247D02*
X173738095Y-44883390D01*
X173738095Y-44883390D02*
X173785714Y-44692914D01*
X173785714Y-44692914D02*
X173833333Y-44597676D01*
X173833333Y-44597676D02*
X173928571Y-44502438D01*
X173928571Y-44502438D02*
X174071428Y-44454819D01*
X174071428Y-44454819D02*
X174166666Y-44454819D01*
X174166666Y-44454819D02*
X174309523Y-44502438D01*
X174309523Y-44502438D02*
X174357142Y-44550057D01*
X174738095Y-44550057D02*
X174785714Y-44502438D01*
X174785714Y-44502438D02*
X174880952Y-44454819D01*
X174880952Y-44454819D02*
X175119047Y-44454819D01*
X175119047Y-44454819D02*
X175214285Y-44502438D01*
X175214285Y-44502438D02*
X175261904Y-44550057D01*
X175261904Y-44550057D02*
X175309523Y-44645295D01*
X175309523Y-44645295D02*
X175309523Y-44740533D01*
X175309523Y-44740533D02*
X175261904Y-44883390D01*
X175261904Y-44883390D02*
X174690476Y-45454819D01*
X174690476Y-45454819D02*
X175309523Y-45454819D01*
X176214285Y-44454819D02*
X175738095Y-44454819D01*
X175738095Y-44454819D02*
X175690476Y-44931009D01*
X175690476Y-44931009D02*
X175738095Y-44883390D01*
X175738095Y-44883390D02*
X175833333Y-44835771D01*
X175833333Y-44835771D02*
X176071428Y-44835771D01*
X176071428Y-44835771D02*
X176166666Y-44883390D01*
X176166666Y-44883390D02*
X176214285Y-44931009D01*
X176214285Y-44931009D02*
X176261904Y-45026247D01*
X176261904Y-45026247D02*
X176261904Y-45264342D01*
X176261904Y-45264342D02*
X176214285Y-45359580D01*
X176214285Y-45359580D02*
X176166666Y-45407200D01*
X176166666Y-45407200D02*
X176071428Y-45454819D01*
X176071428Y-45454819D02*
X175833333Y-45454819D01*
X175833333Y-45454819D02*
X175738095Y-45407200D01*
X175738095Y-45407200D02*
X175690476Y-45359580D01*
X123357142Y-79859580D02*
X123309523Y-79907200D01*
X123309523Y-79907200D02*
X123166666Y-79954819D01*
X123166666Y-79954819D02*
X123071428Y-79954819D01*
X123071428Y-79954819D02*
X122928571Y-79907200D01*
X122928571Y-79907200D02*
X122833333Y-79811961D01*
X122833333Y-79811961D02*
X122785714Y-79716723D01*
X122785714Y-79716723D02*
X122738095Y-79526247D01*
X122738095Y-79526247D02*
X122738095Y-79383390D01*
X122738095Y-79383390D02*
X122785714Y-79192914D01*
X122785714Y-79192914D02*
X122833333Y-79097676D01*
X122833333Y-79097676D02*
X122928571Y-79002438D01*
X122928571Y-79002438D02*
X123071428Y-78954819D01*
X123071428Y-78954819D02*
X123166666Y-78954819D01*
X123166666Y-78954819D02*
X123309523Y-79002438D01*
X123309523Y-79002438D02*
X123357142Y-79050057D01*
X124261904Y-78954819D02*
X123785714Y-78954819D01*
X123785714Y-78954819D02*
X123738095Y-79431009D01*
X123738095Y-79431009D02*
X123785714Y-79383390D01*
X123785714Y-79383390D02*
X123880952Y-79335771D01*
X123880952Y-79335771D02*
X124119047Y-79335771D01*
X124119047Y-79335771D02*
X124214285Y-79383390D01*
X124214285Y-79383390D02*
X124261904Y-79431009D01*
X124261904Y-79431009D02*
X124309523Y-79526247D01*
X124309523Y-79526247D02*
X124309523Y-79764342D01*
X124309523Y-79764342D02*
X124261904Y-79859580D01*
X124261904Y-79859580D02*
X124214285Y-79907200D01*
X124214285Y-79907200D02*
X124119047Y-79954819D01*
X124119047Y-79954819D02*
X123880952Y-79954819D01*
X123880952Y-79954819D02*
X123785714Y-79907200D01*
X123785714Y-79907200D02*
X123738095Y-79859580D01*
X124785714Y-79954819D02*
X124976190Y-79954819D01*
X124976190Y-79954819D02*
X125071428Y-79907200D01*
X125071428Y-79907200D02*
X125119047Y-79859580D01*
X125119047Y-79859580D02*
X125214285Y-79716723D01*
X125214285Y-79716723D02*
X125261904Y-79526247D01*
X125261904Y-79526247D02*
X125261904Y-79145295D01*
X125261904Y-79145295D02*
X125214285Y-79050057D01*
X125214285Y-79050057D02*
X125166666Y-79002438D01*
X125166666Y-79002438D02*
X125071428Y-78954819D01*
X125071428Y-78954819D02*
X124880952Y-78954819D01*
X124880952Y-78954819D02*
X124785714Y-79002438D01*
X124785714Y-79002438D02*
X124738095Y-79050057D01*
X124738095Y-79050057D02*
X124690476Y-79145295D01*
X124690476Y-79145295D02*
X124690476Y-79383390D01*
X124690476Y-79383390D02*
X124738095Y-79478628D01*
X124738095Y-79478628D02*
X124785714Y-79526247D01*
X124785714Y-79526247D02*
X124880952Y-79573866D01*
X124880952Y-79573866D02*
X125071428Y-79573866D01*
X125071428Y-79573866D02*
X125166666Y-79526247D01*
X125166666Y-79526247D02*
X125214285Y-79478628D01*
X125214285Y-79478628D02*
X125261904Y-79383390D01*
X135357142Y-63359580D02*
X135309523Y-63407200D01*
X135309523Y-63407200D02*
X135166666Y-63454819D01*
X135166666Y-63454819D02*
X135071428Y-63454819D01*
X135071428Y-63454819D02*
X134928571Y-63407200D01*
X134928571Y-63407200D02*
X134833333Y-63311961D01*
X134833333Y-63311961D02*
X134785714Y-63216723D01*
X134785714Y-63216723D02*
X134738095Y-63026247D01*
X134738095Y-63026247D02*
X134738095Y-62883390D01*
X134738095Y-62883390D02*
X134785714Y-62692914D01*
X134785714Y-62692914D02*
X134833333Y-62597676D01*
X134833333Y-62597676D02*
X134928571Y-62502438D01*
X134928571Y-62502438D02*
X135071428Y-62454819D01*
X135071428Y-62454819D02*
X135166666Y-62454819D01*
X135166666Y-62454819D02*
X135309523Y-62502438D01*
X135309523Y-62502438D02*
X135357142Y-62550057D01*
X136261904Y-62454819D02*
X135785714Y-62454819D01*
X135785714Y-62454819D02*
X135738095Y-62931009D01*
X135738095Y-62931009D02*
X135785714Y-62883390D01*
X135785714Y-62883390D02*
X135880952Y-62835771D01*
X135880952Y-62835771D02*
X136119047Y-62835771D01*
X136119047Y-62835771D02*
X136214285Y-62883390D01*
X136214285Y-62883390D02*
X136261904Y-62931009D01*
X136261904Y-62931009D02*
X136309523Y-63026247D01*
X136309523Y-63026247D02*
X136309523Y-63264342D01*
X136309523Y-63264342D02*
X136261904Y-63359580D01*
X136261904Y-63359580D02*
X136214285Y-63407200D01*
X136214285Y-63407200D02*
X136119047Y-63454819D01*
X136119047Y-63454819D02*
X135880952Y-63454819D01*
X135880952Y-63454819D02*
X135785714Y-63407200D01*
X135785714Y-63407200D02*
X135738095Y-63359580D01*
X137166666Y-62454819D02*
X136976190Y-62454819D01*
X136976190Y-62454819D02*
X136880952Y-62502438D01*
X136880952Y-62502438D02*
X136833333Y-62550057D01*
X136833333Y-62550057D02*
X136738095Y-62692914D01*
X136738095Y-62692914D02*
X136690476Y-62883390D01*
X136690476Y-62883390D02*
X136690476Y-63264342D01*
X136690476Y-63264342D02*
X136738095Y-63359580D01*
X136738095Y-63359580D02*
X136785714Y-63407200D01*
X136785714Y-63407200D02*
X136880952Y-63454819D01*
X136880952Y-63454819D02*
X137071428Y-63454819D01*
X137071428Y-63454819D02*
X137166666Y-63407200D01*
X137166666Y-63407200D02*
X137214285Y-63359580D01*
X137214285Y-63359580D02*
X137261904Y-63264342D01*
X137261904Y-63264342D02*
X137261904Y-63026247D01*
X137261904Y-63026247D02*
X137214285Y-62931009D01*
X137214285Y-62931009D02*
X137166666Y-62883390D01*
X137166666Y-62883390D02*
X137071428Y-62835771D01*
X137071428Y-62835771D02*
X136880952Y-62835771D01*
X136880952Y-62835771D02*
X136785714Y-62883390D01*
X136785714Y-62883390D02*
X136738095Y-62931009D01*
X136738095Y-62931009D02*
X136690476Y-63026247D01*
X129357142Y-79859580D02*
X129309523Y-79907200D01*
X129309523Y-79907200D02*
X129166666Y-79954819D01*
X129166666Y-79954819D02*
X129071428Y-79954819D01*
X129071428Y-79954819D02*
X128928571Y-79907200D01*
X128928571Y-79907200D02*
X128833333Y-79811961D01*
X128833333Y-79811961D02*
X128785714Y-79716723D01*
X128785714Y-79716723D02*
X128738095Y-79526247D01*
X128738095Y-79526247D02*
X128738095Y-79383390D01*
X128738095Y-79383390D02*
X128785714Y-79192914D01*
X128785714Y-79192914D02*
X128833333Y-79097676D01*
X128833333Y-79097676D02*
X128928571Y-79002438D01*
X128928571Y-79002438D02*
X129071428Y-78954819D01*
X129071428Y-78954819D02*
X129166666Y-78954819D01*
X129166666Y-78954819D02*
X129309523Y-79002438D01*
X129309523Y-79002438D02*
X129357142Y-79050057D01*
X130261904Y-78954819D02*
X129785714Y-78954819D01*
X129785714Y-78954819D02*
X129738095Y-79431009D01*
X129738095Y-79431009D02*
X129785714Y-79383390D01*
X129785714Y-79383390D02*
X129880952Y-79335771D01*
X129880952Y-79335771D02*
X130119047Y-79335771D01*
X130119047Y-79335771D02*
X130214285Y-79383390D01*
X130214285Y-79383390D02*
X130261904Y-79431009D01*
X130261904Y-79431009D02*
X130309523Y-79526247D01*
X130309523Y-79526247D02*
X130309523Y-79764342D01*
X130309523Y-79764342D02*
X130261904Y-79859580D01*
X130261904Y-79859580D02*
X130214285Y-79907200D01*
X130214285Y-79907200D02*
X130119047Y-79954819D01*
X130119047Y-79954819D02*
X129880952Y-79954819D01*
X129880952Y-79954819D02*
X129785714Y-79907200D01*
X129785714Y-79907200D02*
X129738095Y-79859580D01*
X130642857Y-78954819D02*
X131309523Y-78954819D01*
X131309523Y-78954819D02*
X130880952Y-79954819D01*
X156357142Y-61859580D02*
X156309523Y-61907200D01*
X156309523Y-61907200D02*
X156166666Y-61954819D01*
X156166666Y-61954819D02*
X156071428Y-61954819D01*
X156071428Y-61954819D02*
X155928571Y-61907200D01*
X155928571Y-61907200D02*
X155833333Y-61811961D01*
X155833333Y-61811961D02*
X155785714Y-61716723D01*
X155785714Y-61716723D02*
X155738095Y-61526247D01*
X155738095Y-61526247D02*
X155738095Y-61383390D01*
X155738095Y-61383390D02*
X155785714Y-61192914D01*
X155785714Y-61192914D02*
X155833333Y-61097676D01*
X155833333Y-61097676D02*
X155928571Y-61002438D01*
X155928571Y-61002438D02*
X156071428Y-60954819D01*
X156071428Y-60954819D02*
X156166666Y-60954819D01*
X156166666Y-60954819D02*
X156309523Y-61002438D01*
X156309523Y-61002438D02*
X156357142Y-61050057D01*
X156738095Y-61050057D02*
X156785714Y-61002438D01*
X156785714Y-61002438D02*
X156880952Y-60954819D01*
X156880952Y-60954819D02*
X157119047Y-60954819D01*
X157119047Y-60954819D02*
X157214285Y-61002438D01*
X157214285Y-61002438D02*
X157261904Y-61050057D01*
X157261904Y-61050057D02*
X157309523Y-61145295D01*
X157309523Y-61145295D02*
X157309523Y-61240533D01*
X157309523Y-61240533D02*
X157261904Y-61383390D01*
X157261904Y-61383390D02*
X156690476Y-61954819D01*
X156690476Y-61954819D02*
X157309523Y-61954819D01*
X157928571Y-60954819D02*
X158023809Y-60954819D01*
X158023809Y-60954819D02*
X158119047Y-61002438D01*
X158119047Y-61002438D02*
X158166666Y-61050057D01*
X158166666Y-61050057D02*
X158214285Y-61145295D01*
X158214285Y-61145295D02*
X158261904Y-61335771D01*
X158261904Y-61335771D02*
X158261904Y-61573866D01*
X158261904Y-61573866D02*
X158214285Y-61764342D01*
X158214285Y-61764342D02*
X158166666Y-61859580D01*
X158166666Y-61859580D02*
X158119047Y-61907200D01*
X158119047Y-61907200D02*
X158023809Y-61954819D01*
X158023809Y-61954819D02*
X157928571Y-61954819D01*
X157928571Y-61954819D02*
X157833333Y-61907200D01*
X157833333Y-61907200D02*
X157785714Y-61859580D01*
X157785714Y-61859580D02*
X157738095Y-61764342D01*
X157738095Y-61764342D02*
X157690476Y-61573866D01*
X157690476Y-61573866D02*
X157690476Y-61335771D01*
X157690476Y-61335771D02*
X157738095Y-61145295D01*
X157738095Y-61145295D02*
X157785714Y-61050057D01*
X157785714Y-61050057D02*
X157833333Y-61002438D01*
X157833333Y-61002438D02*
X157928571Y-60954819D01*
X165357142Y-79859580D02*
X165309523Y-79907200D01*
X165309523Y-79907200D02*
X165166666Y-79954819D01*
X165166666Y-79954819D02*
X165071428Y-79954819D01*
X165071428Y-79954819D02*
X164928571Y-79907200D01*
X164928571Y-79907200D02*
X164833333Y-79811961D01*
X164833333Y-79811961D02*
X164785714Y-79716723D01*
X164785714Y-79716723D02*
X164738095Y-79526247D01*
X164738095Y-79526247D02*
X164738095Y-79383390D01*
X164738095Y-79383390D02*
X164785714Y-79192914D01*
X164785714Y-79192914D02*
X164833333Y-79097676D01*
X164833333Y-79097676D02*
X164928571Y-79002438D01*
X164928571Y-79002438D02*
X165071428Y-78954819D01*
X165071428Y-78954819D02*
X165166666Y-78954819D01*
X165166666Y-78954819D02*
X165309523Y-79002438D01*
X165309523Y-79002438D02*
X165357142Y-79050057D01*
X166214285Y-79288152D02*
X166214285Y-79954819D01*
X165976190Y-78907200D02*
X165738095Y-79621485D01*
X165738095Y-79621485D02*
X166357142Y-79621485D01*
X167214285Y-78954819D02*
X166738095Y-78954819D01*
X166738095Y-78954819D02*
X166690476Y-79431009D01*
X166690476Y-79431009D02*
X166738095Y-79383390D01*
X166738095Y-79383390D02*
X166833333Y-79335771D01*
X166833333Y-79335771D02*
X167071428Y-79335771D01*
X167071428Y-79335771D02*
X167166666Y-79383390D01*
X167166666Y-79383390D02*
X167214285Y-79431009D01*
X167214285Y-79431009D02*
X167261904Y-79526247D01*
X167261904Y-79526247D02*
X167261904Y-79764342D01*
X167261904Y-79764342D02*
X167214285Y-79859580D01*
X167214285Y-79859580D02*
X167166666Y-79907200D01*
X167166666Y-79907200D02*
X167071428Y-79954819D01*
X167071428Y-79954819D02*
X166833333Y-79954819D01*
X166833333Y-79954819D02*
X166738095Y-79907200D01*
X166738095Y-79907200D02*
X166690476Y-79859580D01*
X132357142Y-45359580D02*
X132309523Y-45407200D01*
X132309523Y-45407200D02*
X132166666Y-45454819D01*
X132166666Y-45454819D02*
X132071428Y-45454819D01*
X132071428Y-45454819D02*
X131928571Y-45407200D01*
X131928571Y-45407200D02*
X131833333Y-45311961D01*
X131833333Y-45311961D02*
X131785714Y-45216723D01*
X131785714Y-45216723D02*
X131738095Y-45026247D01*
X131738095Y-45026247D02*
X131738095Y-44883390D01*
X131738095Y-44883390D02*
X131785714Y-44692914D01*
X131785714Y-44692914D02*
X131833333Y-44597676D01*
X131833333Y-44597676D02*
X131928571Y-44502438D01*
X131928571Y-44502438D02*
X132071428Y-44454819D01*
X132071428Y-44454819D02*
X132166666Y-44454819D01*
X132166666Y-44454819D02*
X132309523Y-44502438D01*
X132309523Y-44502438D02*
X132357142Y-44550057D01*
X133309523Y-45454819D02*
X132738095Y-45454819D01*
X133023809Y-45454819D02*
X133023809Y-44454819D01*
X133023809Y-44454819D02*
X132928571Y-44597676D01*
X132928571Y-44597676D02*
X132833333Y-44692914D01*
X132833333Y-44692914D02*
X132738095Y-44740533D01*
X134261904Y-45454819D02*
X133690476Y-45454819D01*
X133976190Y-45454819D02*
X133976190Y-44454819D01*
X133976190Y-44454819D02*
X133880952Y-44597676D01*
X133880952Y-44597676D02*
X133785714Y-44692914D01*
X133785714Y-44692914D02*
X133690476Y-44740533D01*
X198357142Y-61859580D02*
X198309523Y-61907200D01*
X198309523Y-61907200D02*
X198166666Y-61954819D01*
X198166666Y-61954819D02*
X198071428Y-61954819D01*
X198071428Y-61954819D02*
X197928571Y-61907200D01*
X197928571Y-61907200D02*
X197833333Y-61811961D01*
X197833333Y-61811961D02*
X197785714Y-61716723D01*
X197785714Y-61716723D02*
X197738095Y-61526247D01*
X197738095Y-61526247D02*
X197738095Y-61383390D01*
X197738095Y-61383390D02*
X197785714Y-61192914D01*
X197785714Y-61192914D02*
X197833333Y-61097676D01*
X197833333Y-61097676D02*
X197928571Y-61002438D01*
X197928571Y-61002438D02*
X198071428Y-60954819D01*
X198071428Y-60954819D02*
X198166666Y-60954819D01*
X198166666Y-60954819D02*
X198309523Y-61002438D01*
X198309523Y-61002438D02*
X198357142Y-61050057D01*
X198690476Y-60954819D02*
X199309523Y-60954819D01*
X199309523Y-60954819D02*
X198976190Y-61335771D01*
X198976190Y-61335771D02*
X199119047Y-61335771D01*
X199119047Y-61335771D02*
X199214285Y-61383390D01*
X199214285Y-61383390D02*
X199261904Y-61431009D01*
X199261904Y-61431009D02*
X199309523Y-61526247D01*
X199309523Y-61526247D02*
X199309523Y-61764342D01*
X199309523Y-61764342D02*
X199261904Y-61859580D01*
X199261904Y-61859580D02*
X199214285Y-61907200D01*
X199214285Y-61907200D02*
X199119047Y-61954819D01*
X199119047Y-61954819D02*
X198833333Y-61954819D01*
X198833333Y-61954819D02*
X198738095Y-61907200D01*
X198738095Y-61907200D02*
X198690476Y-61859580D01*
X200166666Y-61288152D02*
X200166666Y-61954819D01*
X199928571Y-60907200D02*
X199690476Y-61621485D01*
X199690476Y-61621485D02*
X200309523Y-61621485D01*
X153357142Y-63359580D02*
X153309523Y-63407200D01*
X153309523Y-63407200D02*
X153166666Y-63454819D01*
X153166666Y-63454819D02*
X153071428Y-63454819D01*
X153071428Y-63454819D02*
X152928571Y-63407200D01*
X152928571Y-63407200D02*
X152833333Y-63311961D01*
X152833333Y-63311961D02*
X152785714Y-63216723D01*
X152785714Y-63216723D02*
X152738095Y-63026247D01*
X152738095Y-63026247D02*
X152738095Y-62883390D01*
X152738095Y-62883390D02*
X152785714Y-62692914D01*
X152785714Y-62692914D02*
X152833333Y-62597676D01*
X152833333Y-62597676D02*
X152928571Y-62502438D01*
X152928571Y-62502438D02*
X153071428Y-62454819D01*
X153071428Y-62454819D02*
X153166666Y-62454819D01*
X153166666Y-62454819D02*
X153309523Y-62502438D01*
X153309523Y-62502438D02*
X153357142Y-62550057D01*
X154261904Y-62454819D02*
X153785714Y-62454819D01*
X153785714Y-62454819D02*
X153738095Y-62931009D01*
X153738095Y-62931009D02*
X153785714Y-62883390D01*
X153785714Y-62883390D02*
X153880952Y-62835771D01*
X153880952Y-62835771D02*
X154119047Y-62835771D01*
X154119047Y-62835771D02*
X154214285Y-62883390D01*
X154214285Y-62883390D02*
X154261904Y-62931009D01*
X154261904Y-62931009D02*
X154309523Y-63026247D01*
X154309523Y-63026247D02*
X154309523Y-63264342D01*
X154309523Y-63264342D02*
X154261904Y-63359580D01*
X154261904Y-63359580D02*
X154214285Y-63407200D01*
X154214285Y-63407200D02*
X154119047Y-63454819D01*
X154119047Y-63454819D02*
X153880952Y-63454819D01*
X153880952Y-63454819D02*
X153785714Y-63407200D01*
X153785714Y-63407200D02*
X153738095Y-63359580D01*
X154928571Y-62454819D02*
X155023809Y-62454819D01*
X155023809Y-62454819D02*
X155119047Y-62502438D01*
X155119047Y-62502438D02*
X155166666Y-62550057D01*
X155166666Y-62550057D02*
X155214285Y-62645295D01*
X155214285Y-62645295D02*
X155261904Y-62835771D01*
X155261904Y-62835771D02*
X155261904Y-63073866D01*
X155261904Y-63073866D02*
X155214285Y-63264342D01*
X155214285Y-63264342D02*
X155166666Y-63359580D01*
X155166666Y-63359580D02*
X155119047Y-63407200D01*
X155119047Y-63407200D02*
X155023809Y-63454819D01*
X155023809Y-63454819D02*
X154928571Y-63454819D01*
X154928571Y-63454819D02*
X154833333Y-63407200D01*
X154833333Y-63407200D02*
X154785714Y-63359580D01*
X154785714Y-63359580D02*
X154738095Y-63264342D01*
X154738095Y-63264342D02*
X154690476Y-63073866D01*
X154690476Y-63073866D02*
X154690476Y-62835771D01*
X154690476Y-62835771D02*
X154738095Y-62645295D01*
X154738095Y-62645295D02*
X154785714Y-62550057D01*
X154785714Y-62550057D02*
X154833333Y-62502438D01*
X154833333Y-62502438D02*
X154928571Y-62454819D01*
X117357142Y-79859580D02*
X117309523Y-79907200D01*
X117309523Y-79907200D02*
X117166666Y-79954819D01*
X117166666Y-79954819D02*
X117071428Y-79954819D01*
X117071428Y-79954819D02*
X116928571Y-79907200D01*
X116928571Y-79907200D02*
X116833333Y-79811961D01*
X116833333Y-79811961D02*
X116785714Y-79716723D01*
X116785714Y-79716723D02*
X116738095Y-79526247D01*
X116738095Y-79526247D02*
X116738095Y-79383390D01*
X116738095Y-79383390D02*
X116785714Y-79192914D01*
X116785714Y-79192914D02*
X116833333Y-79097676D01*
X116833333Y-79097676D02*
X116928571Y-79002438D01*
X116928571Y-79002438D02*
X117071428Y-78954819D01*
X117071428Y-78954819D02*
X117166666Y-78954819D01*
X117166666Y-78954819D02*
X117309523Y-79002438D01*
X117309523Y-79002438D02*
X117357142Y-79050057D01*
X118214285Y-78954819D02*
X118023809Y-78954819D01*
X118023809Y-78954819D02*
X117928571Y-79002438D01*
X117928571Y-79002438D02*
X117880952Y-79050057D01*
X117880952Y-79050057D02*
X117785714Y-79192914D01*
X117785714Y-79192914D02*
X117738095Y-79383390D01*
X117738095Y-79383390D02*
X117738095Y-79764342D01*
X117738095Y-79764342D02*
X117785714Y-79859580D01*
X117785714Y-79859580D02*
X117833333Y-79907200D01*
X117833333Y-79907200D02*
X117928571Y-79954819D01*
X117928571Y-79954819D02*
X118119047Y-79954819D01*
X118119047Y-79954819D02*
X118214285Y-79907200D01*
X118214285Y-79907200D02*
X118261904Y-79859580D01*
X118261904Y-79859580D02*
X118309523Y-79764342D01*
X118309523Y-79764342D02*
X118309523Y-79526247D01*
X118309523Y-79526247D02*
X118261904Y-79431009D01*
X118261904Y-79431009D02*
X118214285Y-79383390D01*
X118214285Y-79383390D02*
X118119047Y-79335771D01*
X118119047Y-79335771D02*
X117928571Y-79335771D01*
X117928571Y-79335771D02*
X117833333Y-79383390D01*
X117833333Y-79383390D02*
X117785714Y-79431009D01*
X117785714Y-79431009D02*
X117738095Y-79526247D01*
X119261904Y-79954819D02*
X118690476Y-79954819D01*
X118976190Y-79954819D02*
X118976190Y-78954819D01*
X118976190Y-78954819D02*
X118880952Y-79097676D01*
X118880952Y-79097676D02*
X118785714Y-79192914D01*
X118785714Y-79192914D02*
X118690476Y-79240533D01*
X159357142Y-63359580D02*
X159309523Y-63407200D01*
X159309523Y-63407200D02*
X159166666Y-63454819D01*
X159166666Y-63454819D02*
X159071428Y-63454819D01*
X159071428Y-63454819D02*
X158928571Y-63407200D01*
X158928571Y-63407200D02*
X158833333Y-63311961D01*
X158833333Y-63311961D02*
X158785714Y-63216723D01*
X158785714Y-63216723D02*
X158738095Y-63026247D01*
X158738095Y-63026247D02*
X158738095Y-62883390D01*
X158738095Y-62883390D02*
X158785714Y-62692914D01*
X158785714Y-62692914D02*
X158833333Y-62597676D01*
X158833333Y-62597676D02*
X158928571Y-62502438D01*
X158928571Y-62502438D02*
X159071428Y-62454819D01*
X159071428Y-62454819D02*
X159166666Y-62454819D01*
X159166666Y-62454819D02*
X159309523Y-62502438D01*
X159309523Y-62502438D02*
X159357142Y-62550057D01*
X160214285Y-62788152D02*
X160214285Y-63454819D01*
X159976190Y-62407200D02*
X159738095Y-63121485D01*
X159738095Y-63121485D02*
X160357142Y-63121485D01*
X160880952Y-62883390D02*
X160785714Y-62835771D01*
X160785714Y-62835771D02*
X160738095Y-62788152D01*
X160738095Y-62788152D02*
X160690476Y-62692914D01*
X160690476Y-62692914D02*
X160690476Y-62645295D01*
X160690476Y-62645295D02*
X160738095Y-62550057D01*
X160738095Y-62550057D02*
X160785714Y-62502438D01*
X160785714Y-62502438D02*
X160880952Y-62454819D01*
X160880952Y-62454819D02*
X161071428Y-62454819D01*
X161071428Y-62454819D02*
X161166666Y-62502438D01*
X161166666Y-62502438D02*
X161214285Y-62550057D01*
X161214285Y-62550057D02*
X161261904Y-62645295D01*
X161261904Y-62645295D02*
X161261904Y-62692914D01*
X161261904Y-62692914D02*
X161214285Y-62788152D01*
X161214285Y-62788152D02*
X161166666Y-62835771D01*
X161166666Y-62835771D02*
X161071428Y-62883390D01*
X161071428Y-62883390D02*
X160880952Y-62883390D01*
X160880952Y-62883390D02*
X160785714Y-62931009D01*
X160785714Y-62931009D02*
X160738095Y-62978628D01*
X160738095Y-62978628D02*
X160690476Y-63073866D01*
X160690476Y-63073866D02*
X160690476Y-63264342D01*
X160690476Y-63264342D02*
X160738095Y-63359580D01*
X160738095Y-63359580D02*
X160785714Y-63407200D01*
X160785714Y-63407200D02*
X160880952Y-63454819D01*
X160880952Y-63454819D02*
X161071428Y-63454819D01*
X161071428Y-63454819D02*
X161166666Y-63407200D01*
X161166666Y-63407200D02*
X161214285Y-63359580D01*
X161214285Y-63359580D02*
X161261904Y-63264342D01*
X161261904Y-63264342D02*
X161261904Y-63073866D01*
X161261904Y-63073866D02*
X161214285Y-62978628D01*
X161214285Y-62978628D02*
X161166666Y-62931009D01*
X161166666Y-62931009D02*
X161071428Y-62883390D01*
X114833333Y-45359580D02*
X114785714Y-45407200D01*
X114785714Y-45407200D02*
X114642857Y-45454819D01*
X114642857Y-45454819D02*
X114547619Y-45454819D01*
X114547619Y-45454819D02*
X114404762Y-45407200D01*
X114404762Y-45407200D02*
X114309524Y-45311961D01*
X114309524Y-45311961D02*
X114261905Y-45216723D01*
X114261905Y-45216723D02*
X114214286Y-45026247D01*
X114214286Y-45026247D02*
X114214286Y-44883390D01*
X114214286Y-44883390D02*
X114261905Y-44692914D01*
X114261905Y-44692914D02*
X114309524Y-44597676D01*
X114309524Y-44597676D02*
X114404762Y-44502438D01*
X114404762Y-44502438D02*
X114547619Y-44454819D01*
X114547619Y-44454819D02*
X114642857Y-44454819D01*
X114642857Y-44454819D02*
X114785714Y-44502438D01*
X114785714Y-44502438D02*
X114833333Y-44550057D01*
X115738095Y-44454819D02*
X115261905Y-44454819D01*
X115261905Y-44454819D02*
X115214286Y-44931009D01*
X115214286Y-44931009D02*
X115261905Y-44883390D01*
X115261905Y-44883390D02*
X115357143Y-44835771D01*
X115357143Y-44835771D02*
X115595238Y-44835771D01*
X115595238Y-44835771D02*
X115690476Y-44883390D01*
X115690476Y-44883390D02*
X115738095Y-44931009D01*
X115738095Y-44931009D02*
X115785714Y-45026247D01*
X115785714Y-45026247D02*
X115785714Y-45264342D01*
X115785714Y-45264342D02*
X115738095Y-45359580D01*
X115738095Y-45359580D02*
X115690476Y-45407200D01*
X115690476Y-45407200D02*
X115595238Y-45454819D01*
X115595238Y-45454819D02*
X115357143Y-45454819D01*
X115357143Y-45454819D02*
X115261905Y-45407200D01*
X115261905Y-45407200D02*
X115214286Y-45359580D01*
X141357142Y-79859580D02*
X141309523Y-79907200D01*
X141309523Y-79907200D02*
X141166666Y-79954819D01*
X141166666Y-79954819D02*
X141071428Y-79954819D01*
X141071428Y-79954819D02*
X140928571Y-79907200D01*
X140928571Y-79907200D02*
X140833333Y-79811961D01*
X140833333Y-79811961D02*
X140785714Y-79716723D01*
X140785714Y-79716723D02*
X140738095Y-79526247D01*
X140738095Y-79526247D02*
X140738095Y-79383390D01*
X140738095Y-79383390D02*
X140785714Y-79192914D01*
X140785714Y-79192914D02*
X140833333Y-79097676D01*
X140833333Y-79097676D02*
X140928571Y-79002438D01*
X140928571Y-79002438D02*
X141071428Y-78954819D01*
X141071428Y-78954819D02*
X141166666Y-78954819D01*
X141166666Y-78954819D02*
X141309523Y-79002438D01*
X141309523Y-79002438D02*
X141357142Y-79050057D01*
X142261904Y-78954819D02*
X141785714Y-78954819D01*
X141785714Y-78954819D02*
X141738095Y-79431009D01*
X141738095Y-79431009D02*
X141785714Y-79383390D01*
X141785714Y-79383390D02*
X141880952Y-79335771D01*
X141880952Y-79335771D02*
X142119047Y-79335771D01*
X142119047Y-79335771D02*
X142214285Y-79383390D01*
X142214285Y-79383390D02*
X142261904Y-79431009D01*
X142261904Y-79431009D02*
X142309523Y-79526247D01*
X142309523Y-79526247D02*
X142309523Y-79764342D01*
X142309523Y-79764342D02*
X142261904Y-79859580D01*
X142261904Y-79859580D02*
X142214285Y-79907200D01*
X142214285Y-79907200D02*
X142119047Y-79954819D01*
X142119047Y-79954819D02*
X141880952Y-79954819D01*
X141880952Y-79954819D02*
X141785714Y-79907200D01*
X141785714Y-79907200D02*
X141738095Y-79859580D01*
X142642857Y-78954819D02*
X143261904Y-78954819D01*
X143261904Y-78954819D02*
X142928571Y-79335771D01*
X142928571Y-79335771D02*
X143071428Y-79335771D01*
X143071428Y-79335771D02*
X143166666Y-79383390D01*
X143166666Y-79383390D02*
X143214285Y-79431009D01*
X143214285Y-79431009D02*
X143261904Y-79526247D01*
X143261904Y-79526247D02*
X143261904Y-79764342D01*
X143261904Y-79764342D02*
X143214285Y-79859580D01*
X143214285Y-79859580D02*
X143166666Y-79907200D01*
X143166666Y-79907200D02*
X143071428Y-79954819D01*
X143071428Y-79954819D02*
X142785714Y-79954819D01*
X142785714Y-79954819D02*
X142690476Y-79907200D01*
X142690476Y-79907200D02*
X142642857Y-79859580D01*
X126357142Y-61859580D02*
X126309523Y-61907200D01*
X126309523Y-61907200D02*
X126166666Y-61954819D01*
X126166666Y-61954819D02*
X126071428Y-61954819D01*
X126071428Y-61954819D02*
X125928571Y-61907200D01*
X125928571Y-61907200D02*
X125833333Y-61811961D01*
X125833333Y-61811961D02*
X125785714Y-61716723D01*
X125785714Y-61716723D02*
X125738095Y-61526247D01*
X125738095Y-61526247D02*
X125738095Y-61383390D01*
X125738095Y-61383390D02*
X125785714Y-61192914D01*
X125785714Y-61192914D02*
X125833333Y-61097676D01*
X125833333Y-61097676D02*
X125928571Y-61002438D01*
X125928571Y-61002438D02*
X126071428Y-60954819D01*
X126071428Y-60954819D02*
X126166666Y-60954819D01*
X126166666Y-60954819D02*
X126309523Y-61002438D01*
X126309523Y-61002438D02*
X126357142Y-61050057D01*
X127309523Y-61954819D02*
X126738095Y-61954819D01*
X127023809Y-61954819D02*
X127023809Y-60954819D01*
X127023809Y-60954819D02*
X126928571Y-61097676D01*
X126928571Y-61097676D02*
X126833333Y-61192914D01*
X126833333Y-61192914D02*
X126738095Y-61240533D01*
X127928571Y-60954819D02*
X128023809Y-60954819D01*
X128023809Y-60954819D02*
X128119047Y-61002438D01*
X128119047Y-61002438D02*
X128166666Y-61050057D01*
X128166666Y-61050057D02*
X128214285Y-61145295D01*
X128214285Y-61145295D02*
X128261904Y-61335771D01*
X128261904Y-61335771D02*
X128261904Y-61573866D01*
X128261904Y-61573866D02*
X128214285Y-61764342D01*
X128214285Y-61764342D02*
X128166666Y-61859580D01*
X128166666Y-61859580D02*
X128119047Y-61907200D01*
X128119047Y-61907200D02*
X128023809Y-61954819D01*
X128023809Y-61954819D02*
X127928571Y-61954819D01*
X127928571Y-61954819D02*
X127833333Y-61907200D01*
X127833333Y-61907200D02*
X127785714Y-61859580D01*
X127785714Y-61859580D02*
X127738095Y-61764342D01*
X127738095Y-61764342D02*
X127690476Y-61573866D01*
X127690476Y-61573866D02*
X127690476Y-61335771D01*
X127690476Y-61335771D02*
X127738095Y-61145295D01*
X127738095Y-61145295D02*
X127785714Y-61050057D01*
X127785714Y-61050057D02*
X127833333Y-61002438D01*
X127833333Y-61002438D02*
X127928571Y-60954819D01*
X129357142Y-63359580D02*
X129309523Y-63407200D01*
X129309523Y-63407200D02*
X129166666Y-63454819D01*
X129166666Y-63454819D02*
X129071428Y-63454819D01*
X129071428Y-63454819D02*
X128928571Y-63407200D01*
X128928571Y-63407200D02*
X128833333Y-63311961D01*
X128833333Y-63311961D02*
X128785714Y-63216723D01*
X128785714Y-63216723D02*
X128738095Y-63026247D01*
X128738095Y-63026247D02*
X128738095Y-62883390D01*
X128738095Y-62883390D02*
X128785714Y-62692914D01*
X128785714Y-62692914D02*
X128833333Y-62597676D01*
X128833333Y-62597676D02*
X128928571Y-62502438D01*
X128928571Y-62502438D02*
X129071428Y-62454819D01*
X129071428Y-62454819D02*
X129166666Y-62454819D01*
X129166666Y-62454819D02*
X129309523Y-62502438D01*
X129309523Y-62502438D02*
X129357142Y-62550057D01*
X130261904Y-62454819D02*
X129785714Y-62454819D01*
X129785714Y-62454819D02*
X129738095Y-62931009D01*
X129738095Y-62931009D02*
X129785714Y-62883390D01*
X129785714Y-62883390D02*
X129880952Y-62835771D01*
X129880952Y-62835771D02*
X130119047Y-62835771D01*
X130119047Y-62835771D02*
X130214285Y-62883390D01*
X130214285Y-62883390D02*
X130261904Y-62931009D01*
X130261904Y-62931009D02*
X130309523Y-63026247D01*
X130309523Y-63026247D02*
X130309523Y-63264342D01*
X130309523Y-63264342D02*
X130261904Y-63359580D01*
X130261904Y-63359580D02*
X130214285Y-63407200D01*
X130214285Y-63407200D02*
X130119047Y-63454819D01*
X130119047Y-63454819D02*
X129880952Y-63454819D01*
X129880952Y-63454819D02*
X129785714Y-63407200D01*
X129785714Y-63407200D02*
X129738095Y-63359580D01*
X130880952Y-62883390D02*
X130785714Y-62835771D01*
X130785714Y-62835771D02*
X130738095Y-62788152D01*
X130738095Y-62788152D02*
X130690476Y-62692914D01*
X130690476Y-62692914D02*
X130690476Y-62645295D01*
X130690476Y-62645295D02*
X130738095Y-62550057D01*
X130738095Y-62550057D02*
X130785714Y-62502438D01*
X130785714Y-62502438D02*
X130880952Y-62454819D01*
X130880952Y-62454819D02*
X131071428Y-62454819D01*
X131071428Y-62454819D02*
X131166666Y-62502438D01*
X131166666Y-62502438D02*
X131214285Y-62550057D01*
X131214285Y-62550057D02*
X131261904Y-62645295D01*
X131261904Y-62645295D02*
X131261904Y-62692914D01*
X131261904Y-62692914D02*
X131214285Y-62788152D01*
X131214285Y-62788152D02*
X131166666Y-62835771D01*
X131166666Y-62835771D02*
X131071428Y-62883390D01*
X131071428Y-62883390D02*
X130880952Y-62883390D01*
X130880952Y-62883390D02*
X130785714Y-62931009D01*
X130785714Y-62931009D02*
X130738095Y-62978628D01*
X130738095Y-62978628D02*
X130690476Y-63073866D01*
X130690476Y-63073866D02*
X130690476Y-63264342D01*
X130690476Y-63264342D02*
X130738095Y-63359580D01*
X130738095Y-63359580D02*
X130785714Y-63407200D01*
X130785714Y-63407200D02*
X130880952Y-63454819D01*
X130880952Y-63454819D02*
X131071428Y-63454819D01*
X131071428Y-63454819D02*
X131166666Y-63407200D01*
X131166666Y-63407200D02*
X131214285Y-63359580D01*
X131214285Y-63359580D02*
X131261904Y-63264342D01*
X131261904Y-63264342D02*
X131261904Y-63073866D01*
X131261904Y-63073866D02*
X131214285Y-62978628D01*
X131214285Y-62978628D02*
X131166666Y-62931009D01*
X131166666Y-62931009D02*
X131071428Y-62883390D01*
X174357142Y-61859580D02*
X174309523Y-61907200D01*
X174309523Y-61907200D02*
X174166666Y-61954819D01*
X174166666Y-61954819D02*
X174071428Y-61954819D01*
X174071428Y-61954819D02*
X173928571Y-61907200D01*
X173928571Y-61907200D02*
X173833333Y-61811961D01*
X173833333Y-61811961D02*
X173785714Y-61716723D01*
X173785714Y-61716723D02*
X173738095Y-61526247D01*
X173738095Y-61526247D02*
X173738095Y-61383390D01*
X173738095Y-61383390D02*
X173785714Y-61192914D01*
X173785714Y-61192914D02*
X173833333Y-61097676D01*
X173833333Y-61097676D02*
X173928571Y-61002438D01*
X173928571Y-61002438D02*
X174071428Y-60954819D01*
X174071428Y-60954819D02*
X174166666Y-60954819D01*
X174166666Y-60954819D02*
X174309523Y-61002438D01*
X174309523Y-61002438D02*
X174357142Y-61050057D01*
X174738095Y-61050057D02*
X174785714Y-61002438D01*
X174785714Y-61002438D02*
X174880952Y-60954819D01*
X174880952Y-60954819D02*
X175119047Y-60954819D01*
X175119047Y-60954819D02*
X175214285Y-61002438D01*
X175214285Y-61002438D02*
X175261904Y-61050057D01*
X175261904Y-61050057D02*
X175309523Y-61145295D01*
X175309523Y-61145295D02*
X175309523Y-61240533D01*
X175309523Y-61240533D02*
X175261904Y-61383390D01*
X175261904Y-61383390D02*
X174690476Y-61954819D01*
X174690476Y-61954819D02*
X175309523Y-61954819D01*
X176166666Y-60954819D02*
X175976190Y-60954819D01*
X175976190Y-60954819D02*
X175880952Y-61002438D01*
X175880952Y-61002438D02*
X175833333Y-61050057D01*
X175833333Y-61050057D02*
X175738095Y-61192914D01*
X175738095Y-61192914D02*
X175690476Y-61383390D01*
X175690476Y-61383390D02*
X175690476Y-61764342D01*
X175690476Y-61764342D02*
X175738095Y-61859580D01*
X175738095Y-61859580D02*
X175785714Y-61907200D01*
X175785714Y-61907200D02*
X175880952Y-61954819D01*
X175880952Y-61954819D02*
X176071428Y-61954819D01*
X176071428Y-61954819D02*
X176166666Y-61907200D01*
X176166666Y-61907200D02*
X176214285Y-61859580D01*
X176214285Y-61859580D02*
X176261904Y-61764342D01*
X176261904Y-61764342D02*
X176261904Y-61526247D01*
X176261904Y-61526247D02*
X176214285Y-61431009D01*
X176214285Y-61431009D02*
X176166666Y-61383390D01*
X176166666Y-61383390D02*
X176071428Y-61335771D01*
X176071428Y-61335771D02*
X175880952Y-61335771D01*
X175880952Y-61335771D02*
X175785714Y-61383390D01*
X175785714Y-61383390D02*
X175738095Y-61431009D01*
X175738095Y-61431009D02*
X175690476Y-61526247D01*
X156357142Y-45359580D02*
X156309523Y-45407200D01*
X156309523Y-45407200D02*
X156166666Y-45454819D01*
X156166666Y-45454819D02*
X156071428Y-45454819D01*
X156071428Y-45454819D02*
X155928571Y-45407200D01*
X155928571Y-45407200D02*
X155833333Y-45311961D01*
X155833333Y-45311961D02*
X155785714Y-45216723D01*
X155785714Y-45216723D02*
X155738095Y-45026247D01*
X155738095Y-45026247D02*
X155738095Y-44883390D01*
X155738095Y-44883390D02*
X155785714Y-44692914D01*
X155785714Y-44692914D02*
X155833333Y-44597676D01*
X155833333Y-44597676D02*
X155928571Y-44502438D01*
X155928571Y-44502438D02*
X156071428Y-44454819D01*
X156071428Y-44454819D02*
X156166666Y-44454819D01*
X156166666Y-44454819D02*
X156309523Y-44502438D01*
X156309523Y-44502438D02*
X156357142Y-44550057D01*
X157309523Y-45454819D02*
X156738095Y-45454819D01*
X157023809Y-45454819D02*
X157023809Y-44454819D01*
X157023809Y-44454819D02*
X156928571Y-44597676D01*
X156928571Y-44597676D02*
X156833333Y-44692914D01*
X156833333Y-44692914D02*
X156738095Y-44740533D01*
X157785714Y-45454819D02*
X157976190Y-45454819D01*
X157976190Y-45454819D02*
X158071428Y-45407200D01*
X158071428Y-45407200D02*
X158119047Y-45359580D01*
X158119047Y-45359580D02*
X158214285Y-45216723D01*
X158214285Y-45216723D02*
X158261904Y-45026247D01*
X158261904Y-45026247D02*
X158261904Y-44645295D01*
X158261904Y-44645295D02*
X158214285Y-44550057D01*
X158214285Y-44550057D02*
X158166666Y-44502438D01*
X158166666Y-44502438D02*
X158071428Y-44454819D01*
X158071428Y-44454819D02*
X157880952Y-44454819D01*
X157880952Y-44454819D02*
X157785714Y-44502438D01*
X157785714Y-44502438D02*
X157738095Y-44550057D01*
X157738095Y-44550057D02*
X157690476Y-44645295D01*
X157690476Y-44645295D02*
X157690476Y-44883390D01*
X157690476Y-44883390D02*
X157738095Y-44978628D01*
X157738095Y-44978628D02*
X157785714Y-45026247D01*
X157785714Y-45026247D02*
X157880952Y-45073866D01*
X157880952Y-45073866D02*
X158071428Y-45073866D01*
X158071428Y-45073866D02*
X158166666Y-45026247D01*
X158166666Y-45026247D02*
X158214285Y-44978628D01*
X158214285Y-44978628D02*
X158261904Y-44883390D01*
X162357142Y-45359580D02*
X162309523Y-45407200D01*
X162309523Y-45407200D02*
X162166666Y-45454819D01*
X162166666Y-45454819D02*
X162071428Y-45454819D01*
X162071428Y-45454819D02*
X161928571Y-45407200D01*
X161928571Y-45407200D02*
X161833333Y-45311961D01*
X161833333Y-45311961D02*
X161785714Y-45216723D01*
X161785714Y-45216723D02*
X161738095Y-45026247D01*
X161738095Y-45026247D02*
X161738095Y-44883390D01*
X161738095Y-44883390D02*
X161785714Y-44692914D01*
X161785714Y-44692914D02*
X161833333Y-44597676D01*
X161833333Y-44597676D02*
X161928571Y-44502438D01*
X161928571Y-44502438D02*
X162071428Y-44454819D01*
X162071428Y-44454819D02*
X162166666Y-44454819D01*
X162166666Y-44454819D02*
X162309523Y-44502438D01*
X162309523Y-44502438D02*
X162357142Y-44550057D01*
X162738095Y-44550057D02*
X162785714Y-44502438D01*
X162785714Y-44502438D02*
X162880952Y-44454819D01*
X162880952Y-44454819D02*
X163119047Y-44454819D01*
X163119047Y-44454819D02*
X163214285Y-44502438D01*
X163214285Y-44502438D02*
X163261904Y-44550057D01*
X163261904Y-44550057D02*
X163309523Y-44645295D01*
X163309523Y-44645295D02*
X163309523Y-44740533D01*
X163309523Y-44740533D02*
X163261904Y-44883390D01*
X163261904Y-44883390D02*
X162690476Y-45454819D01*
X162690476Y-45454819D02*
X163309523Y-45454819D01*
X164261904Y-45454819D02*
X163690476Y-45454819D01*
X163976190Y-45454819D02*
X163976190Y-44454819D01*
X163976190Y-44454819D02*
X163880952Y-44597676D01*
X163880952Y-44597676D02*
X163785714Y-44692914D01*
X163785714Y-44692914D02*
X163690476Y-44740533D01*
X186357143Y-45359580D02*
X186309524Y-45407200D01*
X186309524Y-45407200D02*
X186166667Y-45454819D01*
X186166667Y-45454819D02*
X186071429Y-45454819D01*
X186071429Y-45454819D02*
X185928572Y-45407200D01*
X185928572Y-45407200D02*
X185833334Y-45311961D01*
X185833334Y-45311961D02*
X185785715Y-45216723D01*
X185785715Y-45216723D02*
X185738096Y-45026247D01*
X185738096Y-45026247D02*
X185738096Y-44883390D01*
X185738096Y-44883390D02*
X185785715Y-44692914D01*
X185785715Y-44692914D02*
X185833334Y-44597676D01*
X185833334Y-44597676D02*
X185928572Y-44502438D01*
X185928572Y-44502438D02*
X186071429Y-44454819D01*
X186071429Y-44454819D02*
X186166667Y-44454819D01*
X186166667Y-44454819D02*
X186309524Y-44502438D01*
X186309524Y-44502438D02*
X186357143Y-44550057D01*
X186738096Y-44550057D02*
X186785715Y-44502438D01*
X186785715Y-44502438D02*
X186880953Y-44454819D01*
X186880953Y-44454819D02*
X187119048Y-44454819D01*
X187119048Y-44454819D02*
X187214286Y-44502438D01*
X187214286Y-44502438D02*
X187261905Y-44550057D01*
X187261905Y-44550057D02*
X187309524Y-44645295D01*
X187309524Y-44645295D02*
X187309524Y-44740533D01*
X187309524Y-44740533D02*
X187261905Y-44883390D01*
X187261905Y-44883390D02*
X186690477Y-45454819D01*
X186690477Y-45454819D02*
X187309524Y-45454819D01*
X187785715Y-45454819D02*
X187976191Y-45454819D01*
X187976191Y-45454819D02*
X188071429Y-45407200D01*
X188071429Y-45407200D02*
X188119048Y-45359580D01*
X188119048Y-45359580D02*
X188214286Y-45216723D01*
X188214286Y-45216723D02*
X188261905Y-45026247D01*
X188261905Y-45026247D02*
X188261905Y-44645295D01*
X188261905Y-44645295D02*
X188214286Y-44550057D01*
X188214286Y-44550057D02*
X188166667Y-44502438D01*
X188166667Y-44502438D02*
X188071429Y-44454819D01*
X188071429Y-44454819D02*
X187880953Y-44454819D01*
X187880953Y-44454819D02*
X187785715Y-44502438D01*
X187785715Y-44502438D02*
X187738096Y-44550057D01*
X187738096Y-44550057D02*
X187690477Y-44645295D01*
X187690477Y-44645295D02*
X187690477Y-44883390D01*
X187690477Y-44883390D02*
X187738096Y-44978628D01*
X187738096Y-44978628D02*
X187785715Y-45026247D01*
X187785715Y-45026247D02*
X187880953Y-45073866D01*
X187880953Y-45073866D02*
X188071429Y-45073866D01*
X188071429Y-45073866D02*
X188166667Y-45026247D01*
X188166667Y-45026247D02*
X188214286Y-44978628D01*
X188214286Y-44978628D02*
X188261905Y-44883390D01*
X141357142Y-63359580D02*
X141309523Y-63407200D01*
X141309523Y-63407200D02*
X141166666Y-63454819D01*
X141166666Y-63454819D02*
X141071428Y-63454819D01*
X141071428Y-63454819D02*
X140928571Y-63407200D01*
X140928571Y-63407200D02*
X140833333Y-63311961D01*
X140833333Y-63311961D02*
X140785714Y-63216723D01*
X140785714Y-63216723D02*
X140738095Y-63026247D01*
X140738095Y-63026247D02*
X140738095Y-62883390D01*
X140738095Y-62883390D02*
X140785714Y-62692914D01*
X140785714Y-62692914D02*
X140833333Y-62597676D01*
X140833333Y-62597676D02*
X140928571Y-62502438D01*
X140928571Y-62502438D02*
X141071428Y-62454819D01*
X141071428Y-62454819D02*
X141166666Y-62454819D01*
X141166666Y-62454819D02*
X141309523Y-62502438D01*
X141309523Y-62502438D02*
X141357142Y-62550057D01*
X142261904Y-62454819D02*
X141785714Y-62454819D01*
X141785714Y-62454819D02*
X141738095Y-62931009D01*
X141738095Y-62931009D02*
X141785714Y-62883390D01*
X141785714Y-62883390D02*
X141880952Y-62835771D01*
X141880952Y-62835771D02*
X142119047Y-62835771D01*
X142119047Y-62835771D02*
X142214285Y-62883390D01*
X142214285Y-62883390D02*
X142261904Y-62931009D01*
X142261904Y-62931009D02*
X142309523Y-63026247D01*
X142309523Y-63026247D02*
X142309523Y-63264342D01*
X142309523Y-63264342D02*
X142261904Y-63359580D01*
X142261904Y-63359580D02*
X142214285Y-63407200D01*
X142214285Y-63407200D02*
X142119047Y-63454819D01*
X142119047Y-63454819D02*
X141880952Y-63454819D01*
X141880952Y-63454819D02*
X141785714Y-63407200D01*
X141785714Y-63407200D02*
X141738095Y-63359580D01*
X143166666Y-62788152D02*
X143166666Y-63454819D01*
X142928571Y-62407200D02*
X142690476Y-63121485D01*
X142690476Y-63121485D02*
X143309523Y-63121485D01*
X171357142Y-79859580D02*
X171309523Y-79907200D01*
X171309523Y-79907200D02*
X171166666Y-79954819D01*
X171166666Y-79954819D02*
X171071428Y-79954819D01*
X171071428Y-79954819D02*
X170928571Y-79907200D01*
X170928571Y-79907200D02*
X170833333Y-79811961D01*
X170833333Y-79811961D02*
X170785714Y-79716723D01*
X170785714Y-79716723D02*
X170738095Y-79526247D01*
X170738095Y-79526247D02*
X170738095Y-79383390D01*
X170738095Y-79383390D02*
X170785714Y-79192914D01*
X170785714Y-79192914D02*
X170833333Y-79097676D01*
X170833333Y-79097676D02*
X170928571Y-79002438D01*
X170928571Y-79002438D02*
X171071428Y-78954819D01*
X171071428Y-78954819D02*
X171166666Y-78954819D01*
X171166666Y-78954819D02*
X171309523Y-79002438D01*
X171309523Y-79002438D02*
X171357142Y-79050057D01*
X172214285Y-79288152D02*
X172214285Y-79954819D01*
X171976190Y-78907200D02*
X171738095Y-79621485D01*
X171738095Y-79621485D02*
X172357142Y-79621485D01*
X172642857Y-78954819D02*
X173261904Y-78954819D01*
X173261904Y-78954819D02*
X172928571Y-79335771D01*
X172928571Y-79335771D02*
X173071428Y-79335771D01*
X173071428Y-79335771D02*
X173166666Y-79383390D01*
X173166666Y-79383390D02*
X173214285Y-79431009D01*
X173214285Y-79431009D02*
X173261904Y-79526247D01*
X173261904Y-79526247D02*
X173261904Y-79764342D01*
X173261904Y-79764342D02*
X173214285Y-79859580D01*
X173214285Y-79859580D02*
X173166666Y-79907200D01*
X173166666Y-79907200D02*
X173071428Y-79954819D01*
X173071428Y-79954819D02*
X172785714Y-79954819D01*
X172785714Y-79954819D02*
X172690476Y-79907200D01*
X172690476Y-79907200D02*
X172642857Y-79859580D01*
X135357142Y-79859580D02*
X135309523Y-79907200D01*
X135309523Y-79907200D02*
X135166666Y-79954819D01*
X135166666Y-79954819D02*
X135071428Y-79954819D01*
X135071428Y-79954819D02*
X134928571Y-79907200D01*
X134928571Y-79907200D02*
X134833333Y-79811961D01*
X134833333Y-79811961D02*
X134785714Y-79716723D01*
X134785714Y-79716723D02*
X134738095Y-79526247D01*
X134738095Y-79526247D02*
X134738095Y-79383390D01*
X134738095Y-79383390D02*
X134785714Y-79192914D01*
X134785714Y-79192914D02*
X134833333Y-79097676D01*
X134833333Y-79097676D02*
X134928571Y-79002438D01*
X134928571Y-79002438D02*
X135071428Y-78954819D01*
X135071428Y-78954819D02*
X135166666Y-78954819D01*
X135166666Y-78954819D02*
X135309523Y-79002438D01*
X135309523Y-79002438D02*
X135357142Y-79050057D01*
X136261904Y-78954819D02*
X135785714Y-78954819D01*
X135785714Y-78954819D02*
X135738095Y-79431009D01*
X135738095Y-79431009D02*
X135785714Y-79383390D01*
X135785714Y-79383390D02*
X135880952Y-79335771D01*
X135880952Y-79335771D02*
X136119047Y-79335771D01*
X136119047Y-79335771D02*
X136214285Y-79383390D01*
X136214285Y-79383390D02*
X136261904Y-79431009D01*
X136261904Y-79431009D02*
X136309523Y-79526247D01*
X136309523Y-79526247D02*
X136309523Y-79764342D01*
X136309523Y-79764342D02*
X136261904Y-79859580D01*
X136261904Y-79859580D02*
X136214285Y-79907200D01*
X136214285Y-79907200D02*
X136119047Y-79954819D01*
X136119047Y-79954819D02*
X135880952Y-79954819D01*
X135880952Y-79954819D02*
X135785714Y-79907200D01*
X135785714Y-79907200D02*
X135738095Y-79859580D01*
X137214285Y-78954819D02*
X136738095Y-78954819D01*
X136738095Y-78954819D02*
X136690476Y-79431009D01*
X136690476Y-79431009D02*
X136738095Y-79383390D01*
X136738095Y-79383390D02*
X136833333Y-79335771D01*
X136833333Y-79335771D02*
X137071428Y-79335771D01*
X137071428Y-79335771D02*
X137166666Y-79383390D01*
X137166666Y-79383390D02*
X137214285Y-79431009D01*
X137214285Y-79431009D02*
X137261904Y-79526247D01*
X137261904Y-79526247D02*
X137261904Y-79764342D01*
X137261904Y-79764342D02*
X137214285Y-79859580D01*
X137214285Y-79859580D02*
X137166666Y-79907200D01*
X137166666Y-79907200D02*
X137071428Y-79954819D01*
X137071428Y-79954819D02*
X136833333Y-79954819D01*
X136833333Y-79954819D02*
X136738095Y-79907200D01*
X136738095Y-79907200D02*
X136690476Y-79859580D01*
X147357142Y-63359580D02*
X147309523Y-63407200D01*
X147309523Y-63407200D02*
X147166666Y-63454819D01*
X147166666Y-63454819D02*
X147071428Y-63454819D01*
X147071428Y-63454819D02*
X146928571Y-63407200D01*
X146928571Y-63407200D02*
X146833333Y-63311961D01*
X146833333Y-63311961D02*
X146785714Y-63216723D01*
X146785714Y-63216723D02*
X146738095Y-63026247D01*
X146738095Y-63026247D02*
X146738095Y-62883390D01*
X146738095Y-62883390D02*
X146785714Y-62692914D01*
X146785714Y-62692914D02*
X146833333Y-62597676D01*
X146833333Y-62597676D02*
X146928571Y-62502438D01*
X146928571Y-62502438D02*
X147071428Y-62454819D01*
X147071428Y-62454819D02*
X147166666Y-62454819D01*
X147166666Y-62454819D02*
X147309523Y-62502438D01*
X147309523Y-62502438D02*
X147357142Y-62550057D01*
X148261904Y-62454819D02*
X147785714Y-62454819D01*
X147785714Y-62454819D02*
X147738095Y-62931009D01*
X147738095Y-62931009D02*
X147785714Y-62883390D01*
X147785714Y-62883390D02*
X147880952Y-62835771D01*
X147880952Y-62835771D02*
X148119047Y-62835771D01*
X148119047Y-62835771D02*
X148214285Y-62883390D01*
X148214285Y-62883390D02*
X148261904Y-62931009D01*
X148261904Y-62931009D02*
X148309523Y-63026247D01*
X148309523Y-63026247D02*
X148309523Y-63264342D01*
X148309523Y-63264342D02*
X148261904Y-63359580D01*
X148261904Y-63359580D02*
X148214285Y-63407200D01*
X148214285Y-63407200D02*
X148119047Y-63454819D01*
X148119047Y-63454819D02*
X147880952Y-63454819D01*
X147880952Y-63454819D02*
X147785714Y-63407200D01*
X147785714Y-63407200D02*
X147738095Y-63359580D01*
X148690476Y-62550057D02*
X148738095Y-62502438D01*
X148738095Y-62502438D02*
X148833333Y-62454819D01*
X148833333Y-62454819D02*
X149071428Y-62454819D01*
X149071428Y-62454819D02*
X149166666Y-62502438D01*
X149166666Y-62502438D02*
X149214285Y-62550057D01*
X149214285Y-62550057D02*
X149261904Y-62645295D01*
X149261904Y-62645295D02*
X149261904Y-62740533D01*
X149261904Y-62740533D02*
X149214285Y-62883390D01*
X149214285Y-62883390D02*
X148642857Y-63454819D01*
X148642857Y-63454819D02*
X149261904Y-63454819D01*
X132357142Y-61859580D02*
X132309523Y-61907200D01*
X132309523Y-61907200D02*
X132166666Y-61954819D01*
X132166666Y-61954819D02*
X132071428Y-61954819D01*
X132071428Y-61954819D02*
X131928571Y-61907200D01*
X131928571Y-61907200D02*
X131833333Y-61811961D01*
X131833333Y-61811961D02*
X131785714Y-61716723D01*
X131785714Y-61716723D02*
X131738095Y-61526247D01*
X131738095Y-61526247D02*
X131738095Y-61383390D01*
X131738095Y-61383390D02*
X131785714Y-61192914D01*
X131785714Y-61192914D02*
X131833333Y-61097676D01*
X131833333Y-61097676D02*
X131928571Y-61002438D01*
X131928571Y-61002438D02*
X132071428Y-60954819D01*
X132071428Y-60954819D02*
X132166666Y-60954819D01*
X132166666Y-60954819D02*
X132309523Y-61002438D01*
X132309523Y-61002438D02*
X132357142Y-61050057D01*
X133309523Y-61954819D02*
X132738095Y-61954819D01*
X133023809Y-61954819D02*
X133023809Y-60954819D01*
X133023809Y-60954819D02*
X132928571Y-61097676D01*
X132928571Y-61097676D02*
X132833333Y-61192914D01*
X132833333Y-61192914D02*
X132738095Y-61240533D01*
X133690476Y-61050057D02*
X133738095Y-61002438D01*
X133738095Y-61002438D02*
X133833333Y-60954819D01*
X133833333Y-60954819D02*
X134071428Y-60954819D01*
X134071428Y-60954819D02*
X134166666Y-61002438D01*
X134166666Y-61002438D02*
X134214285Y-61050057D01*
X134214285Y-61050057D02*
X134261904Y-61145295D01*
X134261904Y-61145295D02*
X134261904Y-61240533D01*
X134261904Y-61240533D02*
X134214285Y-61383390D01*
X134214285Y-61383390D02*
X133642857Y-61954819D01*
X133642857Y-61954819D02*
X134261904Y-61954819D01*
X108833333Y-45359580D02*
X108785714Y-45407200D01*
X108785714Y-45407200D02*
X108642857Y-45454819D01*
X108642857Y-45454819D02*
X108547619Y-45454819D01*
X108547619Y-45454819D02*
X108404762Y-45407200D01*
X108404762Y-45407200D02*
X108309524Y-45311961D01*
X108309524Y-45311961D02*
X108261905Y-45216723D01*
X108261905Y-45216723D02*
X108214286Y-45026247D01*
X108214286Y-45026247D02*
X108214286Y-44883390D01*
X108214286Y-44883390D02*
X108261905Y-44692914D01*
X108261905Y-44692914D02*
X108309524Y-44597676D01*
X108309524Y-44597676D02*
X108404762Y-44502438D01*
X108404762Y-44502438D02*
X108547619Y-44454819D01*
X108547619Y-44454819D02*
X108642857Y-44454819D01*
X108642857Y-44454819D02*
X108785714Y-44502438D01*
X108785714Y-44502438D02*
X108833333Y-44550057D01*
X109166667Y-44454819D02*
X109785714Y-44454819D01*
X109785714Y-44454819D02*
X109452381Y-44835771D01*
X109452381Y-44835771D02*
X109595238Y-44835771D01*
X109595238Y-44835771D02*
X109690476Y-44883390D01*
X109690476Y-44883390D02*
X109738095Y-44931009D01*
X109738095Y-44931009D02*
X109785714Y-45026247D01*
X109785714Y-45026247D02*
X109785714Y-45264342D01*
X109785714Y-45264342D02*
X109738095Y-45359580D01*
X109738095Y-45359580D02*
X109690476Y-45407200D01*
X109690476Y-45407200D02*
X109595238Y-45454819D01*
X109595238Y-45454819D02*
X109309524Y-45454819D01*
X109309524Y-45454819D02*
X109214286Y-45407200D01*
X109214286Y-45407200D02*
X109166667Y-45359580D01*
X189357142Y-63359580D02*
X189309523Y-63407200D01*
X189309523Y-63407200D02*
X189166666Y-63454819D01*
X189166666Y-63454819D02*
X189071428Y-63454819D01*
X189071428Y-63454819D02*
X188928571Y-63407200D01*
X188928571Y-63407200D02*
X188833333Y-63311961D01*
X188833333Y-63311961D02*
X188785714Y-63216723D01*
X188785714Y-63216723D02*
X188738095Y-63026247D01*
X188738095Y-63026247D02*
X188738095Y-62883390D01*
X188738095Y-62883390D02*
X188785714Y-62692914D01*
X188785714Y-62692914D02*
X188833333Y-62597676D01*
X188833333Y-62597676D02*
X188928571Y-62502438D01*
X188928571Y-62502438D02*
X189071428Y-62454819D01*
X189071428Y-62454819D02*
X189166666Y-62454819D01*
X189166666Y-62454819D02*
X189309523Y-62502438D01*
X189309523Y-62502438D02*
X189357142Y-62550057D01*
X189690476Y-62454819D02*
X190309523Y-62454819D01*
X190309523Y-62454819D02*
X189976190Y-62835771D01*
X189976190Y-62835771D02*
X190119047Y-62835771D01*
X190119047Y-62835771D02*
X190214285Y-62883390D01*
X190214285Y-62883390D02*
X190261904Y-62931009D01*
X190261904Y-62931009D02*
X190309523Y-63026247D01*
X190309523Y-63026247D02*
X190309523Y-63264342D01*
X190309523Y-63264342D02*
X190261904Y-63359580D01*
X190261904Y-63359580D02*
X190214285Y-63407200D01*
X190214285Y-63407200D02*
X190119047Y-63454819D01*
X190119047Y-63454819D02*
X189833333Y-63454819D01*
X189833333Y-63454819D02*
X189738095Y-63407200D01*
X189738095Y-63407200D02*
X189690476Y-63359580D01*
X190880952Y-62883390D02*
X190785714Y-62835771D01*
X190785714Y-62835771D02*
X190738095Y-62788152D01*
X190738095Y-62788152D02*
X190690476Y-62692914D01*
X190690476Y-62692914D02*
X190690476Y-62645295D01*
X190690476Y-62645295D02*
X190738095Y-62550057D01*
X190738095Y-62550057D02*
X190785714Y-62502438D01*
X190785714Y-62502438D02*
X190880952Y-62454819D01*
X190880952Y-62454819D02*
X191071428Y-62454819D01*
X191071428Y-62454819D02*
X191166666Y-62502438D01*
X191166666Y-62502438D02*
X191214285Y-62550057D01*
X191214285Y-62550057D02*
X191261904Y-62645295D01*
X191261904Y-62645295D02*
X191261904Y-62692914D01*
X191261904Y-62692914D02*
X191214285Y-62788152D01*
X191214285Y-62788152D02*
X191166666Y-62835771D01*
X191166666Y-62835771D02*
X191071428Y-62883390D01*
X191071428Y-62883390D02*
X190880952Y-62883390D01*
X190880952Y-62883390D02*
X190785714Y-62931009D01*
X190785714Y-62931009D02*
X190738095Y-62978628D01*
X190738095Y-62978628D02*
X190690476Y-63073866D01*
X190690476Y-63073866D02*
X190690476Y-63264342D01*
X190690476Y-63264342D02*
X190738095Y-63359580D01*
X190738095Y-63359580D02*
X190785714Y-63407200D01*
X190785714Y-63407200D02*
X190880952Y-63454819D01*
X190880952Y-63454819D02*
X191071428Y-63454819D01*
X191071428Y-63454819D02*
X191166666Y-63407200D01*
X191166666Y-63407200D02*
X191214285Y-63359580D01*
X191214285Y-63359580D02*
X191261904Y-63264342D01*
X191261904Y-63264342D02*
X191261904Y-63073866D01*
X191261904Y-63073866D02*
X191214285Y-62978628D01*
X191214285Y-62978628D02*
X191166666Y-62931009D01*
X191166666Y-62931009D02*
X191071428Y-62883390D01*
X177357142Y-79859580D02*
X177309523Y-79907200D01*
X177309523Y-79907200D02*
X177166666Y-79954819D01*
X177166666Y-79954819D02*
X177071428Y-79954819D01*
X177071428Y-79954819D02*
X176928571Y-79907200D01*
X176928571Y-79907200D02*
X176833333Y-79811961D01*
X176833333Y-79811961D02*
X176785714Y-79716723D01*
X176785714Y-79716723D02*
X176738095Y-79526247D01*
X176738095Y-79526247D02*
X176738095Y-79383390D01*
X176738095Y-79383390D02*
X176785714Y-79192914D01*
X176785714Y-79192914D02*
X176833333Y-79097676D01*
X176833333Y-79097676D02*
X176928571Y-79002438D01*
X176928571Y-79002438D02*
X177071428Y-78954819D01*
X177071428Y-78954819D02*
X177166666Y-78954819D01*
X177166666Y-78954819D02*
X177309523Y-79002438D01*
X177309523Y-79002438D02*
X177357142Y-79050057D01*
X178214285Y-79288152D02*
X178214285Y-79954819D01*
X177976190Y-78907200D02*
X177738095Y-79621485D01*
X177738095Y-79621485D02*
X178357142Y-79621485D01*
X179261904Y-79954819D02*
X178690476Y-79954819D01*
X178976190Y-79954819D02*
X178976190Y-78954819D01*
X178976190Y-78954819D02*
X178880952Y-79097676D01*
X178880952Y-79097676D02*
X178785714Y-79192914D01*
X178785714Y-79192914D02*
X178690476Y-79240533D01*
X162357142Y-61859580D02*
X162309523Y-61907200D01*
X162309523Y-61907200D02*
X162166666Y-61954819D01*
X162166666Y-61954819D02*
X162071428Y-61954819D01*
X162071428Y-61954819D02*
X161928571Y-61907200D01*
X161928571Y-61907200D02*
X161833333Y-61811961D01*
X161833333Y-61811961D02*
X161785714Y-61716723D01*
X161785714Y-61716723D02*
X161738095Y-61526247D01*
X161738095Y-61526247D02*
X161738095Y-61383390D01*
X161738095Y-61383390D02*
X161785714Y-61192914D01*
X161785714Y-61192914D02*
X161833333Y-61097676D01*
X161833333Y-61097676D02*
X161928571Y-61002438D01*
X161928571Y-61002438D02*
X162071428Y-60954819D01*
X162071428Y-60954819D02*
X162166666Y-60954819D01*
X162166666Y-60954819D02*
X162309523Y-61002438D01*
X162309523Y-61002438D02*
X162357142Y-61050057D01*
X162738095Y-61050057D02*
X162785714Y-61002438D01*
X162785714Y-61002438D02*
X162880952Y-60954819D01*
X162880952Y-60954819D02*
X163119047Y-60954819D01*
X163119047Y-60954819D02*
X163214285Y-61002438D01*
X163214285Y-61002438D02*
X163261904Y-61050057D01*
X163261904Y-61050057D02*
X163309523Y-61145295D01*
X163309523Y-61145295D02*
X163309523Y-61240533D01*
X163309523Y-61240533D02*
X163261904Y-61383390D01*
X163261904Y-61383390D02*
X162690476Y-61954819D01*
X162690476Y-61954819D02*
X163309523Y-61954819D01*
X163690476Y-61050057D02*
X163738095Y-61002438D01*
X163738095Y-61002438D02*
X163833333Y-60954819D01*
X163833333Y-60954819D02*
X164071428Y-60954819D01*
X164071428Y-60954819D02*
X164166666Y-61002438D01*
X164166666Y-61002438D02*
X164214285Y-61050057D01*
X164214285Y-61050057D02*
X164261904Y-61145295D01*
X164261904Y-61145295D02*
X164261904Y-61240533D01*
X164261904Y-61240533D02*
X164214285Y-61383390D01*
X164214285Y-61383390D02*
X163642857Y-61954819D01*
X163642857Y-61954819D02*
X164261904Y-61954819D01*
X138357142Y-61859580D02*
X138309523Y-61907200D01*
X138309523Y-61907200D02*
X138166666Y-61954819D01*
X138166666Y-61954819D02*
X138071428Y-61954819D01*
X138071428Y-61954819D02*
X137928571Y-61907200D01*
X137928571Y-61907200D02*
X137833333Y-61811961D01*
X137833333Y-61811961D02*
X137785714Y-61716723D01*
X137785714Y-61716723D02*
X137738095Y-61526247D01*
X137738095Y-61526247D02*
X137738095Y-61383390D01*
X137738095Y-61383390D02*
X137785714Y-61192914D01*
X137785714Y-61192914D02*
X137833333Y-61097676D01*
X137833333Y-61097676D02*
X137928571Y-61002438D01*
X137928571Y-61002438D02*
X138071428Y-60954819D01*
X138071428Y-60954819D02*
X138166666Y-60954819D01*
X138166666Y-60954819D02*
X138309523Y-61002438D01*
X138309523Y-61002438D02*
X138357142Y-61050057D01*
X139309523Y-61954819D02*
X138738095Y-61954819D01*
X139023809Y-61954819D02*
X139023809Y-60954819D01*
X139023809Y-60954819D02*
X138928571Y-61097676D01*
X138928571Y-61097676D02*
X138833333Y-61192914D01*
X138833333Y-61192914D02*
X138738095Y-61240533D01*
X140166666Y-61288152D02*
X140166666Y-61954819D01*
X139928571Y-60907200D02*
X139690476Y-61621485D01*
X139690476Y-61621485D02*
X140309523Y-61621485D01*
X105357142Y-79809580D02*
X105309523Y-79857200D01*
X105309523Y-79857200D02*
X105166666Y-79904819D01*
X105166666Y-79904819D02*
X105071428Y-79904819D01*
X105071428Y-79904819D02*
X104928571Y-79857200D01*
X104928571Y-79857200D02*
X104833333Y-79761961D01*
X104833333Y-79761961D02*
X104785714Y-79666723D01*
X104785714Y-79666723D02*
X104738095Y-79476247D01*
X104738095Y-79476247D02*
X104738095Y-79333390D01*
X104738095Y-79333390D02*
X104785714Y-79142914D01*
X104785714Y-79142914D02*
X104833333Y-79047676D01*
X104833333Y-79047676D02*
X104928571Y-78952438D01*
X104928571Y-78952438D02*
X105071428Y-78904819D01*
X105071428Y-78904819D02*
X105166666Y-78904819D01*
X105166666Y-78904819D02*
X105309523Y-78952438D01*
X105309523Y-78952438D02*
X105357142Y-79000057D01*
X106214285Y-78904819D02*
X106023809Y-78904819D01*
X106023809Y-78904819D02*
X105928571Y-78952438D01*
X105928571Y-78952438D02*
X105880952Y-79000057D01*
X105880952Y-79000057D02*
X105785714Y-79142914D01*
X105785714Y-79142914D02*
X105738095Y-79333390D01*
X105738095Y-79333390D02*
X105738095Y-79714342D01*
X105738095Y-79714342D02*
X105785714Y-79809580D01*
X105785714Y-79809580D02*
X105833333Y-79857200D01*
X105833333Y-79857200D02*
X105928571Y-79904819D01*
X105928571Y-79904819D02*
X106119047Y-79904819D01*
X106119047Y-79904819D02*
X106214285Y-79857200D01*
X106214285Y-79857200D02*
X106261904Y-79809580D01*
X106261904Y-79809580D02*
X106309523Y-79714342D01*
X106309523Y-79714342D02*
X106309523Y-79476247D01*
X106309523Y-79476247D02*
X106261904Y-79381009D01*
X106261904Y-79381009D02*
X106214285Y-79333390D01*
X106214285Y-79333390D02*
X106119047Y-79285771D01*
X106119047Y-79285771D02*
X105928571Y-79285771D01*
X105928571Y-79285771D02*
X105833333Y-79333390D01*
X105833333Y-79333390D02*
X105785714Y-79381009D01*
X105785714Y-79381009D02*
X105738095Y-79476247D01*
X107214285Y-78904819D02*
X106738095Y-78904819D01*
X106738095Y-78904819D02*
X106690476Y-79381009D01*
X106690476Y-79381009D02*
X106738095Y-79333390D01*
X106738095Y-79333390D02*
X106833333Y-79285771D01*
X106833333Y-79285771D02*
X107071428Y-79285771D01*
X107071428Y-79285771D02*
X107166666Y-79333390D01*
X107166666Y-79333390D02*
X107214285Y-79381009D01*
X107214285Y-79381009D02*
X107261904Y-79476247D01*
X107261904Y-79476247D02*
X107261904Y-79714342D01*
X107261904Y-79714342D02*
X107214285Y-79809580D01*
X107214285Y-79809580D02*
X107166666Y-79857200D01*
X107166666Y-79857200D02*
X107071428Y-79904819D01*
X107071428Y-79904819D02*
X106833333Y-79904819D01*
X106833333Y-79904819D02*
X106738095Y-79857200D01*
X106738095Y-79857200D02*
X106690476Y-79809580D01*
X123357142Y-63359580D02*
X123309523Y-63407200D01*
X123309523Y-63407200D02*
X123166666Y-63454819D01*
X123166666Y-63454819D02*
X123071428Y-63454819D01*
X123071428Y-63454819D02*
X122928571Y-63407200D01*
X122928571Y-63407200D02*
X122833333Y-63311961D01*
X122833333Y-63311961D02*
X122785714Y-63216723D01*
X122785714Y-63216723D02*
X122738095Y-63026247D01*
X122738095Y-63026247D02*
X122738095Y-62883390D01*
X122738095Y-62883390D02*
X122785714Y-62692914D01*
X122785714Y-62692914D02*
X122833333Y-62597676D01*
X122833333Y-62597676D02*
X122928571Y-62502438D01*
X122928571Y-62502438D02*
X123071428Y-62454819D01*
X123071428Y-62454819D02*
X123166666Y-62454819D01*
X123166666Y-62454819D02*
X123309523Y-62502438D01*
X123309523Y-62502438D02*
X123357142Y-62550057D01*
X124214285Y-62454819D02*
X124023809Y-62454819D01*
X124023809Y-62454819D02*
X123928571Y-62502438D01*
X123928571Y-62502438D02*
X123880952Y-62550057D01*
X123880952Y-62550057D02*
X123785714Y-62692914D01*
X123785714Y-62692914D02*
X123738095Y-62883390D01*
X123738095Y-62883390D02*
X123738095Y-63264342D01*
X123738095Y-63264342D02*
X123785714Y-63359580D01*
X123785714Y-63359580D02*
X123833333Y-63407200D01*
X123833333Y-63407200D02*
X123928571Y-63454819D01*
X123928571Y-63454819D02*
X124119047Y-63454819D01*
X124119047Y-63454819D02*
X124214285Y-63407200D01*
X124214285Y-63407200D02*
X124261904Y-63359580D01*
X124261904Y-63359580D02*
X124309523Y-63264342D01*
X124309523Y-63264342D02*
X124309523Y-63026247D01*
X124309523Y-63026247D02*
X124261904Y-62931009D01*
X124261904Y-62931009D02*
X124214285Y-62883390D01*
X124214285Y-62883390D02*
X124119047Y-62835771D01*
X124119047Y-62835771D02*
X123928571Y-62835771D01*
X123928571Y-62835771D02*
X123833333Y-62883390D01*
X123833333Y-62883390D02*
X123785714Y-62931009D01*
X123785714Y-62931009D02*
X123738095Y-63026247D01*
X124928571Y-62454819D02*
X125023809Y-62454819D01*
X125023809Y-62454819D02*
X125119047Y-62502438D01*
X125119047Y-62502438D02*
X125166666Y-62550057D01*
X125166666Y-62550057D02*
X125214285Y-62645295D01*
X125214285Y-62645295D02*
X125261904Y-62835771D01*
X125261904Y-62835771D02*
X125261904Y-63073866D01*
X125261904Y-63073866D02*
X125214285Y-63264342D01*
X125214285Y-63264342D02*
X125166666Y-63359580D01*
X125166666Y-63359580D02*
X125119047Y-63407200D01*
X125119047Y-63407200D02*
X125023809Y-63454819D01*
X125023809Y-63454819D02*
X124928571Y-63454819D01*
X124928571Y-63454819D02*
X124833333Y-63407200D01*
X124833333Y-63407200D02*
X124785714Y-63359580D01*
X124785714Y-63359580D02*
X124738095Y-63264342D01*
X124738095Y-63264342D02*
X124690476Y-63073866D01*
X124690476Y-63073866D02*
X124690476Y-62835771D01*
X124690476Y-62835771D02*
X124738095Y-62645295D01*
X124738095Y-62645295D02*
X124785714Y-62550057D01*
X124785714Y-62550057D02*
X124833333Y-62502438D01*
X124833333Y-62502438D02*
X124928571Y-62454819D01*
X150357142Y-45359580D02*
X150309523Y-45407200D01*
X150309523Y-45407200D02*
X150166666Y-45454819D01*
X150166666Y-45454819D02*
X150071428Y-45454819D01*
X150071428Y-45454819D02*
X149928571Y-45407200D01*
X149928571Y-45407200D02*
X149833333Y-45311961D01*
X149833333Y-45311961D02*
X149785714Y-45216723D01*
X149785714Y-45216723D02*
X149738095Y-45026247D01*
X149738095Y-45026247D02*
X149738095Y-44883390D01*
X149738095Y-44883390D02*
X149785714Y-44692914D01*
X149785714Y-44692914D02*
X149833333Y-44597676D01*
X149833333Y-44597676D02*
X149928571Y-44502438D01*
X149928571Y-44502438D02*
X150071428Y-44454819D01*
X150071428Y-44454819D02*
X150166666Y-44454819D01*
X150166666Y-44454819D02*
X150309523Y-44502438D01*
X150309523Y-44502438D02*
X150357142Y-44550057D01*
X151309523Y-45454819D02*
X150738095Y-45454819D01*
X151023809Y-45454819D02*
X151023809Y-44454819D01*
X151023809Y-44454819D02*
X150928571Y-44597676D01*
X150928571Y-44597676D02*
X150833333Y-44692914D01*
X150833333Y-44692914D02*
X150738095Y-44740533D01*
X151642857Y-44454819D02*
X152309523Y-44454819D01*
X152309523Y-44454819D02*
X151880952Y-45454819D01*
X198357142Y-45359580D02*
X198309523Y-45407200D01*
X198309523Y-45407200D02*
X198166666Y-45454819D01*
X198166666Y-45454819D02*
X198071428Y-45454819D01*
X198071428Y-45454819D02*
X197928571Y-45407200D01*
X197928571Y-45407200D02*
X197833333Y-45311961D01*
X197833333Y-45311961D02*
X197785714Y-45216723D01*
X197785714Y-45216723D02*
X197738095Y-45026247D01*
X197738095Y-45026247D02*
X197738095Y-44883390D01*
X197738095Y-44883390D02*
X197785714Y-44692914D01*
X197785714Y-44692914D02*
X197833333Y-44597676D01*
X197833333Y-44597676D02*
X197928571Y-44502438D01*
X197928571Y-44502438D02*
X198071428Y-44454819D01*
X198071428Y-44454819D02*
X198166666Y-44454819D01*
X198166666Y-44454819D02*
X198309523Y-44502438D01*
X198309523Y-44502438D02*
X198357142Y-44550057D01*
X198690476Y-44454819D02*
X199309523Y-44454819D01*
X199309523Y-44454819D02*
X198976190Y-44835771D01*
X198976190Y-44835771D02*
X199119047Y-44835771D01*
X199119047Y-44835771D02*
X199214285Y-44883390D01*
X199214285Y-44883390D02*
X199261904Y-44931009D01*
X199261904Y-44931009D02*
X199309523Y-45026247D01*
X199309523Y-45026247D02*
X199309523Y-45264342D01*
X199309523Y-45264342D02*
X199261904Y-45359580D01*
X199261904Y-45359580D02*
X199214285Y-45407200D01*
X199214285Y-45407200D02*
X199119047Y-45454819D01*
X199119047Y-45454819D02*
X198833333Y-45454819D01*
X198833333Y-45454819D02*
X198738095Y-45407200D01*
X198738095Y-45407200D02*
X198690476Y-45359580D01*
X199642857Y-44454819D02*
X200261904Y-44454819D01*
X200261904Y-44454819D02*
X199928571Y-44835771D01*
X199928571Y-44835771D02*
X200071428Y-44835771D01*
X200071428Y-44835771D02*
X200166666Y-44883390D01*
X200166666Y-44883390D02*
X200214285Y-44931009D01*
X200214285Y-44931009D02*
X200261904Y-45026247D01*
X200261904Y-45026247D02*
X200261904Y-45264342D01*
X200261904Y-45264342D02*
X200214285Y-45359580D01*
X200214285Y-45359580D02*
X200166666Y-45407200D01*
X200166666Y-45407200D02*
X200071428Y-45454819D01*
X200071428Y-45454819D02*
X199785714Y-45454819D01*
X199785714Y-45454819D02*
X199690476Y-45407200D01*
X199690476Y-45407200D02*
X199642857Y-45359580D01*
X111357142Y-63359580D02*
X111309523Y-63407200D01*
X111309523Y-63407200D02*
X111166666Y-63454819D01*
X111166666Y-63454819D02*
X111071428Y-63454819D01*
X111071428Y-63454819D02*
X110928571Y-63407200D01*
X110928571Y-63407200D02*
X110833333Y-63311961D01*
X110833333Y-63311961D02*
X110785714Y-63216723D01*
X110785714Y-63216723D02*
X110738095Y-63026247D01*
X110738095Y-63026247D02*
X110738095Y-62883390D01*
X110738095Y-62883390D02*
X110785714Y-62692914D01*
X110785714Y-62692914D02*
X110833333Y-62597676D01*
X110833333Y-62597676D02*
X110928571Y-62502438D01*
X110928571Y-62502438D02*
X111071428Y-62454819D01*
X111071428Y-62454819D02*
X111166666Y-62454819D01*
X111166666Y-62454819D02*
X111309523Y-62502438D01*
X111309523Y-62502438D02*
X111357142Y-62550057D01*
X112214285Y-62454819D02*
X112023809Y-62454819D01*
X112023809Y-62454819D02*
X111928571Y-62502438D01*
X111928571Y-62502438D02*
X111880952Y-62550057D01*
X111880952Y-62550057D02*
X111785714Y-62692914D01*
X111785714Y-62692914D02*
X111738095Y-62883390D01*
X111738095Y-62883390D02*
X111738095Y-63264342D01*
X111738095Y-63264342D02*
X111785714Y-63359580D01*
X111785714Y-63359580D02*
X111833333Y-63407200D01*
X111833333Y-63407200D02*
X111928571Y-63454819D01*
X111928571Y-63454819D02*
X112119047Y-63454819D01*
X112119047Y-63454819D02*
X112214285Y-63407200D01*
X112214285Y-63407200D02*
X112261904Y-63359580D01*
X112261904Y-63359580D02*
X112309523Y-63264342D01*
X112309523Y-63264342D02*
X112309523Y-63026247D01*
X112309523Y-63026247D02*
X112261904Y-62931009D01*
X112261904Y-62931009D02*
X112214285Y-62883390D01*
X112214285Y-62883390D02*
X112119047Y-62835771D01*
X112119047Y-62835771D02*
X111928571Y-62835771D01*
X111928571Y-62835771D02*
X111833333Y-62883390D01*
X111833333Y-62883390D02*
X111785714Y-62931009D01*
X111785714Y-62931009D02*
X111738095Y-63026247D01*
X113166666Y-62788152D02*
X113166666Y-63454819D01*
X112928571Y-62407200D02*
X112690476Y-63121485D01*
X112690476Y-63121485D02*
X113309523Y-63121485D01*
D12*
%TO.C,C2*%
X101890000Y-55634252D02*
X101890000Y-58465748D01*
X107110000Y-55634252D02*
X107110000Y-58465748D01*
%TO.C,C16*%
X143890000Y-55634252D02*
X143890000Y-58465748D01*
X149110000Y-55634252D02*
X149110000Y-58465748D01*
%TO.C,C4*%
X107890000Y-55634252D02*
X107890000Y-58465748D01*
X113110000Y-55634252D02*
X113110000Y-58465748D01*
%TO.C,C66*%
X101890000Y-68865748D02*
X101890000Y-66034252D01*
X107110000Y-68865748D02*
X107110000Y-66034252D01*
%TO.C,C37*%
X185890000Y-76415748D02*
X185890000Y-73584252D01*
X191110000Y-76415748D02*
X191110000Y-73584252D01*
%TO.C,C23*%
X167890000Y-48084252D02*
X167890000Y-50915748D01*
X173110000Y-48084252D02*
X173110000Y-50915748D01*
D13*
%TO.C,REF\u002A\u002A*%
X151825000Y-39841000D02*
X152333000Y-40603000D01*
X151952000Y-40857000D02*
X154238000Y-42381000D01*
X152206000Y-40603000D02*
X154111000Y-42000000D01*
X152333000Y-40603000D02*
X151825000Y-40730000D01*
X153857000Y-40349000D02*
X153857000Y-41619000D01*
X153857000Y-41619000D02*
X151825000Y-39841000D01*
X154111000Y-42000000D02*
X154111000Y-40730000D01*
X154238000Y-40984000D02*
X156524000Y-42127000D01*
X154238000Y-42381000D02*
X154238000Y-40984000D01*
X156016000Y-42254000D02*
X157032000Y-42381000D01*
X156397000Y-41619000D02*
X156651000Y-42127000D01*
X156524000Y-42127000D02*
X156016000Y-42254000D01*
X156651000Y-42127000D02*
X153857000Y-40349000D01*
X157032000Y-42381000D02*
X156397000Y-41619000D01*
D12*
%TO.C,C35*%
X191890000Y-76415748D02*
X191890000Y-73584252D01*
X197110000Y-76415748D02*
X197110000Y-73584252D01*
%TO.C,C42*%
X173890000Y-68865748D02*
X173890000Y-66034252D01*
X179110000Y-68865748D02*
X179110000Y-66034252D01*
%TO.C,C51*%
X143890000Y-76415748D02*
X143890000Y-73584252D01*
X149110000Y-76415748D02*
X149110000Y-73584252D01*
%TO.C,C47*%
X155890000Y-76415748D02*
X155890000Y-73584252D01*
X161110000Y-76415748D02*
X161110000Y-73584252D01*
%TO.C,C24*%
X167890000Y-55634252D02*
X167890000Y-58465748D01*
X173110000Y-55634252D02*
X173110000Y-58465748D01*
%TO.C,C9*%
X125890000Y-48084252D02*
X125890000Y-50915748D01*
X131110000Y-48084252D02*
X131110000Y-50915748D01*
%TO.C,C7*%
X119890000Y-48084252D02*
X119890000Y-50915748D01*
X125110000Y-48084252D02*
X125110000Y-50915748D01*
%TO.C,C27*%
X179890000Y-48084252D02*
X179890000Y-50915748D01*
X185110000Y-48084252D02*
X185110000Y-50915748D01*
%TO.C,C39*%
X179890000Y-76415748D02*
X179890000Y-73584252D01*
X185110000Y-76415748D02*
X185110000Y-73584252D01*
%TO.C,C8*%
X119890000Y-55634252D02*
X119890000Y-58465748D01*
X125110000Y-55634252D02*
X125110000Y-58465748D01*
%TO.C,C28*%
X179890000Y-55634252D02*
X179890000Y-58465748D01*
X185110000Y-55634252D02*
X185110000Y-58465748D01*
%TO.C,C49*%
X149890000Y-76415748D02*
X149890000Y-73584252D01*
X155110000Y-76415748D02*
X155110000Y-73584252D01*
%TO.C,C40*%
X179890000Y-68865748D02*
X179890000Y-66034252D01*
X185110000Y-68865748D02*
X185110000Y-66034252D01*
%TO.C,C46*%
X161890000Y-68865748D02*
X161890000Y-66034252D01*
X167110000Y-68865748D02*
X167110000Y-66034252D01*
%TO.C,C32*%
X191890000Y-55634252D02*
X191890000Y-58465748D01*
X197110000Y-55634252D02*
X197110000Y-58465748D01*
%TO.C,C18*%
X149890000Y-55634252D02*
X149890000Y-58465748D01*
X155110000Y-55634252D02*
X155110000Y-58465748D01*
%TO.C,C62*%
X113890000Y-68865748D02*
X113890000Y-66034252D01*
X119110000Y-68865748D02*
X119110000Y-66034252D01*
%TO.C,C63*%
X107890000Y-76415748D02*
X107890000Y-73584252D01*
X113110000Y-76415748D02*
X113110000Y-73584252D01*
%TO.C,C31*%
X191890000Y-48084252D02*
X191890000Y-50915748D01*
X197110000Y-48084252D02*
X197110000Y-50915748D01*
%TO.C,C36*%
X191890000Y-68865748D02*
X191890000Y-66034252D01*
X197110000Y-68865748D02*
X197110000Y-66034252D01*
%TO.C,C6*%
X113890000Y-55634252D02*
X113890000Y-58465748D01*
X119110000Y-55634252D02*
X119110000Y-58465748D01*
%TO.C,C30*%
X185890000Y-55634252D02*
X185890000Y-58465748D01*
X191110000Y-55634252D02*
X191110000Y-58465748D01*
%TO.C,C13*%
X137890000Y-48084252D02*
X137890000Y-50915748D01*
X143110000Y-48084252D02*
X143110000Y-50915748D01*
%TO.C,C1*%
X101890000Y-48084252D02*
X101890000Y-50915748D01*
X107110000Y-48084252D02*
X107110000Y-50915748D01*
%TO.C,C15*%
X143890000Y-48084252D02*
X143890000Y-50915748D01*
X149110000Y-48084252D02*
X149110000Y-50915748D01*
%TO.C,C44*%
X167890000Y-68865748D02*
X167890000Y-66034252D01*
X173110000Y-68865748D02*
X173110000Y-66034252D01*
%TO.C,C25*%
X173890000Y-48084252D02*
X173890000Y-50915748D01*
X179110000Y-48084252D02*
X179110000Y-50915748D01*
%TO.C,C59*%
X119890000Y-76415748D02*
X119890000Y-73584252D01*
X125110000Y-76415748D02*
X125110000Y-73584252D01*
%TO.C,C56*%
X131890000Y-68865748D02*
X131890000Y-66034252D01*
X137110000Y-68865748D02*
X137110000Y-66034252D01*
%TO.C,C57*%
X125890000Y-76415748D02*
X125890000Y-73584252D01*
X131110000Y-76415748D02*
X131110000Y-73584252D01*
%TO.C,C20*%
X155890000Y-55634252D02*
X155890000Y-58465748D01*
X161110000Y-55634252D02*
X161110000Y-58465748D01*
%TO.C,C45*%
X161890000Y-76415748D02*
X161890000Y-73584252D01*
X167110000Y-76415748D02*
X167110000Y-73584252D01*
%TO.C,C11*%
X131890000Y-48084252D02*
X131890000Y-50915748D01*
X137110000Y-48084252D02*
X137110000Y-50915748D01*
%TO.C,C34*%
X197890000Y-55634252D02*
X197890000Y-58465748D01*
X203110000Y-55634252D02*
X203110000Y-58465748D01*
%TO.C,C50*%
X149890000Y-68865748D02*
X149890000Y-66034252D01*
X155110000Y-68865748D02*
X155110000Y-66034252D01*
%TO.C,C61*%
X113890000Y-76415748D02*
X113890000Y-73584252D01*
X119110000Y-76415748D02*
X119110000Y-73584252D01*
%TO.C,C48*%
X155890000Y-68865748D02*
X155890000Y-66034252D01*
X161110000Y-68865748D02*
X161110000Y-66034252D01*
%TO.C,C5*%
X113890000Y-48084252D02*
X113890000Y-50915748D01*
X119110000Y-48084252D02*
X119110000Y-50915748D01*
%TO.C,C53*%
X137890000Y-76415748D02*
X137890000Y-73584252D01*
X143110000Y-76415748D02*
X143110000Y-73584252D01*
%TO.C,C10*%
X125890000Y-55634252D02*
X125890000Y-58465748D01*
X131110000Y-55634252D02*
X131110000Y-58465748D01*
%TO.C,C58*%
X125890000Y-68865748D02*
X125890000Y-66034252D01*
X131110000Y-68865748D02*
X131110000Y-66034252D01*
%TO.C,C26*%
X173890000Y-55634252D02*
X173890000Y-58465748D01*
X179110000Y-55634252D02*
X179110000Y-58465748D01*
%TO.C,C19*%
X155890000Y-48084252D02*
X155890000Y-50915748D01*
X161110000Y-48084252D02*
X161110000Y-50915748D01*
%TO.C,C21*%
X161890000Y-48084252D02*
X161890000Y-50915748D01*
X167110000Y-48084252D02*
X167110000Y-50915748D01*
%TO.C,C29*%
X185890000Y-48084252D02*
X185890000Y-50915748D01*
X191110000Y-48084252D02*
X191110000Y-50915748D01*
%TO.C,C54*%
X137890000Y-68865748D02*
X137890000Y-66034252D01*
X143110000Y-68865748D02*
X143110000Y-66034252D01*
%TO.C,C43*%
X167890000Y-76415748D02*
X167890000Y-73584252D01*
X173110000Y-76415748D02*
X173110000Y-73584252D01*
%TO.C,C55*%
X131890000Y-76415748D02*
X131890000Y-73584252D01*
X137110000Y-76415748D02*
X137110000Y-73584252D01*
%TO.C,C52*%
X143890000Y-68865748D02*
X143890000Y-66034252D01*
X149110000Y-68865748D02*
X149110000Y-66034252D01*
D13*
%TO.C,REF\u002A\u002A*%
X207730000Y-70809500D02*
X209127000Y-70809500D01*
X207730000Y-73603500D02*
X208492000Y-72968500D01*
X207857000Y-72587500D02*
X207730000Y-73603500D01*
X207984000Y-73095500D02*
X207857000Y-72587500D01*
X207984000Y-73222500D02*
X209762000Y-70428500D01*
X208111000Y-70682500D02*
X209381000Y-70682500D01*
X208492000Y-70428500D02*
X210270000Y-68396500D01*
X208492000Y-72968500D02*
X207984000Y-73222500D01*
X209127000Y-70809500D02*
X207984000Y-73095500D01*
X209254000Y-68523500D02*
X207730000Y-70809500D01*
X209508000Y-68777500D02*
X208111000Y-70682500D01*
X209508000Y-68904500D02*
X209381000Y-68396500D01*
X209762000Y-70428500D02*
X208492000Y-70428500D01*
X210270000Y-68396500D02*
X209508000Y-68904500D01*
D12*
%TO.C,C12*%
X131890000Y-55634252D02*
X131890000Y-58465748D01*
X137110000Y-55634252D02*
X137110000Y-58465748D01*
%TO.C,C3*%
X107890000Y-48084252D02*
X107890000Y-50915748D01*
X113110000Y-48084252D02*
X113110000Y-50915748D01*
%TO.C,C38*%
X185890000Y-68865748D02*
X185890000Y-66034252D01*
X191110000Y-68865748D02*
X191110000Y-66034252D01*
%TO.C,C41*%
X173890000Y-76415748D02*
X173890000Y-73584252D01*
X179110000Y-76415748D02*
X179110000Y-73584252D01*
%TO.C,C22*%
X161890000Y-55634252D02*
X161890000Y-58465748D01*
X167110000Y-55634252D02*
X167110000Y-58465748D01*
%TO.C,C14*%
X137890000Y-55634252D02*
X137890000Y-58465748D01*
X143110000Y-55634252D02*
X143110000Y-58465748D01*
D13*
%TO.C,REF\u002A\u002A*%
X152825000Y-81841000D02*
X153333000Y-82603000D01*
X152952000Y-82857000D02*
X155238000Y-84381000D01*
X153206000Y-82603000D02*
X155111000Y-84000000D01*
X153333000Y-82603000D02*
X152825000Y-82730000D01*
X154857000Y-82349000D02*
X154857000Y-83619000D01*
X154857000Y-83619000D02*
X152825000Y-81841000D01*
X155111000Y-84000000D02*
X155111000Y-82730000D01*
X155238000Y-82984000D02*
X157524000Y-84127000D01*
X155238000Y-84381000D02*
X155238000Y-82984000D01*
X157016000Y-84254000D02*
X158032000Y-84381000D01*
X157397000Y-83619000D02*
X157651000Y-84127000D01*
X157524000Y-84127000D02*
X157016000Y-84254000D01*
X157651000Y-84127000D02*
X154857000Y-82349000D01*
X158032000Y-84381000D02*
X157397000Y-83619000D01*
D12*
%TO.C,C65*%
X101890000Y-76365748D02*
X101890000Y-73534252D01*
X107110000Y-76365748D02*
X107110000Y-73534252D01*
%TO.C,C60*%
X119890000Y-68865748D02*
X119890000Y-66034252D01*
X125110000Y-68865748D02*
X125110000Y-66034252D01*
%TO.C,C17*%
X149890000Y-48084252D02*
X149890000Y-50915748D01*
X155110000Y-48084252D02*
X155110000Y-50915748D01*
%TO.C,C33*%
X197890000Y-48084252D02*
X197890000Y-50915748D01*
X203110000Y-48084252D02*
X203110000Y-50915748D01*
%TO.C,C64*%
X107890000Y-68865748D02*
X107890000Y-66034252D01*
X113110000Y-68865748D02*
X113110000Y-66034252D01*
%TD*%
%LPC*%
D14*
%TO.C,C2*%
X104500000Y-54500000D03*
X104500000Y-59600000D03*
%TD*%
%TO.C,C16*%
X146500000Y-54500000D03*
X146500000Y-59600000D03*
%TD*%
%TO.C,C4*%
X110500000Y-54500000D03*
X110500000Y-59600000D03*
%TD*%
D15*
%TO.C,C66*%
X104500000Y-70000000D03*
X104500000Y-64900000D03*
%TD*%
%TO.C,C37*%
X188500000Y-77550000D03*
X188500000Y-72450000D03*
%TD*%
D14*
%TO.C,C23*%
X170500000Y-46950000D03*
X170500000Y-52050000D03*
%TD*%
D15*
%TO.C,C35*%
X194500000Y-77550000D03*
X194500000Y-72450000D03*
%TD*%
%TO.C,C42*%
X176500000Y-70000000D03*
X176500000Y-64900000D03*
%TD*%
D16*
%TO.C,REF\u002A\u002A*%
X204000000Y-42000000D03*
%TD*%
D15*
%TO.C,C51*%
X146500000Y-77550000D03*
X146500000Y-72450000D03*
%TD*%
%TO.C,C47*%
X158500000Y-77550000D03*
X158500000Y-72450000D03*
%TD*%
D14*
%TO.C,C24*%
X170500000Y-54500000D03*
X170500000Y-59600000D03*
%TD*%
%TO.C,C9*%
X128500000Y-46950000D03*
X128500000Y-52050000D03*
%TD*%
%TO.C,C7*%
X122500000Y-46950000D03*
X122500000Y-52050000D03*
%TD*%
%TO.C,C27*%
X182500000Y-46950000D03*
X182500000Y-52050000D03*
%TD*%
D15*
%TO.C,C39*%
X182500000Y-77550000D03*
X182500000Y-72450000D03*
%TD*%
D14*
%TO.C,C8*%
X122500000Y-54500000D03*
X122500000Y-59600000D03*
%TD*%
%TO.C,C28*%
X182500000Y-54500000D03*
X182500000Y-59600000D03*
%TD*%
D15*
%TO.C,C49*%
X152500000Y-77550000D03*
X152500000Y-72450000D03*
%TD*%
%TO.C,C40*%
X182500000Y-70000000D03*
X182500000Y-64900000D03*
%TD*%
%TO.C,C46*%
X164500000Y-70000000D03*
X164500000Y-64900000D03*
%TD*%
D14*
%TO.C,C32*%
X194500000Y-54500000D03*
X194500000Y-59600000D03*
%TD*%
%TO.C,C18*%
X152500000Y-54500000D03*
X152500000Y-59600000D03*
%TD*%
D15*
%TO.C,C62*%
X116500000Y-70000000D03*
X116500000Y-64900000D03*
%TD*%
%TO.C,C63*%
X110500000Y-77550000D03*
X110500000Y-72450000D03*
%TD*%
D16*
%TO.C,REF\u002A\u002A*%
X105000000Y-82500000D03*
%TD*%
D14*
%TO.C,C31*%
X194500000Y-46950000D03*
X194500000Y-52050000D03*
%TD*%
D15*
%TO.C,C36*%
X194500000Y-70000000D03*
X194500000Y-64900000D03*
%TD*%
D14*
%TO.C,C6*%
X116500000Y-54500000D03*
X116500000Y-59600000D03*
%TD*%
%TO.C,C30*%
X188500000Y-54500000D03*
X188500000Y-59600000D03*
%TD*%
%TO.C,C13*%
X140500000Y-46950000D03*
X140500000Y-52050000D03*
%TD*%
D16*
%TO.C,REF\u002A\u002A*%
X105000000Y-42000000D03*
%TD*%
D14*
%TO.C,C1*%
X104500000Y-46950000D03*
X104500000Y-52050000D03*
%TD*%
%TO.C,C15*%
X146500000Y-46950000D03*
X146500000Y-52050000D03*
%TD*%
D15*
%TO.C,C44*%
X170500000Y-70000000D03*
X170500000Y-64900000D03*
%TD*%
D14*
%TO.C,C25*%
X176500000Y-46950000D03*
X176500000Y-52050000D03*
%TD*%
D15*
%TO.C,C59*%
X122500000Y-77550000D03*
X122500000Y-72450000D03*
%TD*%
%TO.C,C56*%
X134500000Y-70000000D03*
X134500000Y-64900000D03*
%TD*%
%TO.C,C57*%
X128500000Y-77550000D03*
X128500000Y-72450000D03*
%TD*%
D14*
%TO.C,C20*%
X158500000Y-54500000D03*
X158500000Y-59600000D03*
%TD*%
D15*
%TO.C,C45*%
X164500000Y-77550000D03*
X164500000Y-72450000D03*
%TD*%
D14*
%TO.C,C11*%
X134500000Y-46950000D03*
X134500000Y-52050000D03*
%TD*%
%TO.C,C34*%
X200500000Y-54500000D03*
X200500000Y-59600000D03*
%TD*%
D15*
%TO.C,C50*%
X152500000Y-70000000D03*
X152500000Y-64900000D03*
%TD*%
%TO.C,C61*%
X116500000Y-77550000D03*
X116500000Y-72450000D03*
%TD*%
%TO.C,C48*%
X158500000Y-70000000D03*
X158500000Y-64900000D03*
%TD*%
D14*
%TO.C,C5*%
X116500000Y-46950000D03*
X116500000Y-52050000D03*
%TD*%
D15*
%TO.C,C53*%
X140500000Y-77550000D03*
X140500000Y-72450000D03*
%TD*%
D14*
%TO.C,C10*%
X128500000Y-54500000D03*
X128500000Y-59600000D03*
%TD*%
D15*
%TO.C,C58*%
X128500000Y-70000000D03*
X128500000Y-64900000D03*
%TD*%
D14*
%TO.C,C26*%
X176500000Y-54500000D03*
X176500000Y-59600000D03*
%TD*%
%TO.C,C19*%
X158500000Y-46950000D03*
X158500000Y-52050000D03*
%TD*%
%TO.C,C21*%
X164500000Y-46950000D03*
X164500000Y-52050000D03*
%TD*%
%TO.C,C29*%
X188500000Y-46950000D03*
X188500000Y-52050000D03*
%TD*%
D15*
%TO.C,C54*%
X140500000Y-70000000D03*
X140500000Y-64900000D03*
%TD*%
%TO.C,C43*%
X170500000Y-77550000D03*
X170500000Y-72450000D03*
%TD*%
%TO.C,C55*%
X134500000Y-77550000D03*
X134500000Y-72450000D03*
%TD*%
%TO.C,C52*%
X146500000Y-70000000D03*
X146500000Y-64900000D03*
%TD*%
D14*
%TO.C,C12*%
X134500000Y-54500000D03*
X134500000Y-59600000D03*
%TD*%
%TO.C,C3*%
X110500000Y-46950000D03*
X110500000Y-52050000D03*
%TD*%
D15*
%TO.C,C38*%
X188500000Y-70000000D03*
X188500000Y-64900000D03*
%TD*%
%TO.C,C41*%
X176500000Y-77550000D03*
X176500000Y-72450000D03*
%TD*%
D14*
%TO.C,C22*%
X164500000Y-54500000D03*
X164500000Y-59600000D03*
%TD*%
D16*
%TO.C,REF\u002A\u002A*%
X211500000Y-82500000D03*
%TD*%
D14*
%TO.C,C14*%
X140500000Y-54500000D03*
X140500000Y-59600000D03*
%TD*%
D15*
%TO.C,C65*%
X104500000Y-77500000D03*
X104500000Y-72400000D03*
%TD*%
%TO.C,C60*%
X122500000Y-70000000D03*
X122500000Y-64900000D03*
%TD*%
D14*
%TO.C,C17*%
X152500000Y-46950000D03*
X152500000Y-52050000D03*
%TD*%
%TO.C,C33*%
X200500000Y-46950000D03*
X200500000Y-52050000D03*
%TD*%
D15*
%TO.C,C64*%
X110500000Y-70000000D03*
X110500000Y-64900000D03*
%TD*%
D17*
%TO.C,J1*%
X211500000Y-76500000D03*
X211500000Y-65500000D03*
D18*
X201500000Y-68500000D03*
D19*
X201500000Y-73500000D03*
%TD*%
%LPD*%
M02*
